<svg width="16" height="16" viewBox="0 0 16 16" fill="none" xmlns="http://www.w3.org/2000/svg">
<path d="M4.17578 2.3333C4.35944 1.65865 4.9391 1.17133 5.66675 1.119C6.51873 1.05767 7.77837 1 9.5 1C11.211 1 12.4656 1.057 13.3172 1.118C14.1699 1.17866 14.8212 1.82998 14.8819 2.68263C14.9429 3.53428 14.9999 4.78925 14.9999 6.49988C14.9999 8.22151 14.9422 9.48115 14.8809 10.3331C14.8285 11.0608 14.3409 11.6404 13.6666 11.8241" stroke="#696969" stroke-width="1.2" stroke-linecap="round" stroke-linejoin="round"/>
<path d="M11.8818 5.6823C11.8211 4.82998 11.1698 4.179 10.3171 4.118C9.46548 4.05667 8.21051 4 6.49988 4C4.78892 4 3.53428 4.057 2.68263 4.118C1.82998 4.17866 1.17866 4.82998 1.118 5.68263C1.05667 6.53394 1 7.78892 1 9.49988C1 11.2108 1.057 12.4655 1.118 13.3175C1.17866 14.1698 1.82998 14.8208 2.68263 14.8818C3.53428 14.9428 4.78925 14.9998 6.49988 14.9998C8.21084 14.9998 9.46548 14.9428 10.3171 14.8818C11.1698 14.8211 11.8211 14.1698 11.8818 13.3171C11.9428 12.4655 11.9998 11.2105 11.9998 9.49988C11.9998 7.78892 11.9428 6.53428 11.8818 5.6823Z" stroke="#696969" stroke-width="1.2" stroke-linecap="round" stroke-linejoin="round"/>
<path d="M8.00872 10.2421C8.41415 9.95702 8.71829 9.5503 8.87707 9.08083C9.03585 8.61136 9.04102 8.10353 8.89184 7.63092C8.74266 7.15831 8.44687 6.74548 8.04733 6.45225C7.64779 6.15902 7.16527 6.00062 6.66967 6C6.17408 5.99939 5.69116 6.15659 5.2909 6.44883C4.89064 6.74107 4.59383 7.15317 4.44347 7.6254C4.29312 8.09764 4.29703 8.60549 4.45465 9.07535C4.61226 9.54521 4.91539 9.95268 5.32011 10.2387C4.48813 10.5497 3.82515 11.1417 3.48682 11.8787C3.27149 12.347 3.54015 12.9077 4.05481 12.9387L4.06948 12.9397C4.93213 12.982 5.79573 13.002 6.65942 12.9997C7.76239 12.9997 8.61737 12.9727 9.24936 12.9397L9.26436 12.9387C9.77868 12.9077 10.0477 12.347 9.83235 11.8787C9.49502 11.1444 8.83604 10.554 8.00872 10.2421Z" stroke="#696969" stroke-width="1.2" stroke-linecap="round" stroke-linejoin="round"/>
</svg>
