<svg width="133" height="45" viewBox="0 0 133 45" fill="none" xmlns="http://www.w3.org/2000/svg">
<g filter="url(#filter0_d_1081_18463)">
<rect x="6.5" y="6.5" width="120" height="32" rx="8" fill="#292929" shape-rendering="crispEdges"/>
<path d="M20.8118 27.5H18.843L22.4276 17.3182H24.7045L28.294 27.5H26.3253L23.6058 19.4062H23.5263L20.8118 27.5ZM20.8764 23.5078H26.2457V24.9893H20.8764V23.5078ZM32.157 27.6342C31.5571 27.6342 31.0201 27.4801 30.5462 27.1719C30.0722 26.8636 29.6977 26.4162 29.4226 25.8295C29.1475 25.2429 29.0099 24.5303 29.0099 23.6918C29.0099 22.8433 29.1491 22.1274 29.4276 21.544C29.7093 20.9574 30.0888 20.5149 30.5661 20.2166C31.0433 19.915 31.5753 19.7642 32.1619 19.7642C32.6094 19.7642 32.9773 19.8404 33.2656 19.9929C33.554 20.142 33.7827 20.3227 33.9517 20.5348C34.1207 20.7436 34.2517 20.9408 34.3445 21.1264H34.419V17.3182H36.2237V27.5H34.4538V26.2969H34.3445C34.2517 26.4825 34.1174 26.6797 33.9418 26.8885C33.7661 27.094 33.5341 27.2696 33.2457 27.4155C32.9574 27.5613 32.5945 27.6342 32.157 27.6342ZM32.6591 26.1577C33.0402 26.1577 33.3651 26.0549 33.6335 25.8494C33.902 25.6406 34.1058 25.3506 34.245 24.9794C34.3842 24.6082 34.4538 24.1757 34.4538 23.6818C34.4538 23.188 34.3842 22.7588 34.245 22.3942C34.1091 22.0296 33.907 21.7462 33.6385 21.544C33.3733 21.3419 33.0469 21.2408 32.6591 21.2408C32.258 21.2408 31.9233 21.3452 31.6548 21.554C31.3864 21.7628 31.1842 22.0511 31.0483 22.419C30.9124 22.7869 30.8445 23.2079 30.8445 23.6818C30.8445 24.1591 30.9124 24.585 31.0483 24.9595C31.1875 25.3307 31.3913 25.6241 31.6598 25.8395C31.9316 26.0516 32.2647 26.1577 32.6591 26.1577ZM40.9753 27.6342C40.3754 27.6342 39.8385 27.4801 39.3645 27.1719C38.8906 26.8636 38.516 26.4162 38.2409 25.8295C37.9658 25.2429 37.8283 24.5303 37.8283 23.6918C37.8283 22.8433 37.9675 22.1274 38.2459 21.544C38.5276 20.9574 38.9071 20.5149 39.3844 20.2166C39.8617 19.915 40.3936 19.7642 40.9803 19.7642C41.4277 19.7642 41.7956 19.8404 42.084 19.9929C42.3723 20.142 42.601 20.3227 42.7701 20.5348C42.9391 20.7436 43.07 20.9408 43.1628 21.1264H43.2374V17.3182H45.0421V27.5H43.2722V26.2969H43.1628C43.07 26.4825 42.9358 26.6797 42.7601 26.8885C42.5845 27.094 42.3525 27.2696 42.0641 27.4155C41.7757 27.5613 41.4128 27.6342 40.9753 27.6342ZM41.4775 26.1577C41.8586 26.1577 42.1834 26.0549 42.4519 25.8494C42.7203 25.6406 42.9242 25.3506 43.0634 24.9794C43.2026 24.6082 43.2722 24.1757 43.2722 23.6818C43.2722 23.188 43.2026 22.7588 43.0634 22.3942C42.9275 22.0296 42.7253 21.7462 42.4569 21.544C42.1917 21.3419 41.8652 21.2408 41.4775 21.2408C41.0764 21.2408 40.7417 21.3452 40.4732 21.554C40.2047 21.7628 40.0025 22.0511 39.8667 22.419C39.7308 22.7869 39.6628 23.2079 39.6628 23.6818C39.6628 24.1591 39.7308 24.585 39.8667 24.9595C40.0059 25.3307 40.2097 25.6241 40.4782 25.8395C40.7499 26.0516 41.083 26.1577 41.4775 26.1577ZM54.2457 19.8636V21.2557H49.8558V19.8636H54.2457ZM50.9396 18.0341H52.7393V25.2031C52.7393 25.4451 52.7758 25.6307 52.8487 25.7599C52.925 25.8859 53.0244 25.9721 53.147 26.0185C53.2696 26.0649 53.4055 26.0881 53.5547 26.0881C53.6674 26.0881 53.7701 26.0798 53.8629 26.0632C53.959 26.0466 54.032 26.0317 54.0817 26.0185L54.3849 27.4254C54.2888 27.4586 54.1513 27.495 53.9723 27.5348C53.7966 27.5746 53.5812 27.5978 53.326 27.6044C52.8752 27.6177 52.4692 27.5497 52.108 27.4006C51.7467 27.2481 51.46 27.0128 51.2479 26.6946C51.0391 26.3764 50.9363 25.9787 50.9396 25.5014V18.0341ZM58.9998 27.6491C58.2541 27.6491 57.6078 27.4851 57.0609 27.157C56.514 26.8288 56.0898 26.3698 55.7882 25.7798C55.4899 25.1899 55.3407 24.5005 55.3407 23.7116C55.3407 22.9228 55.4899 22.2318 55.7882 21.6385C56.0898 21.0452 56.514 20.5845 57.0609 20.2564C57.6078 19.9283 58.2541 19.7642 58.9998 19.7642C59.7456 19.7642 60.3919 19.9283 60.9387 20.2564C61.4856 20.5845 61.9082 21.0452 62.2065 21.6385C62.5081 22.2318 62.6589 22.9228 62.6589 23.7116C62.6589 24.5005 62.5081 25.1899 62.2065 25.7798C61.9082 26.3698 61.4856 26.8288 60.9387 27.157C60.3919 27.4851 59.7456 27.6491 58.9998 27.6491ZM59.0098 26.2074C59.4141 26.2074 59.7522 26.0964 60.024 25.8743C60.2958 25.6489 60.4979 25.3473 60.6305 24.9695C60.7664 24.5916 60.8343 24.1707 60.8343 23.7067C60.8343 23.2393 60.7664 22.8168 60.6305 22.4389C60.4979 22.0578 60.2958 21.7545 60.024 21.5291C59.7522 21.3037 59.4141 21.1911 59.0098 21.1911C58.5955 21.1911 58.2508 21.3037 57.9757 21.5291C57.7039 21.7545 57.5001 22.0578 57.3642 22.4389C57.2316 22.8168 57.1653 23.2393 57.1653 23.7067C57.1653 24.1707 57.2316 24.5916 57.3642 24.9695C57.5001 25.3473 57.7039 25.6489 57.9757 25.8743C58.2508 26.0964 58.5955 26.2074 59.0098 26.2074ZM73.272 20.1172C73.2256 19.683 73.0301 19.3449 72.6854 19.103C72.344 18.861 71.8999 18.7401 71.353 18.7401C70.9685 18.7401 70.6387 18.7981 70.3636 18.9141C70.0885 19.0301 69.8781 19.1875 69.7322 19.3864C69.5864 19.5852 69.5118 19.8123 69.5085 20.0675C69.5085 20.2796 69.5566 20.4635 69.6527 20.6193C69.7521 20.7751 69.8864 20.9077 70.0554 21.017C70.2244 21.1231 70.4117 21.2126 70.6172 21.2855C70.8227 21.3584 71.0298 21.4197 71.2386 21.4695L72.1932 21.7081C72.5777 21.7976 72.9472 21.9186 73.3018 22.071C73.6598 22.2235 73.9796 22.4157 74.2614 22.6477C74.5464 22.8797 74.7718 23.1598 74.9375 23.4879C75.1032 23.8161 75.1861 24.2005 75.1861 24.6413C75.1861 25.2379 75.0336 25.7633 74.7287 26.2173C74.4238 26.6681 73.983 27.0211 73.4062 27.2763C72.8329 27.5282 72.1385 27.6541 71.3232 27.6541C70.531 27.6541 69.8433 27.5315 69.2599 27.2862C68.6799 27.041 68.2259 26.683 67.8977 26.2124C67.5729 25.7417 67.3973 25.1683 67.3707 24.4922H69.1854C69.2119 24.8468 69.3213 25.1418 69.5135 25.3771C69.7057 25.6125 69.956 25.7881 70.2642 25.9041C70.5758 26.0201 70.9238 26.0781 71.3082 26.0781C71.7093 26.0781 72.0606 26.0185 72.3622 25.8991C72.6671 25.7765 72.9058 25.6075 73.0781 25.392C73.2505 25.1733 73.3383 24.9181 73.3416 24.6264C73.3383 24.3613 73.2604 24.1425 73.108 23.9702C72.9555 23.7945 72.7417 23.6487 72.4666 23.5327C72.1948 23.4134 71.8767 23.3073 71.5121 23.2145L70.3537 22.9162C69.5152 22.7008 68.8523 22.3743 68.3651 21.9368C67.8812 21.496 67.6392 20.911 67.6392 20.1818C67.6392 19.5819 67.8016 19.0566 68.1264 18.6058C68.4545 18.1551 68.9003 17.8054 69.4638 17.5568C70.0272 17.3049 70.6652 17.179 71.3778 17.179C72.1004 17.179 72.7334 17.3049 73.277 17.5568C73.8239 17.8054 74.2531 18.1518 74.5646 18.5959C74.8762 19.0367 75.0369 19.5438 75.0469 20.1172H73.272ZM81.6181 24.2884V19.8636H83.4178V27.5H81.6728V26.1428H81.5932C81.4209 26.5703 81.1375 26.92 80.7431 27.1918C80.352 27.4635 79.8697 27.5994 79.2963 27.5994C78.7959 27.5994 78.3534 27.4884 77.9689 27.2663C77.5878 27.041 77.2895 26.7145 77.074 26.2869C76.8586 25.8561 76.7509 25.3357 76.7509 24.7259V19.8636H78.5506V24.4474C78.5506 24.9313 78.6832 25.3158 78.9483 25.6009C79.2135 25.8859 79.5615 26.0284 79.9924 26.0284C80.2575 26.0284 80.5144 25.9638 80.763 25.8345C81.0115 25.7053 81.2154 25.513 81.3745 25.2578C81.5369 24.9993 81.6181 24.6761 81.6181 24.2884ZM85.2685 27.5V19.8636H87.0135V21.1364H87.093C87.2322 20.6955 87.4709 20.3558 87.8089 20.1172C88.1503 19.8752 88.5398 19.7543 88.9773 19.7543C89.0767 19.7543 89.1877 19.7592 89.3104 19.7692C89.4363 19.7758 89.5407 19.7874 89.6236 19.804V21.4595C89.5473 21.433 89.4264 21.4098 89.2607 21.3899C89.0982 21.3667 88.9408 21.3551 88.7884 21.3551C88.4602 21.3551 88.1652 21.4264 87.9034 21.5689C87.6449 21.7081 87.4411 21.902 87.2919 22.1506C87.1428 22.3991 87.0682 22.6858 87.0682 23.0107V27.5H85.2685ZM97.8727 19.8636L95.1532 27.5H93.1646L90.4451 19.8636H92.3642L94.1191 25.5362H94.1987L95.9586 19.8636H97.8727ZM102.239 27.6491C101.473 27.6491 100.812 27.4901 100.255 27.1719C99.7018 26.8504 99.2759 26.3963 98.9776 25.8097C98.6793 25.2197 98.5302 24.5253 98.5302 23.7266C98.5302 22.9411 98.6793 22.2517 98.9776 21.6584C99.2792 21.0618 99.7002 20.5978 100.24 20.2663C100.781 19.9316 101.415 19.7642 102.145 19.7642C102.615 19.7642 103.059 19.8404 103.477 19.9929C103.898 20.142 104.269 20.3741 104.591 20.6889C104.915 21.0038 105.171 21.4048 105.356 21.892C105.542 22.3759 105.635 22.9527 105.635 23.6222V24.174H99.3754V22.9609H103.909C103.906 22.6162 103.832 22.3097 103.686 22.0412C103.54 21.7694 103.336 21.5556 103.074 21.3999C102.816 21.2441 102.514 21.1662 102.169 21.1662C101.801 21.1662 101.478 21.2557 101.2 21.4347C100.922 21.6103 100.704 21.8423 100.549 22.1307C100.396 22.4157 100.318 22.7289 100.315 23.0703V24.1293C100.315 24.5734 100.396 24.9545 100.559 25.2727C100.721 25.5876 100.948 25.8295 101.24 25.9986C101.531 26.1643 101.873 26.2472 102.264 26.2472C102.526 26.2472 102.763 26.2107 102.975 26.1378C103.187 26.0616 103.371 25.9505 103.527 25.8047C103.682 25.6589 103.8 25.4782 103.88 25.2628L105.56 25.4517C105.454 25.8958 105.252 26.2836 104.953 26.6151C104.658 26.9432 104.281 27.1984 103.82 27.3807C103.359 27.5597 102.832 27.6491 102.239 27.6491ZM108.057 30.3636C107.812 30.3636 107.585 30.3438 107.376 30.304C107.17 30.2675 107.006 30.2244 106.884 30.1747L107.301 28.7727C107.563 28.849 107.797 28.8854 108.002 28.8821C108.208 28.8788 108.388 28.8142 108.544 28.6882C108.703 28.5656 108.838 28.3601 108.947 28.0717L109.101 27.6591L106.332 19.8636H108.241L110.001 25.6307H110.08L111.845 19.8636H113.759L110.702 28.4247C110.559 28.8291 110.37 29.1754 110.135 29.4638C109.9 29.7554 109.611 29.9775 109.27 30.13C108.932 30.2857 108.528 30.3636 108.057 30.3636Z" fill="white"/>
</g>
<defs>
<filter id="filter0_d_1081_18463" x="0" y="0" width="133" height="45" filterUnits="userSpaceOnUse" color-interpolation-filters="sRGB">
<feFlood flood-opacity="0" result="BackgroundImageFix"/>
<feColorMatrix in="SourceAlpha" type="matrix" values="0 0 0 0 0 0 0 0 0 0 0 0 0 0 0 0 0 0 127 0" result="hardAlpha"/>
<feOffset/>
<feGaussianBlur stdDeviation="3.25"/>
<feComposite in2="hardAlpha" operator="out"/>
<feColorMatrix type="matrix" values="0 0 0 0 0 0 0 0 0 0 0 0 0 0 0 0 0 0 0.25 0"/>
<feBlend mode="normal" in2="BackgroundImageFix" result="effect1_dropShadow_1081_18463"/>
<feBlend mode="normal" in="SourceGraphic" in2="effect1_dropShadow_1081_18463" result="shape"/>
</filter>
</defs>
</svg>
