<svg width="20" height="20" viewBox="0 0 20 20" fill="none" xmlns="http://www.w3.org/2000/svg">
<path d="M11.1738 8.43484C11.1743 8.53844 11.2156 8.63766 11.2889 8.71091C11.3621 8.78416 11.4613 8.82551 11.5649 8.82594H18.9998C18.9998 6.75037 18.1753 4.75981 16.7077 3.29216C15.24 1.82452 13.2494 1 11.1738 1V8.43484Z" fill="#FE5102" stroke="#FE5102" stroke-width="1.2" stroke-linecap="round" stroke-linejoin="round"/>
<path d="M16.7112 15.9253C17.4386 15.1992 18.0152 14.3364 18.408 13.3867C18.8007 12.4369 19.0018 11.4189 18.9997 10.3911H11.5648C11.3496 10.3911 11.2981 10.5155 11.4503 10.6677L16.7112 15.9253Z" fill="#FE5102"/>
<path d="M17.0428 10.3911C16.8363 11.8853 16.1995 13.2871 15.2101 14.4256L16.7098 15.9253C17.4375 15.1993 18.0144 14.3366 18.4075 13.3869C18.8005 12.4371 19.0018 11.419 18.9999 10.3911H17.0428Z" fill="#FE5102"/>
<path d="M16.5 16C17.2274 15.2739 17.6524 14.9453 18.0452 13.9956C18.4379 13.0458 18.639 12.0278 18.6369 11H11.202C10.9868 11 10.9353 11.1244 11.0875 11.2765L16.5 16Z" fill="#FE5102" stroke="#FE5102" stroke-width="1.2" stroke-linecap="round" stroke-linejoin="round"/>
<path d="M8.82597 3.34814C7.53895 3.34815 6.2718 3.66556 5.13676 4.27227C4.00173 4.87897 3.03383 5.75624 2.31883 6.82636C1.60382 7.89648 1.16378 9.12642 1.03766 10.4072C0.911552 11.688 1.10327 12.9802 1.59583 14.1692C2.0884 15.3582 2.86661 16.4074 3.86152 17.2238C4.85643 18.0403 6.03735 18.5987 7.29965 18.8497C8.56195 19.1007 9.86667 19.0366 11.0982 18.6629C12.3298 18.2892 13.4502 17.6176 14.3602 16.7075L9.10252 11.4498C8.93697 11.2653 8.83941 11.0297 8.82597 10.7822V3.34814Z" fill="#FE5102"/>
<path d="M4.9126 14.8756C3.9493 14.3193 3.11589 13.5637 2.46809 12.6594C1.8203 11.7551 1.37306 10.7229 1.15628 9.63184C0.827281 11.278 1.03636 12.9864 1.75264 14.5047C2.46893 16.023 3.65446 17.2707 5.13417 18.0636C6.61389 18.8565 8.30936 19.1525 9.97023 18.9081C11.6311 18.6636 13.1693 17.8915 14.3578 16.7059L12.5987 14.9468C11.4198 15.5975 10.0928 15.9329 8.7463 15.9204C7.39977 15.9079 6.07926 15.548 4.9126 14.8756Z" fill="#FE5102"/>
<path d="M8.82597 3.34814C7.53895 3.34815 6.2718 3.66556 5.13676 4.27227C4.00173 4.87897 3.03383 5.75624 2.31883 6.82636C1.60382 7.89648 1.16378 9.12642 1.03766 10.4072C0.911552 11.688 1.10327 12.9802 1.59583 14.1692C2.0884 15.3582 2.86661 16.4074 3.86152 17.2238C4.85643 18.0403 6.03735 18.5987 7.29965 18.8497C8.56195 19.1007 9.86667 19.0366 11.0982 18.6629C12.3298 18.2892 13.4502 17.6176 14.3602 16.7075L8 12C7.83446 11.8155 8.01344 11.6974 8 11.4498L8.82597 3.34814Z" fill="#FE5102" stroke="#FE5102" stroke-width="1.2" stroke-linecap="round" stroke-linejoin="round"/>
</svg>
