<svg width="20" height="20" viewBox="0 0 20 20" fill="none" xmlns="http://www.w3.org/2000/svg">
<path d="M11.1738 8.43484C11.1743 8.53844 11.2156 8.63766 11.2889 8.71091C11.3621 8.78416 11.4613 8.82551 11.5649 8.82594H18.9998C18.9998 6.75037 18.1753 4.75981 16.7077 3.29216C15.24 1.82452 13.2494 1 11.1738 1V8.43484Z" stroke="#696969" stroke-width="1.2" stroke-linecap="round" stroke-linejoin="round"/>
<path d="M16.5 16C17.2274 15.2739 17.6524 14.9453 18.0452 13.9956C18.4379 13.0458 18.639 12.0278 18.6369 11H11.202C10.9868 11 10.9353 11.1244 11.0875 11.2765L16.5 16Z" stroke="#696969" stroke-width="1.2" stroke-linecap="round" stroke-linejoin="round"/>
<path d="M8.82597 3.34814C7.53895 3.34815 6.2718 3.66556 5.13676 4.27227C4.00173 4.87897 3.03383 5.75624 2.31883 6.82636C1.60382 7.89648 1.16378 9.12642 1.03766 10.4072C0.911552 11.688 1.10327 12.9802 1.59583 14.1692C2.0884 15.3582 2.86661 16.4074 3.86152 17.2238C4.85643 18.0403 6.03735 18.5987 7.29965 18.8497C8.56195 19.1007 9.86667 19.0366 11.0982 18.6629C12.3298 18.2892 13.4502 17.6176 14.3602 16.7075L8 12C7.83446 11.8155 8.01344 11.6974 8 11.4498L8.82597 3.34814Z" stroke="#696969" stroke-width="1.2" stroke-linecap="round" stroke-linejoin="round"/>
</svg>
