<svg width="20" height="20" viewBox="0 0 20 20" fill="none" xmlns="http://www.w3.org/2000/svg">
<path d="M10.7738 8.03641C10.7742 8.14 10.8156 8.23922 10.8888 8.31247C10.9621 8.38573 11.0613 8.42707 11.1649 8.4275H18.5998C18.5998 6.35193 17.7753 4.36137 16.3076 2.89373C14.84 1.42608 12.8494 0.601563 10.7738 0.601562V8.03641Z" stroke="#696969" stroke-width="1.2" stroke-linecap="round" stroke-linejoin="round"/>
<path d="M16.1 15.6016C16.8273 14.8754 17.2524 14.5469 17.6452 13.5971C18.0379 12.6474 18.239 11.6293 18.2369 10.6016H10.802C10.5868 10.6016 10.5353 10.7259 10.6874 10.8781L16.1 15.6016Z" stroke="#696969" stroke-width="1.2" stroke-linecap="round" stroke-linejoin="round"/>
<path d="M8.42595 2.94922C7.13893 2.94923 5.87178 3.26664 4.73674 3.87334C3.6017 4.48005 2.63381 5.35732 1.9188 6.42744C1.2038 7.49756 0.763751 8.7275 0.637639 10.0083C0.511527 11.2891 0.703245 12.5813 1.19581 13.7703C1.68837 14.9593 2.46658 16.0085 3.4615 16.8249C4.45641 17.6413 5.63732 18.1998 6.89962 18.4508C8.16192 18.7018 9.46665 18.6376 10.6982 18.264C11.9298 17.8903 13.0502 17.2187 13.9602 16.3085L7.59998 11.6011C7.43443 11.4165 7.61341 11.2984 7.59998 11.0509L8.42595 2.94922Z" stroke="#696969" stroke-width="1.2" stroke-linecap="round" stroke-linejoin="round"/>
</svg>
