<svg width="15" height="9" viewBox="0 0 15 9" fill="none" xmlns="http://www.w3.org/2000/svg">
<path d="M7.5 0.634766C7.59526 0.634766 7.68985 0.653503 7.77734 0.691406C7.8647 0.729272 7.94332 0.785064 8.00879 0.854492L14.4062 7.64355C14.5306 7.77549 14.5996 7.95096 14.5996 8.13281C14.5995 8.31451 14.5305 8.48926 14.4062 8.62109L14.4043 8.62305L14.3984 8.62793C14.3374 8.69284 14.2642 8.74487 14.1826 8.78027C14.1011 8.81561 14.0135 8.83396 13.9248 8.83398C13.8359 8.83398 13.7476 8.8157 13.666 8.78027C13.5847 8.74492 13.5111 8.69364 13.4502 8.62891L7.50098 2.3125L1.5498 8.62891C1.48888 8.69364 1.41534 8.74492 1.33398 8.78027C1.25237 8.8157 1.16409 8.83398 1.0752 8.83398C0.986452 8.83396 0.898875 8.81561 0.817383 8.78027C0.735842 8.74488 0.66161 8.69381 0.600586 8.62891V8.62793L0.59375 8.62109C0.469461 8.48926 0.400498 8.31451 0.400391 8.13281C0.400391 7.95096 0.469353 7.77549 0.59375 7.64355L6.99121 0.854492C7.05668 0.785064 7.1353 0.729272 7.22266 0.691406C7.31015 0.653503 7.40474 0.634766 7.5 0.634766Z" fill="#696969" stroke="#696969" stroke-width="0.2"/>
</svg>
