<svg width="15" height="9" viewBox="0 0 15 9" fill="none" xmlns="http://www.w3.org/2000/svg">
<path d="M7.5 8.83398C7.59526 8.83398 7.68985 8.81525 7.77734 8.77734C7.8647 8.73948 7.94332 8.68369 8.00879 8.61426L14.4062 1.8252C14.5306 1.69326 14.5996 1.51779 14.5996 1.33594C14.5995 1.15424 14.5305 0.979491 14.4062 0.847656L14.4043 0.845703L14.3984 0.84082C14.3374 0.775905 14.2642 0.723877 14.1826 0.688477C14.1011 0.653138 14.0135 0.634795 13.9248 0.634766C13.8359 0.634766 13.7476 0.653048 13.666 0.688477C13.5847 0.72383 13.5111 0.775108 13.4502 0.839844L7.50098 7.15625L1.5498 0.839844C1.48888 0.775108 1.41534 0.72383 1.33398 0.688477C1.25237 0.653048 1.16409 0.634766 1.0752 0.634766C0.986452 0.634795 0.898875 0.653138 0.817383 0.688477C0.735842 0.723871 0.66161 0.774943 0.600586 0.839844V0.84082L0.59375 0.847656C0.469461 0.979491 0.400498 1.15424 0.400391 1.33594C0.400391 1.51779 0.469353 1.69326 0.59375 1.8252L6.99121 8.61426C7.05668 8.68369 7.1353 8.73948 7.22266 8.77734C7.31015 8.81525 7.40474 8.83398 7.5 8.83398Z" fill="#696969" stroke="#696969" stroke-width="0.2"/>
</svg>
