<svg width="14" height="11" viewBox="0 0 14 11" fill="none" xmlns="http://www.w3.org/2000/svg">
<path d="M6.20688 0.29312C6.01935 0.105435 5.76504 0 5.49987 0C5.2347 0 4.98039 0.105435 4.79286 0.29312L0.292791 4.79824C0.105317 4.98598 0 5.24058 0 5.50604C0 5.77151 0.105317 6.02611 0.292791 6.21385L4.79286 10.719C4.98146 10.9013 5.23407 11.0022 5.49627 11C5.75847 10.9977 6.00929 10.8924 6.1947 10.7068C6.38011 10.5212 6.48528 10.2701 6.48756 10.0076C6.48984 9.74507 6.38904 9.49218 6.20688 9.30336L3.49984 6.50718H13C13.2652 6.50718 13.5196 6.40171 13.7071 6.21396C13.8946 6.02621 14 5.77156 14 5.50604C14 5.24053 13.8946 4.98588 13.7071 4.79813C13.5196 4.61038 13.2652 4.50491 13 4.50491H3.49984L6.20688 1.70873C6.39435 1.52099 6.49967 1.26639 6.49967 1.00092C6.49967 0.735458 6.39435 0.480861 6.20688 0.29312Z" fill="#696969"/>
</svg>
