<svg width="16" height="16" viewBox="0 0 16 16" fill="none" xmlns="http://www.w3.org/2000/svg">
<path d="M8 0.400391C9.19455 0.400391 10.3382 0.908926 11.1807 1.81152C12.0228 2.71381 12.495 3.93574 12.4951 5.20898V6.02832C12.606 6.03799 12.7168 6.04881 12.8271 6.06445H12.8281C13.4262 6.15067 13.9451 6.33651 14.3584 6.7793C14.7707 7.22119 14.9428 7.7746 15.0234 8.41211C15.0999 9.02446 15.0996 9.80097 15.0996 10.752V10.8291C15.0996 11.7804 15.0999 12.5575 15.0234 13.1699C14.9428 13.8073 14.7706 14.3599 14.3584 14.8018C13.9451 15.2446 13.4262 15.4307 12.8281 15.5176H12.8271C12.254 15.5997 11.5277 15.5996 10.6406 15.5996H5.35938C4.47227 15.5996 3.746 15.5997 3.17285 15.5176H3.17188C2.57382 15.4307 2.05489 15.2446 1.6416 14.8018C1.23018 14.36 1.05595 13.8076 0.976562 13.1699C0.899413 12.5574 0.900391 11.7804 0.900391 10.8291V10.752C0.900391 9.80109 0.89948 9.0245 0.976562 8.41211C1.05657 7.77452 1.22925 7.2212 1.6416 6.7793C2.05475 6.33737 2.57355 6.15001 3.17188 6.06445L3.37891 6.03809C3.42021 6.03368 3.46223 6.03005 3.50488 6.02637V5.20898C3.50496 3.93574 3.97721 2.71381 4.81934 1.81152C5.66176 0.908926 6.80545 0.400391 8 0.400391ZM5.39551 7.22754C4.69248 7.22754 4.15435 7.22914 3.72559 7.25879L3.33105 7.29883C2.86576 7.36608 2.63769 7.48632 2.47852 7.65625C2.31875 7.82763 2.20575 8.07465 2.14258 8.57715C2.07781 9.0962 2.07715 9.78746 2.07715 10.791C2.07715 11.7943 2.07783 12.4852 2.14258 13.0049C2.20578 13.5069 2.31998 13.7543 2.47949 13.9258H2.47852C2.63757 14.0962 2.86583 14.2149 3.33203 14.2822C3.81422 14.3514 4.45823 14.3535 5.39551 14.3535H10.6045C11.5419 14.3535 12.1854 14.3514 12.6689 14.2822L12.833 14.2549C13.1902 14.1845 13.3823 14.0744 13.5215 13.9258C13.6814 13.7544 13.7942 13.5075 13.8574 13.0049C13.9222 12.4858 13.9229 11.7946 13.9229 10.791C13.9229 10.0382 13.9223 9.46058 13.8945 9L13.8574 8.57617C13.7942 8.0742 13.68 7.82778 13.5205 7.65625V7.65527C13.3615 7.48518 13.1336 7.36603 12.668 7.29883C12.1851 7.22966 11.5417 7.22754 10.6045 7.22754H5.39551ZM8 1.64648C7.12228 1.64648 6.2792 2.02019 5.65625 2.6875C5.03313 3.35513 4.68172 4.26205 4.68164 5.20898V5.98242C4.89547 5.98109 5.12138 5.98104 5.35938 5.98145H10.6406C10.8786 5.98145 11.1046 5.98138 11.3184 5.98242V5.20898C11.3182 3.23449 9.82666 1.64648 8 1.64648Z" fill="#696969" stroke="#696969" stroke-width="0.2"/>
</svg>
