<svg width="12" height="12" viewBox="0 0 12 12" fill="none" xmlns="http://www.w3.org/2000/svg">
<path fill-rule="evenodd" clip-rule="evenodd" d="M5.80182 7.30634L9.33715 10.8417C9.52475 11.0293 9.77919 11.1347 10.0445 11.1347C10.3098 11.1347 10.5642 11.0293 10.7518 10.8417C10.9394 10.6541 11.0448 10.3996 11.0448 10.1343C11.0448 9.86904 10.9394 9.6146 10.7518 9.42701L7.21515 5.89167L10.7512 2.35634C10.844 2.26345 10.9176 2.15319 10.9679 2.03184C11.0181 1.91049 11.0439 1.78044 11.0439 1.64911C11.0439 1.51777 11.018 1.38773 10.9677 1.26641C10.9174 1.14508 10.8437 1.03485 10.7508 0.942008C10.6579 0.849164 10.5477 0.775524 10.4263 0.725294C10.305 0.675063 10.1749 0.649226 10.0436 0.649257C9.91225 0.649288 9.78221 0.675186 9.66089 0.725474C9.53956 0.775762 9.42933 0.849453 9.33649 0.942342L5.80182 4.47767L2.26649 0.942342C2.17428 0.846789 2.06398 0.770556 1.942 0.71809C1.82002 0.665624 1.68881 0.637977 1.55603 0.636761C1.42325 0.635545 1.29156 0.660784 1.16864 0.711007C1.04572 0.76123 0.934038 0.835431 0.840102 0.929279C0.746165 1.02313 0.67186 1.13474 0.621521 1.25762C0.571182 1.38049 0.545818 1.51215 0.546909 1.64493C0.548 1.77771 0.575523 1.90895 0.627874 2.03097C0.680224 2.153 0.756354 2.26338 0.851819 2.35568L4.38849 5.89167L0.852486 9.42768C0.757021 9.51997 0.680891 9.63035 0.628541 9.75238C0.57619 9.8744 0.548666 10.0056 0.547575 10.1384C0.546485 10.2712 0.571849 10.4029 0.622187 10.5257C0.672526 10.6486 0.746832 10.7602 0.840768 10.8541C0.934705 10.9479 1.04639 11.0221 1.16931 11.0723C1.29223 11.1226 1.42392 11.1478 1.5567 11.1466C1.68948 11.1454 1.82068 11.1177 1.94266 11.0653C2.06464 11.0128 2.17495 10.9366 2.26715 10.841L5.80182 7.30634Z" fill="#696969"/>
</svg>
