<svg width="19" height="19" viewBox="0 0 19 19" fill="none" xmlns="http://www.w3.org/2000/svg">
<path d="M6.28516 1.97363C7.82005 1.33786 9.50924 1.17198 11.1387 1.49609C12.7681 1.82021 14.2647 2.62016 15.4395 3.79492C16.6142 4.96968 17.4142 6.46626 17.7383 8.0957C18.0624 9.72514 17.8965 11.4143 17.2607 12.9492C16.625 14.484 15.5482 15.7958 14.167 16.7188C12.7856 17.6418 11.1614 18.1348 9.5 18.1348C8.1111 18.1348 6.80125 17.7972 5.64844 17.2012C5.52657 17.1382 5.38632 17.1189 5.25195 17.1465L1.27051 17.9629L2.08789 13.9824C2.11546 13.8481 2.09615 13.7078 2.0332 13.5859C1.43636 12.4323 1.09961 11.1244 1.09961 9.73438C1.09961 8.07301 1.59262 6.44876 2.51562 5.06738C3.43858 3.68613 4.75039 2.6094 6.28516 1.97363Z" stroke="#696969" stroke-width="1.2" stroke-linecap="round" stroke-linejoin="round"/>
</svg>
