<svg width="19" height="19" viewBox="0 0 19 19" fill="none" xmlns="http://www.w3.org/2000/svg">
<path d="M6.28516 1.47363C7.82005 0.83786 9.50924 0.671984 11.1387 0.996094C12.7681 1.32021 14.2647 2.12016 15.4395 3.29492C16.6142 4.46968 17.4142 5.96626 17.7383 7.5957C18.0624 9.22514 17.8965 10.9143 17.2607 12.4492C16.625 13.984 15.5482 15.2958 14.167 16.2188C12.7856 17.1418 11.1614 17.6348 9.5 17.6348C8.1111 17.6348 6.80125 17.2972 5.64844 16.7012C5.52657 16.6382 5.38632 16.6189 5.25195 16.6465L1.27051 17.4629L2.08789 13.4824C2.11546 13.3481 2.09615 13.2078 2.0332 13.0859C1.43636 11.9323 1.09961 10.6244 1.09961 9.23438C1.09961 7.57301 1.59262 5.94876 2.51562 4.56738C3.43858 3.18613 4.75039 2.1094 6.28516 1.47363Z" stroke="#3043AF" stroke-width="1.2" stroke-linecap="round" stroke-linejoin="round"/>
</svg>
