<svg width="12" height="12" viewBox="0 0 12 12" fill="none" xmlns="http://www.w3.org/2000/svg">
<g clip-path="url(#clip0_853_8858)">
<path d="M3.19844 0.748437C3.19844 0.655612 3.16156 0.566588 3.09592 0.50095C3.03029 0.435312 2.94126 0.398438 2.84844 0.398438C2.75561 0.398438 2.66659 0.435312 2.60095 0.50095C2.53531 0.566588 2.49844 0.655612 2.49844 0.748437V1.09844H1.79844C1.42713 1.09844 1.07104 1.24594 0.808488 1.50849C0.545937 1.77104 0.398438 2.12713 0.398438 2.49844L0.398438 3.19844H11.5984V2.49844C11.5984 2.12713 11.4509 1.77104 11.1884 1.50849C10.9258 1.24594 10.5697 1.09844 10.1984 1.09844H9.49844V0.748437C9.49844 0.655612 9.46156 0.566588 9.39592 0.50095C9.33029 0.435312 9.24126 0.398438 9.14844 0.398438C9.05561 0.398438 8.96659 0.435312 8.90095 0.50095C8.83531 0.566588 8.79844 0.655612 8.79844 0.748437V1.09844H3.19844V0.748437ZM6.97984 7.57064C7.41734 7.57064 7.80864 7.23184 7.80864 6.74464C7.80864 6.16224 7.43974 5.88364 6.99664 5.88364C6.58644 5.88364 6.17904 6.15454 6.17904 6.73064C6.17904 7.30254 6.55914 7.57064 6.97984 7.57064Z" fill="black"/>
<path d="M11.5984 10.1984V3.89844H0.398438V10.1984C0.398438 10.5697 0.545937 10.9258 0.808488 11.1884C1.07104 11.4509 1.42713 11.5984 1.79844 11.5984H10.1984C10.5697 11.5984 10.9258 11.4509 11.1884 11.1884C11.4509 10.9258 11.5984 10.5697 11.5984 10.1984ZM6.93364 9.35144C6.15664 9.35144 5.77444 8.81454 5.74154 8.36654H6.21964C6.24974 8.62554 6.49054 8.94054 6.95534 8.94054C7.54614 8.94054 7.86604 8.34694 7.86884 7.42574H7.84994C7.74284 7.71554 7.40404 7.97874 6.88184 7.97874C6.28544 7.97874 5.70864 7.55174 5.70864 6.73974C5.70864 5.94384 6.31834 5.47344 6.96654 5.47344C7.78694 5.47344 8.33364 5.98724 8.33364 7.34104C8.33364 8.60454 7.81424 9.35074 6.93364 9.35074V9.35144ZM4.91064 5.54694V9.27934H4.43744V6.05374H4.42904C4.22604 6.16294 3.81094 6.41774 3.54844 6.59764V6.11044C3.8434 5.90461 4.1503 5.71644 4.46754 5.54694H4.91064Z" fill="black"/>
</g>
<defs>
<clipPath id="clip0_853_8858">
<rect width="11.2" height="11.2" fill="white" transform="translate(0.398438 0.398438)"/>
</clipPath>
</defs>
</svg>
