<svg width="19" height="20" viewBox="0 0 19 20" fill="none" xmlns="http://www.w3.org/2000/svg">
<path d="M16.1667 3.88437L15.6156 12.9069C15.4751 15.2118 15.4049 16.3647 14.8333 17.1936C14.5512 17.6032 14.1879 17.949 13.7667 18.2088C12.916 18.7344 11.7756 18.7344 9.49467 18.7344C7.21022 18.7344 6.068 18.7344 5.21556 18.2079C4.79412 17.9475 4.43086 17.6012 4.14889 17.1909C3.57822 16.3611 3.50889 15.2064 3.372 12.8979L2.83333 3.88437M6.83333 9.49587H12.1667M8.16667 13.023H10.8333M1.5 3.88437H17.5M13.1044 3.88437L12.4982 2.61717C12.0947 1.77478 11.8938 1.35448 11.5462 1.09168C11.469 1.03346 11.3873 0.981689 11.3018 0.936875C10.9169 0.734375 10.4547 0.734375 9.53022 0.734375C8.58356 0.734375 8.10978 0.734375 7.71778 0.944975C7.63113 0.991965 7.54847 1.04615 7.47067 1.10698C7.11867 1.37968 6.92222 1.81618 6.52933 2.68827L5.99156 3.88437" stroke="#696969" stroke-width="1.2" stroke-linecap="round" stroke-linejoin="round"/>
</svg>
