<svg width="20" height="20" viewBox="0 0 20 20" fill="none" xmlns="http://www.w3.org/2000/svg">
<path d="M10.0003 18.3304C12.2102 18.3304 14.3297 17.4527 15.8932 15.8901C17.4557 14.3267 18.3335 12.2071 18.3335 9.99723C18.3335 7.78737 17.4558 5.66779 15.8932 4.10433C14.3298 2.54181 12.2102 1.66406 10.0003 1.66406C7.79042 1.66406 5.67084 2.54175 4.10738 4.10433C2.54487 5.66774 1.66711 7.78737 1.66711 9.99723C1.6689 12.2062 2.54839 14.3251 4.11013 15.8876C5.67265 17.4492 7.79133 18.3288 10.0005 18.3306L10.0003 18.3304ZM10.0003 17.3786C8.09758 17.3777 6.26902 16.6402 4.8994 15.3196L10.1852 10.4732H17.3577C17.2353 12.3428 16.4077 14.0965 15.0424 15.3786C13.6763 16.6608 11.8737 17.375 10.0003 17.3786ZM17.3577 9.52134H10.4764V2.64008C12.263 2.75794 13.9462 3.52046 15.2123 4.78565C16.4775 6.05175 17.2398 7.73457 17.3577 9.52134ZM9.52439 2.64008V9.78763L4.25367 14.619C3.11614 13.2101 2.53757 11.4325 2.62864 9.6242C2.71882 7.81612 3.47151 6.10459 4.74385 4.81703C6.0153 3.52862 7.71727 2.75348 9.52439 2.64008Z" fill="#696969"/>
<path d="M10 5.87473e-05C9.50004 5.87473e-05 9.00003 0.0375588 8.50537 0.110776C8.25805 0.148276 8.08214 0.368815 8.10091 0.617025C8.11877 0.866126 8.32591 1.05811 8.57502 1.05811C8.59913 1.05811 8.62234 1.05632 8.64645 1.05275C11.1359 0.676857 13.6689 1.35365 15.6386 2.92332C17.6074 4.4921 18.8334 6.81001 19.0226 9.32068C19.211 11.8314 18.3458 14.3073 16.6333 16.153C14.9217 17.9986 12.5181 19.0477 10.0001 19.0477C9.54738 19.0477 9.09471 19.0147 8.64647 18.9477C8.38665 18.9084 8.14379 19.0879 8.1045 19.3477C8.0661 19.6075 8.24468 19.8504 8.5054 19.8897C11.2563 20.3049 14.0563 19.5558 16.2324 17.8218C18.4084 16.0878 19.7636 13.5253 19.9716 10.7501C20.1806 7.97591 19.2234 5.2394 17.3314 3.19914C15.4394 1.15981 12.7823 5.87473e-05 10 5.87473e-05Z" fill="#696969"/>
<path d="M4.40536 17.11C4.19911 16.9475 3.89911 16.9823 3.73659 17.1895C3.57409 17.3957 3.60891 17.6948 3.81517 17.8582C4.49195 18.3913 5.23572 18.8359 6.02592 19.1788C6.26789 19.2832 6.54826 19.1725 6.65272 18.9306C6.75719 18.6895 6.64647 18.4091 6.40451 18.3047C5.68932 17.9939 5.01787 17.593 4.40536 17.11Z" fill="#696969"/>
<path d="M1.00098 13.1606C0.884012 13.2079 0.791153 13.3008 0.742049 13.4169C0.693833 13.5329 0.692942 13.6642 0.740263 13.7812C1.06617 14.5794 1.49474 15.3312 2.01439 16.0196C2.17243 16.2294 2.47154 16.2705 2.68137 16.1125C2.8912 15.9535 2.93228 15.6553 2.77423 15.4455C2.30458 14.8231 1.91707 14.1428 1.62241 13.4213C1.5742 13.3044 1.48223 13.2115 1.36616 13.1624C1.24919 13.1133 1.11796 13.1124 1.00098 13.1606Z" fill="#696969"/>
<path d="M0.0821453 8.71157C0.0276804 9.13748 0 9.56695 0 9.99642C0 10.4277 0.0276781 10.858 0.0821453 11.2857C0.113396 11.5232 0.315178 11.7009 0.554473 11.7009C0.57501 11.7009 0.594652 11.7 0.615187 11.6973C0.8759 11.6634 1.06073 11.425 1.0277 11.1643C0.927696 10.3902 0.927696 9.60712 1.0268 8.83305C1.05984 8.57234 0.875908 8.33394 0.615186 8.30091C0.354473 8.26698 0.116066 8.45085 0.0821453 8.71157Z" fill="#696969"/>
<path d="M2.00985 3.98674C1.49109 4.67514 1.06341 5.42784 0.737504 6.22518C0.688397 6.34215 0.688397 6.47428 0.736611 6.59216C0.785719 6.70912 0.878577 6.80288 0.996433 6.8502C1.11429 6.89841 1.24645 6.89752 1.36341 6.84752C1.48038 6.79752 1.57234 6.70377 1.61967 6.58502C1.91432 5.86359 2.30183 5.18232 2.77059 4.55909C2.92863 4.34927 2.88666 4.05104 2.67684 3.893C2.46701 3.73407 2.16788 3.77692 2.00985 3.98674Z" fill="#696969"/>
<path d="M4.40018 2.89345C5.01269 2.4104 5.68413 2.00861 6.39932 1.69788C6.6404 1.59342 6.75112 1.31305 6.64575 1.07108C6.54128 0.830005 6.26092 0.720175 6.01984 0.824656C5.22965 1.16752 4.48678 1.61217 3.81086 2.1461C3.60372 2.3086 3.56889 2.6086 3.7314 2.81486C3.89479 3.02111 4.19391 3.05684 4.40018 2.89345Z" fill="#696969"/>
<path d="M4.28308 9.85599C4.91434 9.95242 5.55186 10.0006 6.19027 10.0006C6.82957 10.0006 7.46707 9.95242 8.09835 9.85599C8.17245 9.8542 8.24121 9.8176 8.28317 9.75688C8.32513 9.69617 8.33406 9.61759 8.30638 9.54884L8.17424 9.21848C8.05192 8.91313 7.80102 8.67651 7.48851 8.57205L6.85458 8.36133C6.81529 8.34793 6.78672 8.31401 6.77958 8.27293C6.77333 8.23186 6.7894 8.19079 6.82244 8.16579C7.14119 7.88631 7.31888 7.48095 7.30995 7.05772C7.3653 6.38004 6.86797 5.78182 6.19029 5.71484C5.5135 5.78181 5.01528 6.38004 5.07153 7.05772C5.06171 7.48095 5.24028 7.88631 5.55814 8.16579C5.59118 8.19079 5.60815 8.23186 5.601 8.27293C5.59475 8.31401 5.56618 8.34793 5.52689 8.36133L4.89296 8.57294V8.57205C4.58045 8.67651 4.32957 8.91313 4.20724 9.21848L4.07509 9.54884C4.04741 9.61759 4.05545 9.69616 4.09741 9.75777C4.13938 9.81849 4.20897 9.85599 4.28308 9.85599Z" fill="#696969"/>
<path d="M13.4118 14.9294C13.2895 14.6241 13.0395 14.3874 12.727 14.283L12.0922 14.0723C12.0538 14.0589 12.0252 14.0249 12.018 13.9839C12.0118 13.9428 12.0279 13.9017 12.0609 13.8767C12.3788 13.5972 12.5573 13.1919 12.5475 12.7687C12.6038 12.091 12.1055 11.4928 11.4288 11.4258C10.752 11.4927 10.2537 12.091 10.31 12.7687C10.3002 13.1919 10.4787 13.5972 10.7966 13.8767C10.8296 13.9017 10.8457 13.9428 10.8395 13.9839C10.8323 14.0249 10.8038 14.0589 10.7654 14.0723L10.1314 14.2839L10.1305 14.283C9.81803 14.3874 9.56803 14.6241 9.4457 14.9294L9.31356 15.2598C9.28588 15.3285 9.29391 15.4071 9.33588 15.4687C9.37695 15.5294 9.4466 15.5669 9.5207 15.5669C10.7859 15.7598 12.0716 15.7598 13.3368 15.5669C13.41 15.5651 13.4787 15.5285 13.5216 15.4678C13.5636 15.4071 13.5725 15.3285 13.5439 15.2598L13.4118 14.9294Z" fill="#696969"/>
<path d="M11.8741 8.68044C12.4357 8.76615 13.0027 8.8099 13.5706 8.8099C14.1376 8.8099 14.7045 8.76615 15.2662 8.68044C15.3313 8.67954 15.393 8.64651 15.4305 8.59293C15.468 8.53847 15.476 8.46882 15.451 8.40811L15.3331 8.11435C15.2251 7.84291 15.0019 7.63219 14.7242 7.54023L14.1608 7.35273C14.1251 7.34023 14.1001 7.30987 14.0938 7.27326C14.0885 7.23755 14.1028 7.20094 14.1322 7.17862C14.4153 6.93041 14.5733 6.56967 14.5653 6.19378C14.6153 5.5911 14.1724 5.05984 13.5706 5C12.9688 5.05982 12.5259 5.59107 12.5759 6.19378C12.567 6.56967 12.7259 6.93041 13.0081 7.17862C13.0375 7.20094 13.0518 7.23755 13.0465 7.27326C13.0402 7.30987 13.0152 7.34023 12.9804 7.35273L12.417 7.54023H12.4161C12.1384 7.6322 11.9161 7.84291 11.8072 8.11435L11.6893 8.40811C11.6652 8.46882 11.6723 8.53847 11.7098 8.59383C11.7464 8.64829 11.8089 8.68044 11.8741 8.68044Z" fill="#696969"/>
</svg>
