<svg width="201" height="18" viewBox="0 0 201 18" fill="none" xmlns="http://www.w3.org/2000/svg">
<rect y="8.51562" width="80" height="0.970588" fill="#D9DFE5"/>
<path d="M100.512 8.63636C100.512 9.55682 100.346 10.3523 100.014 11.0227C99.6813 11.6932 99.2253 12.2102 98.6458 12.5739C98.0662 12.9375 97.4043 13.1193 96.66 13.1193C95.9157 13.1193 95.2537 12.9375 94.6742 12.5739C94.0946 12.2102 93.6387 11.6932 93.3063 11.0227C92.9739 10.3523 92.8077 9.55682 92.8077 8.63636C92.8077 7.71591 92.9739 6.92045 93.3063 6.25C93.6387 5.57955 94.0946 5.0625 94.6742 4.69886C95.2537 4.33523 95.9157 4.15341 96.66 4.15341C97.4043 4.15341 98.0662 4.33523 98.6458 4.69886C99.2253 5.0625 99.6813 5.57955 100.014 6.25C100.346 6.92045 100.512 7.71591 100.512 8.63636ZM99.4895 8.63636C99.4895 7.88068 99.3631 7.2429 99.1103 6.72301C98.8603 6.20312 98.5208 5.80966 98.0918 5.54261C97.6657 5.27557 97.1884 5.14205 96.66 5.14205C96.1316 5.14205 95.6529 5.27557 95.2239 5.54261C94.7978 5.80966 94.4583 6.20312 94.2054 6.72301C93.9554 7.2429 93.8304 7.88068 93.8304 8.63636C93.8304 9.39205 93.9554 10.0298 94.2054 10.5497C94.4583 11.0696 94.7978 11.4631 95.2239 11.7301C95.6529 11.9972 96.1316 12.1307 96.66 12.1307C97.1884 12.1307 97.6657 11.9972 98.0918 11.7301C98.5208 11.4631 98.8603 11.0696 99.1103 10.5497C99.3631 10.0298 99.4895 9.39205 99.4895 8.63636ZM102.289 13V4.27273H105.238C105.92 4.27273 106.48 4.3892 106.917 4.62216C107.355 4.85227 107.678 5.16903 107.889 5.57244C108.099 5.97585 108.204 6.43466 108.204 6.94886C108.204 7.46307 108.099 7.91903 107.889 8.31676C107.678 8.71449 107.356 9.02699 106.921 9.25426C106.487 9.47869 105.931 9.59091 105.255 9.59091H102.869V8.63636H105.221C105.687 8.63636 106.062 8.56818 106.346 8.43182C106.633 8.29545 106.84 8.10227 106.968 7.85227C107.099 7.59943 107.164 7.2983 107.164 6.94886C107.164 6.59943 107.099 6.29403 106.968 6.03267C106.838 5.77131 106.629 5.5696 106.342 5.42756C106.055 5.28267 105.676 5.21023 105.204 5.21023H103.346V13H102.289ZM106.397 9.07955L108.545 13H107.318L105.204 9.07955H106.397Z" fill="#222222"/>
<rect x="121" y="8.51562" width="80" height="0.970588" fill="#D9DFE5"/>
</svg>
