<svg width="22" height="15" viewBox="0 0 22 15" fill="none" xmlns="http://www.w3.org/2000/svg">
<path d="M2.41016 2.96484V2.95163H2.42337V2.96484H2.41016Z" stroke="#292929" stroke-width="2.64286" stroke-linecap="round" stroke-linejoin="round"/>
<path d="M2.41071 2.30357C2.58595 2.30357 2.754 2.37318 2.87791 2.49709C3.00182 2.621 3.07143 2.78905 3.07143 2.96429C3.07143 3.13952 3.00182 3.30757 2.87791 3.43148C2.754 3.55539 2.58595 3.625 2.41071 3.625C2.23548 3.625 2.06743 3.55539 1.94352 3.43148C1.81961 3.30757 1.75 3.13952 1.75 2.96429C1.75 2.78905 1.81961 2.621 1.94352 2.49709C2.06743 2.37318 2.23548 2.30357 2.41071 2.30357ZM10.9868 2.96429V2.95107H11V2.96429H10.9868Z" stroke="#292929" stroke-width="2.64286" stroke-linecap="round" stroke-linejoin="round"/>
<path d="M10.9888 2.30357C11.1641 2.30357 11.3321 2.37318 11.456 2.49709C11.5799 2.621 11.6496 2.78905 11.6496 2.96429C11.6496 3.13952 11.5799 3.30757 11.456 3.43148C11.3321 3.55539 11.1641 3.625 10.9888 3.625C10.8136 3.625 10.6456 3.55539 10.5216 3.43148C10.3977 3.30757 10.3281 3.13952 10.3281 2.96429C10.3281 2.78905 10.3977 2.621 10.5216 2.49709C10.6456 2.37318 10.8136 2.30357 10.9888 2.30357ZM19.5913 2.96429V2.95107H19.6046V2.96429H19.5913Z" stroke="#292929" stroke-width="2.64286" stroke-linecap="round" stroke-linejoin="round"/>
<path d="M19.5887 2.30413C19.764 2.30413 19.932 2.37374 20.0559 2.49765C20.1798 2.62156 20.2494 2.78961 20.2494 2.96484C20.2494 3.14008 20.1798 3.30813 20.0559 3.43204C19.932 3.55595 19.764 3.62556 19.5887 3.62556C19.4135 3.62556 19.2454 3.55595 19.1215 3.43204C18.9976 3.30813 18.928 3.14008 18.928 2.96484C18.928 2.78961 18.9976 2.62156 19.1215 2.49765C19.2454 2.37374 19.4135 2.30413 19.5887 2.30413ZM2.41016 12.2148V12.2016H2.42337V12.2148H2.41016Z" stroke="#292929" stroke-width="2.64286" stroke-linecap="round" stroke-linejoin="round"/>
<path d="M2.41071 11.5536C2.58595 11.5536 2.754 11.6232 2.87791 11.7471C3.00182 11.871 3.07143 12.0391 3.07143 12.2143C3.07143 12.3895 3.00182 12.5576 2.87791 12.6815C2.754 12.8054 2.58595 12.875 2.41071 12.875C2.23548 12.875 2.06743 12.8054 1.94352 12.6815C1.81961 12.5576 1.75 12.3895 1.75 12.2143C1.75 12.0391 1.81961 11.871 1.94352 11.7471C2.06743 11.6232 2.23548 11.5536 2.41071 11.5536ZM10.9868 12.2143V12.2011H11V12.2143H10.9868Z" stroke="#292929" stroke-width="2.64286" stroke-linecap="round" stroke-linejoin="round"/>
<path d="M10.9888 11.5536C11.1641 11.5536 11.3321 11.6232 11.456 11.7471C11.5799 11.871 11.6496 12.0391 11.6496 12.2143C11.6496 12.3895 11.5799 12.5576 11.456 12.6815C11.3321 12.8054 11.1641 12.875 10.9888 12.875C10.8136 12.875 10.6456 12.8054 10.5216 12.6815C10.3977 12.5576 10.3281 12.3895 10.3281 12.2143C10.3281 12.0391 10.3977 11.871 10.5216 11.7471C10.6456 11.6232 10.8136 11.5536 10.9888 11.5536ZM19.5913 12.2143V12.2011H19.6046V12.2143H19.5913Z" stroke="#292929" stroke-width="2.64286" stroke-linecap="round" stroke-linejoin="round"/>
<path d="M19.5904 11.5536C19.7656 11.5536 19.9337 11.6232 20.0576 11.7471C20.1815 11.871 20.2511 12.0391 20.2511 12.2143C20.2511 12.3895 20.1815 12.5576 20.0576 12.6815C19.9337 12.8054 19.7656 12.875 19.5904 12.875C19.4152 12.875 19.2471 12.8054 19.1232 12.6815C18.9993 12.5576 18.9297 12.3895 18.9297 12.2143C18.9297 12.0391 18.9993 11.871 19.1232 11.7471C19.2471 11.6232 19.4152 11.5536 19.5904 11.5536Z" stroke="#292929" stroke-width="2.64286" stroke-linecap="round" stroke-linejoin="round"/>
</svg>
