<svg width="9" height="14" viewBox="0 0 9 14" fill="none" xmlns="http://www.w3.org/2000/svg">
<path d="M7.20898 1.27344H7.21747V1.28192H7.20898V1.27344Z" stroke="#696969" stroke-width="1.69641" stroke-linecap="round" stroke-linejoin="round"/>
<path d="M7.63336 1.27176C7.63336 1.38424 7.58868 1.49211 7.50915 1.57165C7.42961 1.65118 7.32174 1.69586 7.20926 1.69586C7.09678 1.69586 6.98891 1.65118 6.90937 1.57165C6.82984 1.49211 6.78516 1.38424 6.78516 1.27176C6.78516 1.15928 6.82984 1.05141 6.90937 0.971873C6.98891 0.892338 7.09678 0.847656 7.20926 0.847656C7.32174 0.847656 7.42961 0.892338 7.50915 0.971873C7.58868 1.05141 7.63336 1.15928 7.63336 1.27176ZM7.20926 6.77661H7.21774V6.7851H7.20926V6.77661Z" stroke="#696969" stroke-width="1.69641" stroke-linecap="round" stroke-linejoin="round"/>
<path d="M7.63336 6.77957C7.63336 6.89205 7.58868 6.99992 7.50915 7.07946C7.42961 7.15899 7.32174 7.20367 7.20926 7.20367C7.09678 7.20367 6.98891 7.15899 6.90937 7.07946C6.82984 6.99992 6.78516 6.89205 6.78516 6.77957C6.78516 6.66709 6.82984 6.55922 6.90937 6.47969C6.98891 6.40015 7.09678 6.35547 7.20926 6.35547C7.32174 6.35547 7.42961 6.40015 7.50915 6.47969C7.58868 6.55922 7.63336 6.66709 7.63336 6.77957ZM7.20926 12.3014H7.21774V12.3099H7.20926V12.3014Z" stroke="#696969" stroke-width="1.69641" stroke-linecap="round" stroke-linejoin="round"/>
<path d="M7.63303 12.3001C7.63303 12.4126 7.58834 12.5205 7.50881 12.6C7.42927 12.6795 7.3214 12.7242 7.20892 12.7242C7.09644 12.7242 6.98857 12.6795 6.90904 12.6C6.8295 12.5205 6.78482 12.4126 6.78482 12.3001C6.78482 12.1876 6.8295 12.0798 6.90904 12.0002C6.98857 11.9207 7.09644 11.876 7.20892 11.876C7.3214 11.876 7.42927 11.9207 7.50881 12.0002C7.58834 12.0798 7.63303 12.1876 7.63303 12.3001ZM1.27148 1.27344H1.27997V1.28192H1.27148V1.27344Z" stroke="#696969" stroke-width="1.69641" stroke-linecap="round" stroke-linejoin="round"/>
<path d="M1.69586 1.27176C1.69586 1.38424 1.65118 1.49211 1.57165 1.57165C1.49211 1.65118 1.38424 1.69586 1.27176 1.69586C1.15928 1.69586 1.05141 1.65118 0.971873 1.57165C0.892338 1.49211 0.847656 1.38424 0.847656 1.27176C0.847656 1.15928 0.892338 1.05141 0.971873 0.971873C1.05141 0.892338 1.15928 0.847656 1.27176 0.847656C1.38424 0.847656 1.49211 0.892338 1.57165 0.971873C1.65118 1.05141 1.69586 1.15928 1.69586 1.27176ZM1.27176 6.77661H1.28024V6.7851H1.27176V6.77661Z" stroke="#696969" stroke-width="1.69641" stroke-linecap="round" stroke-linejoin="round"/>
<path d="M1.69586 6.77957C1.69586 6.89205 1.65118 6.99992 1.57165 7.07946C1.49211 7.15899 1.38424 7.20367 1.27176 7.20367C1.15928 7.20367 1.05141 7.15899 0.971873 7.07946C0.892338 6.99992 0.847656 6.89205 0.847656 6.77957C0.847656 6.66709 0.892338 6.55922 0.971873 6.47969C1.05141 6.40015 1.15928 6.35547 1.27176 6.35547C1.38424 6.35547 1.49211 6.40015 1.57165 6.47969C1.65118 6.55922 1.69586 6.66709 1.69586 6.77957ZM1.27176 12.3014H1.28024V12.3099H1.27176V12.3014Z" stroke="#696969" stroke-width="1.69641" stroke-linecap="round" stroke-linejoin="round"/>
<path d="M1.69586 12.2991C1.69586 12.4116 1.65118 12.5195 1.57165 12.599C1.49211 12.6785 1.38424 12.7232 1.27176 12.7232C1.15928 12.7232 1.05141 12.6785 0.971873 12.599C0.892338 12.5195 0.847656 12.4116 0.847656 12.2991C0.847656 12.1866 0.892338 12.0788 0.971873 11.9992C1.05141 11.9197 1.15928 11.875 1.27176 11.875C1.38424 11.875 1.49211 11.9197 1.57165 11.9992C1.65118 12.0788 1.69586 12.1866 1.69586 12.2991Z" stroke="#696969" stroke-width="1.69641" stroke-linecap="round" stroke-linejoin="round"/>
</svg>
