<svg width="15" height="19" viewBox="0 0 15 19" fill="none" xmlns="http://www.w3.org/2000/svg">
<path d="M5.16667 0.734375C4.54783 0.734375 3.95434 0.971428 3.51675 1.39338C3.07917 1.81534 2.83333 2.38764 2.83333 2.98438V14.2344C2.83333 14.8311 3.07917 15.4034 3.51675 15.8254C3.95434 16.2473 4.54783 16.4844 5.16667 16.4844H12.1667C12.7855 16.4844 13.379 16.2473 13.8166 15.8254C14.2542 15.4034 14.5 14.8311 14.5 14.2344V2.98438C14.5 2.38764 14.2542 1.81534 13.8166 1.39338C13.379 0.971428 12.7855 0.734375 12.1667 0.734375H5.16667ZM4 2.98438C4 2.68601 4.12292 2.39986 4.34171 2.18888C4.5605 1.9779 4.85725 1.85938 5.16667 1.85938H12.1667C12.4761 1.85938 12.7728 1.9779 12.9916 2.18888C13.2104 2.39986 13.3333 2.68601 13.3333 2.98438V14.2344C13.3333 14.5327 13.2104 14.8189 12.9916 15.0299C12.7728 15.2408 12.4761 15.3594 12.1667 15.3594H5.16667C4.85725 15.3594 4.5605 15.2408 4.34171 15.0299C4.12292 14.8189 4 14.5327 4 14.2344V2.98438ZM0.5 5.23438C0.50001 4.83943 0.60783 4.45144 0.812622 4.10941C1.01741 3.76737 1.31196 3.48335 1.66667 3.28588V14.7969C1.66667 15.5428 1.97396 16.2582 2.52094 16.7856C3.06792 17.3131 3.80979 17.6094 4.58333 17.6094H11.854C11.6492 17.9514 11.3547 18.2354 11 18.4329C10.6453 18.6304 10.2429 18.7344 9.83333 18.7344H4.58333C3.50037 18.7344 2.46175 18.3195 1.69598 17.5811C0.930207 16.8427 0.5 15.8412 0.5 14.7969V5.23438Z" fill="#696969"/>
</svg>
