<svg width="16" height="17" viewBox="0 0 16 17" fill="none" xmlns="http://www.w3.org/2000/svg">
<path d="M1 16H15M2.45775 9.48929C2.08466 9.8454 1.87509 10.3279 1.875 10.8309V13.5H4.69512C5.22362 13.5 5.73025 13.3001 6.10388 12.9434L14.4164 5.02271C14.7893 4.66654 14.9988 4.18407 14.9988 3.68106C14.9988 3.17806 14.7893 2.69558 14.4164 2.33942L13.5956 1.5561C13.4105 1.37973 13.1907 1.23984 12.9488 1.14442C12.7069 1.049 12.4477 0.999923 12.1858 1C11.924 1.00008 11.6647 1.04931 11.4229 1.14487C11.181 1.24043 10.9614 1.38046 10.7764 1.55694L2.45775 9.48929Z" stroke="#696969" stroke-width="1.25" stroke-linecap="round" stroke-linejoin="round"/>
</svg>
