<svg width="21" height="21" viewBox="0 0 21 21" fill="none" xmlns="http://www.w3.org/2000/svg">
<path d="M13.2857 9.42857C13.6267 9.42857 13.9537 9.29311 14.1949 9.05199C14.436 8.81088 14.5714 8.48385 14.5714 8.14286C14.5714 7.80186 14.436 7.47484 14.1949 7.23372C13.9537 6.9926 13.6267 6.85714 13.2857 6.85714C12.9447 6.85714 12.6177 6.9926 12.3766 7.23372C12.1355 7.47484 12 7.80186 12 8.14286C12 8.48385 12.1355 8.81088 12.3766 9.05199C12.6177 9.29311 12.9447 9.42857 13.2857 9.42857ZM8.57143 8.14286C8.57143 8.48385 8.43597 8.81088 8.19485 9.05199C7.95373 9.29311 7.62671 9.42857 7.28571 9.42857C6.94472 9.42857 6.6177 9.29311 6.37658 9.05199C6.13546 8.81088 6 8.48385 6 8.14286C6 7.80186 6.13546 7.47484 6.37658 7.23372C6.6177 6.9926 6.94472 6.85714 7.28571 6.85714C7.62671 6.85714 7.95373 6.9926 8.19485 7.23372C8.43597 7.47484 8.57143 7.80186 8.57143 8.14286ZM5.424 12.9686C5.5645 12.8729 5.73716 12.8368 5.90421 12.8681C6.07127 12.8995 6.21912 12.9957 6.31543 13.1357L6.32314 13.146L6.36086 13.1966C6.39686 13.2429 6.45514 13.3131 6.53486 13.4006C6.69514 13.5746 6.93943 13.812 7.27029 14.0494C7.92857 14.5234 8.92457 15 10.2857 15C11.6469 15 12.6429 14.5234 13.3011 14.0494C13.632 13.812 13.8771 13.5746 14.0366 13.4006C14.1115 13.3192 14.1824 13.2342 14.2491 13.146L14.2551 13.1374C14.3512 12.9965 14.4993 12.8995 14.6669 12.8677C14.8344 12.836 15.0078 12.8721 15.1487 12.9681C15.2897 13.0642 15.3867 13.2123 15.4184 13.3799C15.4502 13.5474 15.414 13.7208 15.318 13.8617L15.3163 13.8626V13.8643L15.3137 13.8669L15.3077 13.8754L15.2889 13.902L15.2237 13.9877C15.1471 14.0846 15.0671 14.1786 14.9837 14.2697C14.7025 14.5755 14.3902 14.8513 14.052 15.0926C13.2206 15.6917 11.9674 16.2857 10.2857 16.2857C8.604 16.2857 7.35086 15.6909 6.51943 15.0934C6.18082 14.8516 5.86828 14.5753 5.58686 14.2689C5.47303 14.1434 5.36547 14.0124 5.26457 13.8763L5.25771 13.8677L5.256 13.8643L5.25514 13.8626L5.25429 13.8617C5.15836 13.7208 5.12234 13.5475 5.15417 13.38C5.186 13.2125 5.28306 13.0645 5.424 12.9686ZM10.2857 0C4.60543 0 0 4.60543 0 10.2857C0 15.966 4.60543 20.5714 10.2857 20.5714C15.966 20.5714 20.5714 15.966 20.5714 10.2857C20.5714 4.60543 15.966 0 10.2857 0ZM1.28571 10.2857C1.28571 5.31514 5.31514 1.28571 10.2857 1.28571C15.2563 1.28571 19.2857 5.31514 19.2857 10.2857C19.2857 15.2563 15.2563 19.2857 10.2857 19.2857C5.31514 19.2857 1.28571 15.2563 1.28571 10.2857Z" fill="#696969"/>
</svg>
