<svg width="17" height="12" viewBox="0 0 17 12" fill="none" xmlns="http://www.w3.org/2000/svg">
<path d="M8.43341 10.7656C12.6677 10.7656 16.1001 5.76562 16.1001 5.76562C16.1001 5.76562 12.6677 0.765625 8.43341 0.765625C4.1991 0.765625 0.766724 5.76562 0.766724 5.76562C0.766724 5.76562 4.1991 10.7656 8.43341 10.7656Z" stroke="#696969" stroke-width="1.53334" stroke-linejoin="round"/>
<path d="M8.4334 7.85417C8.94173 7.85417 9.42924 7.63467 9.78869 7.24397C10.1481 6.85327 10.3501 6.32337 10.3501 5.77083C10.3501 5.2183 10.1481 4.68839 9.78869 4.29769C9.42924 3.90699 8.94173 3.6875 8.4334 3.6875C7.92506 3.6875 7.43755 3.90699 7.0781 4.29769C6.71866 4.68839 6.51672 5.2183 6.51672 5.77083C6.51672 6.32337 6.71866 6.85327 7.0781 7.24397C7.43755 7.63467 7.92506 7.85417 8.4334 7.85417Z" stroke="#696969" stroke-width="1.53334" stroke-linejoin="round"/>
</svg>
