<svg width="18" height="16" viewBox="0 0 18 16" fill="none" xmlns="http://www.w3.org/2000/svg">
<path d="M11.1069 2.46154H15.6952C16.0155 2.4615 16.3322 2.53276 16.6252 2.67076C16.9182 2.80876 17.1811 3.01048 17.3971 3.26304C17.613 3.51561 17.7774 3.81348 17.8795 4.13765C17.9817 4.46183 18.0195 4.80519 17.9905 5.14585L17.2565 13.7612C17.2045 14.3728 16.9403 14.9415 16.5159 15.3558C16.0914 15.77 15.5373 15.9998 14.9624 16H3.03749C2.46255 15.9998 1.90846 15.77 1.48399 15.3558C1.05953 14.9415 0.795346 14.3728 0.743314 13.7612L0.00931578 5.14585C-0.0388065 4.57582 0.100542 4.0057 0.403393 3.53354L0.358455 2.46154C0.358455 1.8087 0.601254 1.1826 1.03344 0.720968C1.46563 0.25934 2.0518 0 2.663 0H6.89415C7.5053 0.000139415 8.09138 0.259571 8.52346 0.721231L9.47755 1.74031C9.90963 2.20197 10.4957 2.4614 11.1069 2.46154ZM1.51764 2.60923C1.765 2.51159 2.02771 2.46236 2.3058 2.46154H8.52346L7.70881 1.59138C7.49276 1.36055 7.19973 1.23084 6.89415 1.23077H2.663C2.36116 1.23071 2.07134 1.35717 1.85586 1.58295C1.64039 1.80873 1.51646 2.1158 1.51073 2.43815L1.51764 2.60923Z" fill="#FE5102"/>
</svg>
