<svg width="18" height="16" viewBox="0 0 18 16" fill="none" xmlns="http://www.w3.org/2000/svg">
<path d="M0.403419 3.53231L0.357325 2.46154C0.357325 1.8087 0.600141 1.1826 1.03235 0.720968C1.46457 0.25934 2.05078 0 2.66202 0H6.89344C7.50463 0.000139415 8.09074 0.259571 8.52286 0.721231L9.477 1.74031C9.90911 2.20197 10.4952 2.4614 11.1064 2.46154H15.6951C16.0153 2.4615 16.3321 2.53276 16.6251 2.67076C16.9182 2.80876 17.1811 3.01048 17.397 3.26304C17.613 3.51561 17.7773 3.81348 17.8795 4.13765C17.9817 4.46183 18.0195 4.80519 17.9905 5.14585L17.2565 13.7612C17.2045 14.3728 16.9403 14.9415 16.5158 15.3558C16.0913 15.77 15.5372 15.9998 14.9622 16H3.03768C2.46271 15.9998 1.90858 15.77 1.48409 15.3558C1.05959 14.9415 0.795397 14.3728 0.743362 13.7612L0.00931637 5.14585C-0.038809 4.57582 0.100548 4.0057 0.403419 3.53354V3.53231ZM2.30479 3.69231C2.14471 3.6923 1.98639 3.72791 1.83991 3.79687C1.69344 3.86584 1.56202 3.96664 1.45404 4.09285C1.34606 4.21907 1.26388 4.36792 1.21275 4.52994C1.16161 4.69195 1.14265 4.86357 1.15705 5.03385L1.8911 13.6492C1.91697 13.955 2.04893 14.2395 2.26107 14.4467C2.47321 14.6539 2.7502 14.7689 3.03768 14.7692H14.9622C15.2497 14.7689 15.5267 14.6539 15.7388 14.4467C15.9509 14.2395 16.0829 13.955 16.1088 13.6492L16.8428 5.03385C16.8572 4.86357 16.8382 4.69195 16.7871 4.52994C16.736 4.36792 16.6538 4.21907 16.5458 4.09285C16.4378 3.96664 16.3064 3.86584 16.1599 3.79687C16.0135 3.72791 15.8551 3.6923 15.6951 3.69231H2.30479ZM7.7093 1.59138C7.60218 1.47694 7.47499 1.38619 7.33499 1.32431C7.195 1.26243 7.04495 1.23064 6.89344 1.23077H2.66202C2.36015 1.23071 2.07032 1.35717 1.85483 1.58295C1.63934 1.80873 1.51541 2.1158 1.50967 2.43815L1.51659 2.60923C1.76473 2.51159 2.02746 2.46236 2.30479 2.46154H8.52286L7.7093 1.59138Z" fill="#696969"/>
</svg>
