<svg width="18" height="18" viewBox="0 0 18 18" fill="none" xmlns="http://www.w3.org/2000/svg">
<path d="M15.3943 2.46648C14.1369 1.29233 12.5325 0.491143 10.7842 0.164429C9.03596 -0.162286 7.22258 0.000183622 5.57387 0.631249C3.92516 1.26231 2.51534 2.33357 1.52305 3.70926C0.530773 5.08496 0.000697596 6.70317 0 8.35884V12.858C0 13.3694 0.218817 13.8599 0.608314 14.2215C0.997812 14.5831 1.52608 14.7863 2.07692 14.7863H3.46153C4.01236 14.7863 4.54063 14.5831 4.93013 14.2215C5.31962 13.8599 5.53844 13.3694 5.53844 12.858V9.64432C5.53844 9.13292 5.31962 8.64247 4.93013 8.28086C4.54063 7.91924 4.01236 7.71609 3.46153 7.71609H1.41576C1.54928 6.37592 2.09148 5.09884 2.97884 4.03454C3.86619 2.97023 5.06192 2.16281 6.42589 1.70689C7.78985 1.25097 9.26554 1.16545 10.68 1.46035C12.0944 1.75525 13.389 2.41835 14.4121 3.37194C15.6624 4.53881 16.4315 6.07636 16.585 7.71609H14.5384C13.9876 7.71609 13.4593 7.91924 13.0698 8.28086C12.6803 8.64247 12.4615 9.13292 12.4615 9.64432V12.858C12.4615 13.3694 12.6803 13.8599 13.0698 14.2215C13.4593 14.5831 13.9876 14.7863 14.5384 14.7863H16.6153C16.6153 15.2977 16.3965 15.7881 16.007 16.1497C15.6175 16.5114 15.0892 16.7145 14.5384 16.7145H9.69227C9.50866 16.7145 9.33257 16.7822 9.20274 16.9028C9.0729 17.0233 8.99997 17.1868 8.99997 17.3573C8.99997 17.5277 9.0729 17.6912 9.20274 17.8117C9.33257 17.9323 9.50866 18 9.69227 18H14.5384C15.4565 18 16.3369 17.6614 16.9861 17.0587C17.6352 16.456 17.9999 15.6386 17.9999 14.7863V8.35884C18.0045 7.26582 17.7767 6.18272 17.3295 5.17159C16.8824 4.16047 16.2248 3.2412 15.3943 2.46648ZM3.46153 9.00158C3.64514 9.00158 3.82123 9.0693 3.95106 9.18983C4.08089 9.31037 4.15383 9.47386 4.15383 9.64432V12.858C4.15383 13.0285 4.08089 13.192 3.95106 13.3125C3.82123 13.4331 3.64514 13.5008 3.46153 13.5008H2.07692C1.8933 13.5008 1.71721 13.4331 1.58738 13.3125C1.45755 13.192 1.38461 13.0285 1.38461 12.858V9.00158H3.46153ZM14.5384 13.5008C14.3548 13.5008 14.1787 13.4331 14.0489 13.3125C13.919 13.192 13.8461 13.0285 13.8461 12.858V9.64432C13.8461 9.47386 13.919 9.31037 14.0489 9.18983C14.1787 9.0693 14.3548 9.00158 14.5384 9.00158H16.6153V13.5008H14.5384Z" fill="#696969"/>
</svg>
