<svg width="19" height="12" viewBox="0 0 19 12" fill="none" xmlns="http://www.w3.org/2000/svg">
<path d="M9.5 3.56934C10.5865 3.56934 11.6293 3.97516 12.3984 4.69824C13.1675 5.4214 13.6006 6.40276 13.6006 7.42676C13.6006 8.45076 13.1675 9.43213 12.3984 10.1553C11.6293 10.8784 10.5865 11.2842 9.5 11.2842C8.41351 11.2842 7.37071 10.8784 6.60156 10.1553C5.83249 9.43213 5.39944 8.45077 5.39941 7.42676C5.39941 6.40275 5.83252 5.4214 6.60156 4.69824C7.37071 3.97515 8.41351 3.56934 9.5 3.56934ZM9.5 4.72656C8.7365 4.72656 8.00481 5.01184 7.46582 5.51855C6.92693 6.02518 6.625 6.7117 6.625 7.42676C6.62502 8.14178 6.92695 8.82836 7.46582 9.33496C8.00481 9.84163 8.73654 10.127 9.5 10.127C10.2635 10.1269 10.9952 9.84164 11.5342 9.33496C12.0731 8.82836 12.375 8.14178 12.375 7.42676C12.375 6.71171 12.0731 6.02517 11.5342 5.51855C10.9952 5.01184 10.2635 4.72657 9.5 4.72656ZM9.5 0.18457C12.8575 0.184721 15.1035 1.79124 16.5137 3.41016C17.9215 5.02651 18.4985 6.65654 18.5205 6.71875V6.7207C18.625 7.02938 18.4398 7.35302 18.123 7.44922C17.9692 7.49524 17.802 7.48183 17.6582 7.41211C17.5146 7.34238 17.4055 7.22158 17.3555 7.0752C17.316 6.95962 16.8103 5.52422 15.585 4.11914C14.3605 2.71521 12.4182 1.3418 9.5 1.3418C6.58176 1.3418 4.63944 2.7152 3.41504 4.11914C2.19146 5.52228 1.68601 6.95525 1.64551 7.07422C1.54162 7.38117 1.19745 7.54509 0.876953 7.44922C0.555192 7.35289 0.375178 7.02892 0.479492 6.7207L0.482422 6.71289H0.483398C0.530166 6.58119 1.11138 4.9889 2.48633 3.41016C3.89643 1.79111 6.14287 0.18457 9.5 0.18457Z" fill="#0ECEE4" stroke="#0ECEE4" stroke-width="0.1"/>
</svg>
