<svg width="19" height="19" viewBox="0 0 19 19" fill="none" xmlns="http://www.w3.org/2000/svg">
<path d="M11.2183 0.511719H7.78143C6.61674 0.511719 5.70828 0.511719 4.98088 0.571012C4.24183 0.631364 3.64149 0.756304 3.10149 1.03054C2.20473 1.48738 1.47566 2.21645 1.01882 3.11321C0.743526 3.6532 0.619645 4.25355 0.559293 4.9926C0.5 5.72106 0.5 6.6274 0.5 7.79315V11.23C0.5 12.2317 0.5 13.0427 0.538117 13.7129C0.540941 13.7814 0.545176 13.852 0.550823 13.9247L0.553999 13.9575C0.591058 14.4509 0.654586 14.8829 0.769996 15.2768C0.834231 15.4985 0.917171 15.7095 1.01882 15.91C1.47566 16.8067 2.20473 17.5358 3.10149 17.9927C3.64149 18.2679 4.24183 18.3918 4.98088 18.4522C5.70828 18.5115 6.61568 18.5115 7.78143 18.5115H11.2183C12.383 18.5115 13.2915 18.5115 14.0189 18.4522C14.7579 18.3918 15.3583 18.2669 15.8983 17.9927C16.795 17.5358 17.5241 16.8067 17.9809 15.91C18.5061 14.8776 18.5029 13.6304 18.4998 12.4784L18.4987 12.1163L18.4998 11.23V7.79315C18.4998 6.62846 18.4998 5.72 18.4405 4.9926C18.3801 4.25355 18.2552 3.6532 17.9809 3.11321C17.5241 2.21645 16.795 1.48738 15.8983 1.03054C15.3583 0.755245 14.7579 0.631364 14.0189 0.571012C13.2915 0.511719 12.3841 0.511719 11.2183 0.511719ZM1.61493 13.9438L1.60857 13.8697C1.56516 13.2047 2.24703 12.5461 2.75103 12.0601C2.8322 11.9825 2.90703 11.9094 2.9755 11.841C3.24231 11.572 3.42337 11.4503 3.58537 11.392C3.9375 11.2633 4.32381 11.2633 4.67594 11.392C4.83688 11.4503 5.01794 11.572 5.28476 11.841C5.55475 12.1131 5.87346 12.4943 6.32663 13.0374C6.45318 13.1896 6.61041 13.3135 6.78805 13.4008C6.96569 13.4882 7.15976 13.5371 7.35758 13.5444C7.5554 13.5517 7.75254 13.5172 7.93613 13.4432C8.11972 13.3691 8.28564 13.2572 8.42307 13.1147L11.6027 9.82077C11.6948 9.72547 11.7911 9.61748 11.8907 9.5063C12.256 9.0976 12.6721 8.63172 13.1581 8.46973C13.4835 8.36145 13.8353 8.36145 14.1608 8.46973C14.9792 8.7429 15.7479 9.66512 16.416 10.4666C16.6638 10.7631 16.8967 11.0437 17.1148 11.2682C17.3806 11.5445 17.4409 11.7033 17.4399 12.076C17.4367 12.9972 17.4187 13.6717 17.3605 14.1989C17.3001 14.7336 17.1985 15.1116 17.0375 15.4293C16.6822 16.1268 16.1151 16.6939 15.4176 17.0493C15.0512 17.2356 14.6065 17.3415 13.9331 17.3965C13.2534 17.4527 12.3883 17.4527 11.194 17.4527H7.80578C6.61144 17.4527 5.7464 17.4527 5.0677 17.3965C4.39324 17.3415 3.94854 17.2356 3.58219 17.0493C2.83784 16.6692 2.24381 16.0487 1.89657 15.2885C1.75045 14.9486 1.66363 14.5335 1.61493 13.9438ZM17.4409 10.0834L16.4615 9.06901C16.1303 8.71434 15.7855 8.37245 15.4281 8.04409C15.1285 7.7815 14.8373 7.57927 14.4953 7.46598C13.9527 7.28536 13.3661 7.28536 12.8235 7.46598C12.4815 7.57927 12.1903 7.7815 11.8917 8.04409C11.6006 8.2982 11.2691 8.64231 10.8573 9.06901L7.66072 12.3788C7.62663 12.4143 7.58542 12.4422 7.5398 12.4607C7.49418 12.4791 7.44517 12.4877 7.39599 12.4859C7.34681 12.4841 7.29857 12.472 7.25441 12.4502C7.21026 12.4285 7.1712 12.3977 7.13979 12.3598L7.12391 12.3407C6.6898 11.8209 6.34251 11.4037 6.03651 11.0945C5.7231 10.779 5.41181 10.5333 5.03911 10.3968C4.45213 10.1821 3.80813 10.1821 3.22114 10.3968C2.84844 10.5344 2.53821 10.7779 2.22374 11.0956C1.9925 11.3338 1.77068 11.5811 1.55881 11.8367V7.8175C1.55881 6.62316 1.55881 5.75812 1.61493 5.07942C1.66998 4.40496 1.77586 3.96026 1.96222 3.59391C2.31755 2.89637 2.88465 2.32927 3.58219 1.97393C3.94854 1.78758 4.39324 1.6817 5.0677 1.62664C5.7464 1.57053 6.61144 1.57053 7.80578 1.57053H11.194C12.3883 1.57053 13.2534 1.57053 13.9321 1.62664C14.6065 1.6817 15.0512 1.78758 15.4176 1.97393C16.1151 2.32927 16.6822 2.89637 17.0375 3.59391C17.2239 3.96026 17.3298 4.40496 17.3848 5.07942C17.4409 5.75812 17.4409 6.62316 17.4409 7.8175V10.0834Z" fill="#696969" fill-opacity="0.55"/>
</svg>
