<svg width="21" height="21" viewBox="0 0 21 21" fill="none" xmlns="http://www.w3.org/2000/svg">
  <path d="M10.1973 0.654785C12.9129 0.654785 13.2539 0.666297 14.3203 0.714355C15.9452 0.788111 17.3728 1.18438 18.5186 2.32373C19.6644 3.46332 20.0635 4.88337 20.1377 6.49951C20.186 7.56025 20.1973 7.89933 20.1973 10.6001C20.1973 13.3007 20.186 13.6402 20.1377 14.7007C20.0635 16.3168 19.6644 17.7369 18.5186 18.8765C17.3727 20.016 15.9453 20.4121 14.3203 20.4858C13.2539 20.5339 12.9129 20.5454 10.1973 20.5454C7.48167 20.5454 7.14067 20.5339 6.07422 20.4858C4.44928 20.4121 3.02179 20.016 1.87598 18.8765C0.730143 17.7369 0.331003 16.3168 0.256836 14.7007C0.208521 13.6402 0.197266 13.3007 0.197266 10.6001C0.197266 7.89933 0.208508 7.56025 0.256836 6.49951C0.331003 4.88337 0.730143 3.46332 1.87598 2.32373C3.02176 1.18438 4.44937 0.788111 6.07422 0.714355C7.14066 0.666297 7.48168 0.654785 10.1973 0.654785ZM10.1963 2.44678C7.52637 2.44678 7.20943 2.45633 6.15527 2.50439C5.01704 2.5558 3.96088 2.7833 3.14844 3.59131C2.33613 4.39933 2.10831 5.44954 2.05664 6.58154C2.00831 7.62992 1.99805 7.94495 1.99805 10.6001C1.99805 13.2555 2.00831 13.5712 2.05664 14.6196C2.10834 15.7516 2.33607 16.8019 3.14844 17.6099C3.96087 18.4179 5.01705 18.6444 6.15527 18.6958C7.20943 18.7439 7.52637 18.7544 10.1963 18.7544C12.8663 18.7544 13.1831 18.7439 14.2373 18.6958C15.3756 18.6444 16.4317 18.4179 17.2441 17.6099C18.0565 16.8019 18.2842 15.7516 18.3359 14.6196C18.3843 13.5712 18.3945 13.2555 18.3945 10.6001C18.3945 7.94495 18.3843 7.62992 18.3359 6.58154C18.2843 5.4495 18.0565 4.39934 17.2441 3.59131C16.4317 2.78325 15.3756 2.55579 14.2373 2.50439C13.1831 2.45632 12.8663 2.44678 10.1963 2.44678ZM10.1953 5.49268C13.0311 5.49268 15.3301 7.77972 15.3301 10.6001C15.3299 13.4203 13.031 15.7065 10.1953 15.7065C7.35973 15.7064 5.06077 13.4202 5.06055 10.6001C5.06055 7.7798 7.35959 5.4928 10.1953 5.49268ZM10.1943 7.28467C8.35365 7.28484 6.86133 8.76941 6.86133 10.6001C6.86147 12.4307 8.35374 13.9144 10.1943 13.9146C12.0351 13.9146 13.5282 12.4308 13.5283 10.6001C13.5283 8.7693 12.0352 7.28467 10.1943 7.28467ZM15.5342 4.09814C16.1968 4.09825 16.7343 4.63249 16.7344 5.2915C16.7344 5.95057 16.1968 6.48476 15.5342 6.48486C14.8714 6.48486 14.334 5.95063 14.334 5.2915C14.334 4.63242 14.8715 4.09814 15.5342 4.09814Z" fill="currentColor"/>
</svg>