<svg width="15" height="19" viewBox="0 0 15 19" fill="none" xmlns="http://www.w3.org/2000/svg">
<path d="M10 3.3058C10 4.50087 10.8 5.49795 11.875 5.78595V8.44866C11.875 9.51195 11.0338 10.3772 10 10.3772H5C4.29375 10.3772 3.64875 10.6286 3.125 11.0368V5.78595C4.2 5.49859 5 4.50023 5 3.3058C5 1.88766 3.87875 0.734375 2.5 0.734375C1.12125 0.734375 0 1.88766 0 3.3058C0 4.50087 0.8 5.49795 1.875 5.78595V13.6828C0.8 13.9702 0 14.9685 0 16.1629C0 17.5811 1.12125 18.7344 2.5 18.7344C3.87875 18.7344 5 17.5811 5 16.1629C5 14.9685 4.2 13.9708 3.125 13.6828V13.5915C3.125 12.5282 3.96625 11.6629 5 11.6629H10C11.7231 11.6629 13.125 10.221 13.125 8.44866V5.78595C14.2 5.49859 15 4.50023 15 3.3058C15 1.88766 13.8787 0.734375 12.5 0.734375C11.1213 0.734375 10 1.88766 10 3.3058ZM1.25 3.3058C1.25 2.59737 1.81062 2.02009 2.5 2.02009C3.18937 2.02009 3.75 2.59737 3.75 3.3058C3.75 4.01487 3.18937 4.59152 2.5 4.59152C1.81062 4.59152 1.25 4.01487 1.25 3.3058ZM3.75 16.1629C3.75 16.872 3.18937 17.4487 2.5 17.4487C1.81062 17.4487 1.25 16.872 1.25 16.1629C1.25 15.4539 1.81062 14.8772 2.5 14.8772C3.18937 14.8772 3.75 15.4539 3.75 16.1629ZM13.75 3.3058C13.75 4.01487 13.1894 4.59152 12.5 4.59152C11.8106 4.59152 11.25 4.01487 11.25 3.3058C11.25 2.59673 11.8112 2.02009 12.5 2.02009C13.1888 2.02009 13.75 2.59737 13.75 3.3058Z" fill="#B148F3"/>
</svg>
