<svg width="18" height="16" viewBox="0 0 18 16" fill="none" xmlns="http://www.w3.org/2000/svg">
<path d="M10.6667 4.66683V3.00016C10.6667 2.55814 10.4911 2.13421 10.1785 1.82165C9.86595 1.50909 9.44203 1.3335 9 1.3335H3.16667C2.72464 1.3335 2.30072 1.50909 1.98816 1.82165C1.67559 2.13421 1.5 2.55814 1.5 3.00016V13.0002C1.5 13.4422 1.67559 13.8661 1.98816 14.1787C2.30072 14.4912 2.72464 14.6668 3.16667 14.6668H9C9.44203 14.6668 9.86595 14.4912 10.1785 14.1787C10.4911 13.8661 10.6667 13.4422 10.6667 13.0002V11.3335M4.83333 8.00016H16.5M16.5 8.00016L14 5.50016M16.5 8.00016L14 10.5002" stroke="#D00808" stroke-width="1.5" stroke-linecap="round" stroke-linejoin="round"/>
</svg>
