<svg width="36" height="28" viewBox="0 0 36 28" fill="none" xmlns="http://www.w3.org/2000/svg">
<path d="M3.30214 16.1384C4.47591 16.1385 5.43598 17.0992 5.43598 18.2732V21.1618C5.43595 21.9853 4.96296 22.704 4.27471 23.0598V26.2706C4.27471 27.1262 3.57359 27.8273 2.71799 27.8273C1.86254 27.8271 1.16328 27.1261 1.16328 26.2706V23.0618C0.474984 22.706 2.73206e-05 21.9871 0 21.1618V18.2732C0 17.0992 0.960825 16.1384 2.13485 16.1384H3.30214Z" fill="url(#paint0_linear_277_36318)"/>
<path d="M27.8574 9.81411C29.666 9.81411 31.1465 11.2943 31.1465 13.1032V17.5536C31.1465 18.8223 30.4172 19.9301 29.3569 20.4783V25.4245C29.3569 26.7427 28.2763 27.8223 26.9581 27.8223C25.64 27.8221 24.5633 26.7426 24.5633 25.4245V20.4803C23.5027 19.9321 22.7707 18.8251 22.7707 17.5536V13.1032C22.7707 11.2943 24.2509 9.81411 26.0598 9.81411H27.8574Z" fill="url(#paint1_linear_277_36318)"/>
<path d="M11.2062 12.0694C12.7874 12.0694 14.0817 13.3635 14.0818 14.945V18.8363C14.0818 19.9457 13.4442 20.9144 12.517 21.3937V25.7186C12.517 26.8711 11.5728 27.8153 10.4203 27.8153C9.26777 27.8153 8.32665 26.8711 8.32661 25.7186V21.3957C7.39921 20.9164 6.75884 19.9481 6.75884 18.8363V14.945C6.75893 13.3635 8.05292 12.0694 9.63441 12.0694H11.2062Z" fill="url(#paint2_linear_277_36318)"/>
<path d="M19.0741 14.8195C20.3766 14.8196 21.4418 15.8855 21.4418 17.1882V20.393C21.4418 21.3068 20.9168 22.105 20.1531 22.4997V26.0618C20.1531 27.0111 19.376 27.789 18.4267 27.7892C17.4774 27.7892 16.7014 27.0112 16.7014 26.0618V22.5017C15.9375 22.107 15.4106 21.3088 15.4106 20.393V17.1882C15.4106 15.8855 16.4766 14.8195 17.7794 14.8195H19.0741Z" fill="url(#paint3_linear_277_36318)"/>
<path d="M33.3355 5.42899L31.9324 3.51295L29.3067 5.43401C29.4866 5.78993 29.5908 6.1913 29.5908 6.61736C29.5905 8.06901 28.4138 9.24596 26.9621 9.24602C26.2465 9.24602 25.5984 8.95908 25.1243 8.49526L20.2615 12.0553C20.2985 12.203 20.3207 12.3569 20.3207 12.516C20.3207 13.5617 19.4733 14.41 18.4277 14.41C17.3821 14.41 16.5348 13.5617 16.5348 12.516C16.5348 12.4972 16.5362 12.4785 16.5368 12.4598L12.6294 9.90042C12.3556 10.8637 11.4714 11.5696 10.4203 11.5696C9.60928 11.5695 8.89729 11.1491 8.4882 10.5147L4.20847 13.2387C4.34361 13.483 4.42121 13.7637 4.42125 14.0627C4.42125 15.0051 3.6573 15.769 2.71498 15.769C1.77262 15.769 1.00871 15.0051 1.00871 14.0627C1.00883 13.1205 1.7727 12.3565 2.71498 12.3565C2.98466 12.3565 3.23901 12.4207 3.46574 12.5321L8.14092 9.55616C8.12938 9.46278 8.12185 9.36761 8.12185 9.27111C8.12199 8.00184 9.15101 6.97273 10.4203 6.97266C11.5006 6.97266 12.4044 7.71869 12.6505 8.7231L16.8469 11.4742C17.1857 10.9615 17.7672 10.6231 18.4277 10.6231C18.9522 10.6231 19.4268 10.8366 19.7697 11.1811L24.5573 7.67725C24.414 7.3529 24.3335 6.9947 24.3334 6.61736C24.3334 5.16547 25.5102 3.98769 26.9621 3.98769C27.6283 3.98772 28.2352 4.23759 28.6985 4.64611L31.3452 2.71L29.9431 0.793952L35.6541 0.172668L33.3355 5.42899Z" fill="url(#paint4_linear_277_36318)"/>
<defs>
<linearGradient id="paint0_linear_277_36318" x1="17.827" y1="0.172668" x2="17.827" y2="27.8273" gradientUnits="userSpaceOnUse">
<stop stop-color="#B148F3"/>
<stop offset="1" stop-color="#FE5102"/>
</linearGradient>
<linearGradient id="paint1_linear_277_36318" x1="17.827" y1="0.172668" x2="17.827" y2="27.8273" gradientUnits="userSpaceOnUse">
<stop stop-color="#B148F3"/>
<stop offset="1" stop-color="#FE5102"/>
</linearGradient>
<linearGradient id="paint2_linear_277_36318" x1="17.827" y1="0.172668" x2="17.827" y2="27.8273" gradientUnits="userSpaceOnUse">
<stop stop-color="#B148F3"/>
<stop offset="1" stop-color="#FE5102"/>
</linearGradient>
<linearGradient id="paint3_linear_277_36318" x1="17.827" y1="0.172668" x2="17.827" y2="27.8273" gradientUnits="userSpaceOnUse">
<stop stop-color="#B148F3"/>
<stop offset="1" stop-color="#FE5102"/>
</linearGradient>
<linearGradient id="paint4_linear_277_36318" x1="17.827" y1="0.172668" x2="17.827" y2="27.8273" gradientUnits="userSpaceOnUse">
<stop stop-color="#B148F3"/>
<stop offset="1" stop-color="#FE5102"/>
</linearGradient>
</defs>
</svg>
