<svg width="10" height="12" viewBox="0 0 10 12" fill="none" xmlns="http://www.w3.org/2000/svg">
<path d="M7.60469 0.398438C7.72652 0.398438 7.84337 0.442687 7.92952 0.521453C8.01566 0.600218 8.06406 0.707047 8.06406 0.818438V1.51844H8.52344C8.70442 1.51844 8.88362 1.55103 9.05082 1.61435C9.21803 1.67767 9.36995 1.77048 9.49792 1.88748C9.62589 2.00448 9.7274 2.14339 9.79666 2.29626C9.86592 2.44913 9.90156 2.61297 9.90156 2.77844V8.23844H7.60469C7.23919 8.23844 6.88865 8.37119 6.63021 8.60748C6.37176 8.84378 6.22656 9.16426 6.22656 9.49844V11.5984H1.47969C1.11419 11.5984 0.763655 11.4657 0.505206 11.2294C0.246758 10.9931 0.101562 10.6726 0.101562 10.3384V2.77844C0.101563 2.44426 0.246758 2.12378 0.505206 1.88748C0.763655 1.65119 1.11419 1.51844 1.47969 1.51844H1.93906V0.818438C1.93906 0.707047 1.98746 0.600218 2.07361 0.521453C2.15976 0.442687 2.2766 0.398438 2.39844 0.398438C2.52027 0.398438 2.63712 0.442687 2.72326 0.521453C2.80941 0.600218 2.85781 0.707047 2.85781 0.818438V1.51844H4.54219V0.818438C4.54219 0.707047 4.59059 0.600218 4.67674 0.521453C4.76289 0.442687 4.87973 0.398438 5.00156 0.398438C5.1234 0.398438 5.24024 0.442687 5.32639 0.521453C5.41254 0.600218 5.46094 0.707047 5.46094 0.818438V1.51844H7.14531V0.818438C7.14531 0.707047 7.19371 0.600218 7.27986 0.521453C7.36601 0.442687 7.48285 0.398438 7.60469 0.398438ZM9.75456 9.07844C9.71985 9.12921 9.67902 9.17588 9.63206 9.21844L7.29844 11.352C7.25148 11.395 7.20044 11.4323 7.14531 11.464V9.49844C7.14531 9.38705 7.19371 9.28022 7.27986 9.20145C7.36601 9.12269 7.48285 9.07844 7.60469 9.07844H9.75456ZM2.70469 8.23844C2.58285 8.23844 2.46601 8.28269 2.37986 8.36145C2.29371 8.44022 2.24531 8.54705 2.24531 8.65844C2.24531 8.76983 2.29371 8.87666 2.37986 8.95542C2.46601 9.03419 2.58285 9.07844 2.70469 9.07844H4.54219L4.58935 9.0762C4.70237 9.06548 4.80704 9.01685 4.88314 8.93969C4.95923 8.86253 5.00134 8.76233 5.00134 8.65844C5.00134 8.55455 4.95923 8.45434 4.88314 8.37718C4.80704 8.30003 4.70237 8.25139 4.58935 8.24068L4.54219 8.23844H2.70469ZM2.70469 5.99844C2.58285 5.99844 2.46601 6.04269 2.37986 6.12145C2.29371 6.20022 2.24531 6.30705 2.24531 6.41844C2.24531 6.52983 2.29371 6.63666 2.37986 6.71542C2.46601 6.79419 2.58285 6.83844 2.70469 6.83844H7.29844C7.42027 6.83844 7.53712 6.79419 7.62327 6.71542C7.70941 6.63666 7.75781 6.52983 7.75781 6.41844C7.75781 6.30705 7.70941 6.20022 7.62327 6.12145C7.53712 6.04269 7.42027 5.99844 7.29844 5.99844H2.70469ZM2.70469 3.75844C2.58285 3.75844 2.46601 3.80269 2.37986 3.88145C2.29371 3.96022 2.24531 4.06705 2.24531 4.17844C2.24531 4.28983 2.29371 4.39666 2.37986 4.47542C2.46601 4.55419 2.58285 4.59844 2.70469 4.59844H7.29844C7.42027 4.59844 7.53712 4.55419 7.62327 4.47542C7.70941 4.39666 7.75781 4.28983 7.75781 4.17844C7.75781 4.06705 7.70941 3.96022 7.62327 3.88145C7.53712 3.80269 7.42027 3.75844 7.29844 3.75844H2.70469Z" fill="black"/>
</svg>
