<svg width="15" height="4" viewBox="0 0 15 4" fill="none" xmlns="http://www.w3.org/2000/svg">
<path d="M1.5 3.23438C2.32843 3.23438 3 2.5628 3 1.73438C3 0.905948 2.32843 0.234375 1.5 0.234375C0.671573 0.234375 0 0.905948 0 1.73438C0 2.5628 0.671573 3.23438 1.5 3.23438Z" fill="#696969"/>
<path d="M7.5 3.23438C8.32843 3.23438 9 2.5628 9 1.73438C9 0.905948 8.32843 0.234375 7.5 0.234375C6.67157 0.234375 6 0.905948 6 1.73438C6 2.5628 6.67157 3.23438 7.5 3.23438Z" fill="#696969"/>
<path d="M13.5 3.23438C14.3284 3.23438 15 2.5628 15 1.73438C15 0.905948 14.3284 0.234375 13.5 0.234375C12.6716 0.234375 12 0.905948 12 1.73438C12 2.5628 12.6716 3.23438 13.5 3.23438Z" fill="#696969"/>
</svg>
