<svg width="12" height="12" viewBox="0 0 12 12" fill="none" xmlns="http://www.w3.org/2000/svg">
<path d="M9.87536 0.398438H2.12151C1.66468 0.398936 1.2267 0.580635 0.903666 0.903666C0.580635 1.2267 0.398936 1.66468 0.398438 2.12151V9.87536C0.398936 10.3322 0.580635 10.7702 0.903666 11.0932C1.2267 11.4162 1.66468 11.5979 2.12151 11.5984H9.87536C10.3322 11.5979 10.7702 11.4162 11.0932 11.0932C11.4162 10.7702 11.5979 10.3322 11.5984 9.87536V2.12151C11.5979 1.66468 11.4162 1.2267 11.0932 0.903666C10.7702 0.580635 10.3322 0.398936 9.87536 0.398438ZM8.91286 4.12163L5.2944 8.42932C5.25471 8.4766 5.20532 8.51479 5.14958 8.54132C5.09383 8.56784 5.03304 8.58207 4.97132 8.58305H4.96405C4.90367 8.58303 4.84398 8.57032 4.78883 8.54573C4.73368 8.52115 4.68432 8.48525 4.64394 8.44036L3.09317 6.71728C3.05378 6.67551 3.02315 6.62629 3.00306 6.57251C2.98297 6.51873 2.97383 6.46147 2.97619 6.40411C2.97854 6.34675 2.99234 6.29043 3.01677 6.23848C3.0412 6.18652 3.07577 6.13998 3.11844 6.10157C3.16112 6.06317 3.21104 6.03368 3.26527 6.01485C3.3195 5.99601 3.37696 5.98821 3.43425 5.99189C3.49154 5.99558 3.54752 6.01068 3.59889 6.03631C3.65026 6.06194 3.696 6.09757 3.7334 6.14113L4.95275 7.4959L8.25325 3.56755C8.32728 3.48196 8.43202 3.42894 8.54483 3.41995C8.65765 3.41096 8.76946 3.44672 8.85612 3.51951C8.94277 3.5923 8.9973 3.69627 9.00792 3.80894C9.01854 3.92161 8.98439 4.03393 8.91286 4.12163Z" fill="black"/>
</svg>
