<svg width="252" height="197" viewBox="0 0 252 197" fill="none" xmlns="http://www.w3.org/2000/svg">
<path d="M123.656 156.202L163.457 154.566L185.192 180.982L131.518 185.659L123.656 156.202Z" fill="white" stroke="#263238" stroke-width="1.20194" stroke-linecap="round" stroke-linejoin="round"/>
<path d="M131.695 174.396L174.719 171.398L177.556 174.97L132.891 178.364L131.695 174.396Z" stroke="#263238" stroke-width="0.600969" stroke-linecap="round" stroke-linejoin="round"/>
<path d="M130.406 170.107L171.639 167.512L172.953 169.169L130.959 171.936L130.406 170.107Z" stroke="#263238" stroke-width="0.600969" stroke-linecap="round" stroke-linejoin="round"/>
<path d="M129.363 166.641L169.132 164.352L170.349 165.885L129.867 168.32L129.363 166.641Z" stroke="#263238" stroke-width="0.600969" stroke-linecap="round" stroke-linejoin="round"/>
<path d="M126.672 157.718L162.623 156.152L168.007 162.936L128.892 165.086L126.672 157.718Z" stroke="#263238" stroke-width="0.600969" stroke-linecap="round" stroke-linejoin="round"/>
<path d="M128.473 163.698L166.992 161.66L168.005 162.936L128.891 165.087L128.473 163.698Z" fill="#D1D1D1" stroke="#263238" stroke-width="0.600969" stroke-linecap="round" stroke-linejoin="round"/>
<path d="M154.977 172.702L153.695 170.434L172.958 169.168L174.727 171.399" stroke="#263238" stroke-width="0.600969" stroke-linecap="round" stroke-linejoin="round"/>
<path d="M132.109 175.761L175.702 172.629L176.527 173.664L132.458 176.914L132.109 175.761Z" fill="#D1D1D1" stroke="#263238" stroke-width="0.600969" stroke-linecap="round" stroke-linejoin="round"/>
<path d="M148.395 177.074L147.789 175.781" stroke="#263238" stroke-width="0.600969" stroke-linecap="round" stroke-linejoin="round"/>
<path d="M142.062 176.535L145.189 176.305L145.521 177.061L142.374 177.302L142.062 176.535Z" fill="#D1D1D1" stroke="#263238" stroke-width="0.600969" stroke-linecap="round" stroke-linejoin="round"/>
<path d="M154.269 174.132L153.566 172.855" stroke="#263238" stroke-width="0.600969" stroke-linecap="round" stroke-linejoin="round"/>
<path d="M145.021 174.801L144.441 173.492" stroke="#263238" stroke-width="0.600969" stroke-linecap="round" stroke-linejoin="round"/>
<path d="M165.641 169.645L167.233 171.902" stroke="#263238" stroke-width="0.600969" stroke-linecap="round" stroke-linejoin="round"/>
<path d="M160.926 169.957L162.406 172.241" stroke="#263238" stroke-width="0.600969" stroke-linecap="round" stroke-linejoin="round"/>
<path d="M155.691 170.292L154.699 168.613" stroke="#263238" stroke-width="0.600969" stroke-linecap="round" stroke-linejoin="round"/>
<path d="M145.633 170.978L143.23 165.867" stroke="#263238" stroke-width="0.600969" stroke-linecap="round" stroke-linejoin="round"/>
<path d="M171.64 167.509L170.347 165.879L143.969 167.466" stroke="#263238" stroke-width="0.600969" stroke-linecap="round" stroke-linejoin="round"/>
<path d="M161.786 168.117L160.703 166.508" stroke="#263238" stroke-width="0.600969" stroke-linecap="round" stroke-linejoin="round"/>
<path d="M166.038 160.512L128.082 162.448" stroke="#263238" stroke-width="0.600969" stroke-linecap="round" stroke-linejoin="round"/>
<path d="M165.171 159.426L127.719 161.265" stroke="#263238" stroke-width="0.600969" stroke-linecap="round" stroke-linejoin="round"/>
<path d="M164.339 158.375L127.375 160.123" stroke="#263238" stroke-width="0.600969" stroke-linecap="round" stroke-linejoin="round"/>
<path d="M158.578 160.036L159.795 159.977L160.165 160.491L158.937 160.55L158.578 160.036Z" fill="#D1D1D1" stroke="#263238" stroke-width="0.600969" stroke-linecap="round" stroke-linejoin="round"/>
<path d="M151.469 160.392L152.718 160.328L153.045 160.854L151.791 160.918L151.469 160.392Z" fill="#D1D1D1" stroke="#263238" stroke-width="0.600969" stroke-linecap="round" stroke-linejoin="round"/>
<path d="M155.691 159.106L156.909 159.047L157.257 159.551L156.035 159.61L155.691 159.106Z" fill="#D1D1D1" stroke="#263238" stroke-width="0.600969" stroke-linecap="round" stroke-linejoin="round"/>
<path d="M148.938 159.43L150.182 159.371L150.487 159.886L149.238 159.945L148.938 159.43Z" fill="#D1D1D1" stroke="#263238" stroke-width="0.600969" stroke-linecap="round" stroke-linejoin="round"/>
<path d="M142.348 159.746L143.619 159.688L143.881 160.208L142.605 160.267L142.348 159.746Z" fill="#D1D1D1" stroke="#263238" stroke-width="0.600969" stroke-linecap="round" stroke-linejoin="round"/>
<path d="M135.508 160.071L136.8 160.012L137.025 160.537L135.722 160.602L135.508 160.071Z" fill="#D1D1D1" stroke="#263238" stroke-width="0.600969" stroke-linecap="round" stroke-linejoin="round"/>
<path d="M157.995 159.774L157.25 158.707" stroke="#263238" stroke-width="0.600969" stroke-linecap="round" stroke-linejoin="round"/>
<path d="M151.364 160.091L150.699 159.008" stroke="#263238" stroke-width="0.600969" stroke-linecap="round" stroke-linejoin="round"/>
<path d="M144.601 160.427L144.027 159.328" stroke="#263238" stroke-width="0.600969" stroke-linecap="round" stroke-linejoin="round"/>
<path d="M137.686 160.769L137.203 159.648" stroke="#263238" stroke-width="0.600969" stroke-linecap="round" stroke-linejoin="round"/>
<path d="M163.515 157.34L127.039 158.997" stroke="#263238" stroke-width="0.600969" stroke-linecap="round" stroke-linejoin="round"/>
<path d="M159.359 157.839L160.544 157.785L160.904 158.268L159.719 158.327L159.359 157.839Z" fill="#D1D1D1" stroke="#263238" stroke-width="0.600969" stroke-linecap="round" stroke-linejoin="round"/>
<path d="M148.309 158.344L149.531 158.285L149.832 158.784L148.598 158.843L148.309 158.344Z" fill="#D1D1D1" stroke="#263238" stroke-width="0.600969" stroke-linecap="round" stroke-linejoin="round"/>
<path d="M141.797 158.64L143.046 158.586L143.309 159.09L142.049 159.149L141.797 158.64Z" fill="#D1D1D1" stroke="#263238" stroke-width="0.600969" stroke-linecap="round" stroke-linejoin="round"/>
<path d="M133.215 159.036L134.502 158.977L134.706 159.491L133.413 159.55L133.215 159.036Z" fill="#D1D1D1" stroke="#263238" stroke-width="0.600969" stroke-linecap="round" stroke-linejoin="round"/>
<path d="M161.63 158.476L160.863 157.457" stroke="#263238" stroke-width="0.600969" stroke-linecap="round" stroke-linejoin="round"/>
<path d="M150.691 158.991L150.059 157.945" stroke="#263238" stroke-width="0.600969" stroke-linecap="round" stroke-linejoin="round"/>
<path d="M144.017 159.303L143.465 158.246" stroke="#263238" stroke-width="0.600969" stroke-linecap="round" stroke-linejoin="round"/>
<path d="M135.354 159.722L134.914 158.645" stroke="#263238" stroke-width="0.600969" stroke-linecap="round" stroke-linejoin="round"/>
<path d="M162.478 179.828L162.301 179.533L163.566 179.432L162.805 178.193L163.411 178.145L165.207 181.051L162.993 181.239L162.816 180.933L164.424 180.799L163.765 179.726L162.478 179.828Z" fill="#263238"/>
<path d="M162.125 180.58C162.399 181.036 162.125 181.369 161.289 181.444C160.452 181.519 159.82 181.256 159.562 180.795L158.704 179.272C158.457 178.838 158.704 178.516 159.557 178.452C160.409 178.387 160.978 178.634 161.23 179.068L162.125 180.58ZM160.619 179.1C160.521 178.959 160.385 178.849 160.225 178.785C160.066 178.721 159.891 178.706 159.723 178.741C159.278 178.773 159.16 178.945 159.31 179.208L160.195 180.757C160.292 180.906 160.431 181.022 160.595 181.09C160.758 181.158 160.938 181.174 161.112 181.138C161.557 181.101 161.68 180.918 161.525 180.65L160.619 179.1Z" fill="#263238"/>
<path d="M158.102 181.652C157.207 181.727 156.703 181.513 156.467 181.063L156.333 180.821C156.161 180.494 156.268 180.285 156.708 180.151C156.503 180.164 156.298 180.121 156.116 180.026C155.934 179.932 155.781 179.79 155.673 179.615L155.432 179.164C155.371 179.024 155.268 178.905 155.137 178.826L155.764 178.773C155.892 178.857 155.992 178.976 156.054 179.116L156.3 179.572C156.483 179.904 156.837 179.985 157.373 179.942L157.813 179.91L157.132 178.671L157.743 178.617L159.389 181.567L158.102 181.652ZM157.475 180.221C156.981 180.263 156.729 180.371 156.901 180.698L157.057 180.982C157.201 181.256 157.464 181.379 157.936 181.341L158.553 181.293L157.941 180.183L157.475 180.221Z" fill="#263238"/>
<path d="M152.554 179.015L153.155 178.967L155.3 181.246L154.077 178.887L154.614 178.844L156.169 181.815L155.278 181.89L153.133 179.573L153.428 182.051L152.527 182.126L151.074 179.128L151.664 179.08L152.844 181.471L152.554 179.015Z" fill="#263238"/>
<path d="M177.903 175.605L160.223 176.968" stroke="#263238" stroke-width="0.600969" stroke-miterlimit="10"/>
<path d="M156.34 177.266L145.25 178.118" stroke="#263238" stroke-width="0.600969" stroke-miterlimit="10"/>
<path d="M142.169 178.359L133.031 179.062" stroke="#263238" stroke-width="0.600969" stroke-miterlimit="10"/>
<path d="M160.696 71.8984C156.891 73.0248 153.184 74.4596 149.612 76.1885C143.713 79.0521 132.097 83.3422 126.553 85.4872C121.008 87.6322 117.619 93.1717 116.546 95.853C115.473 98.5343 110.824 109.973 110.824 109.973C110.824 109.973 100.995 125.347 98.4902 129.101C95.9859 132.855 92.5914 138.04 92.4145 142.867C92.2375 147.693 94.9134 150.374 101.172 150.374C107.43 150.374 110.111 148.229 113.146 145.012C116.181 141.794 126.016 126.06 127.448 124.275C128.88 122.489 132.811 115.694 132.811 115.694C132.811 115.694 134.779 133.391 134.779 138.93V151.983H191.086C191.086 151.983 193.767 132.318 194.303 130.71C194.839 129.101 198.947 117.48 198.947 117.48C198.947 117.48 213.785 141.435 216.263 144.652C218.74 147.87 225.814 154.648 232.742 151.935C239.671 149.221 238.249 141.789 234.496 132.855C230.742 123.921 224.151 108.723 224.151 107.999C224.151 107.275 221.47 96.7378 210.568 88.5117C199.666 80.2855 188.941 78.3228 186.436 77.0733C183.932 75.8238 175.888 71.8984 160.696 71.8984Z" fill="#B148F3" stroke="#263238" stroke-width="1.20194" stroke-linecap="round" stroke-linejoin="round"/>
<path d="M125.667 104.074L132.639 114.982C132.639 114.982 126.917 109.083 123.34 108.187" stroke="#263238" stroke-width="1.20194" stroke-linecap="round" stroke-linejoin="round"/>
<path d="M132.634 114.978L128.521 113.546C128.521 113.546 124.767 111.401 121.727 112.297" stroke="#263238" stroke-width="1.20194" stroke-linecap="round" stroke-linejoin="round"/>
<path d="M154.008 88.8789C154.41 91.823 155.338 95.4802 157.472 97.9953" stroke="#263238" stroke-width="1.20194" stroke-linecap="round" stroke-linejoin="round"/>
<path d="M153.722 84.0586C153.722 84.0586 153.684 85.0828 153.781 86.6273" stroke="#263238" stroke-width="1.20194" stroke-linecap="round" stroke-linejoin="round"/>
<path d="M155.68 100.141C156.183 100.655 156.721 101.135 157.288 101.578" stroke="#263238" stroke-width="1.20194" stroke-linecap="round" stroke-linejoin="round"/>
<path d="M150.688 92.0977C151.664 94.7443 153.104 97.1958 154.94 99.3371" stroke="#263238" stroke-width="1.20194" stroke-linecap="round" stroke-linejoin="round"/>
<path d="M185.992 132.035C184.775 134.014 183.622 135.612 182.684 136.427" stroke="#263238" stroke-width="1.20194" stroke-linecap="round" stroke-linejoin="round"/>
<path d="M195.017 114.262C195.017 114.262 190.861 123.657 186.973 130.349" stroke="#263238" stroke-width="1.20194" stroke-linecap="round" stroke-linejoin="round"/>
<path d="M176.742 137.918C176.205 138.567 175.793 139.108 175.535 139.462" stroke="#263238" stroke-width="1.20194" stroke-linecap="round" stroke-linejoin="round"/>
<path d="M183.573 129.812C183.573 129.812 180.281 133.641 177.852 136.607" stroke="#263238" stroke-width="1.20194" stroke-linecap="round" stroke-linejoin="round"/>
<path d="M198.945 117.478C198.945 117.478 206.812 104.967 207.172 103.895" stroke="#263238" stroke-width="1.20194" stroke-linecap="round" stroke-linejoin="round"/>
<path d="M204.965 112.653C207.303 110.76 210.815 108.363 214.323 107.645" stroke="#263238" stroke-width="1.20194" stroke-linecap="round" stroke-linejoin="round"/>
<path d="M202.164 115.156C202.164 115.156 202.802 114.496 203.875 113.547" stroke="#263238" stroke-width="1.20194" stroke-linecap="round" stroke-linejoin="round"/>
<path d="M211.998 105.684C209.736 106.863 207.583 108.239 205.562 109.797" stroke="#263238" stroke-width="1.20194" stroke-linecap="round" stroke-linejoin="round"/>
<path d="M215.215 132.141C216.74 131.416 218.423 131.086 220.109 131.18C221.796 131.273 223.432 131.788 224.867 132.677" stroke="#263238" stroke-width="1.20194" stroke-linecap="round" stroke-linejoin="round"/>
<path d="M216.824 129.811C216.824 129.811 223.077 128.561 227.726 131.42" stroke="#263238" stroke-width="1.20194" stroke-linecap="round" stroke-linejoin="round"/>
<path d="M99.5586 131.956C100.637 130.979 101.915 130.249 103.304 129.817C104.694 129.385 106.161 129.262 107.602 129.457" stroke="#263238" stroke-width="1.20194" stroke-linecap="round" stroke-linejoin="round"/>
<path d="M110.629 129.879C111.068 130.192 111.491 130.529 111.894 130.887" stroke="#263238" stroke-width="1.20194" stroke-linecap="round" stroke-linejoin="round"/>
<path d="M105.816 127.852C106.84 127.979 107.834 128.288 108.75 128.763" stroke="#263238" stroke-width="1.20194" stroke-linecap="round" stroke-linejoin="round"/>
<path d="M159.448 76.5487C159.448 76.5487 157.839 83.3431 158.375 88.3464C158.911 93.3497 164.451 101.04 169.1 102.825C173.75 104.611 182.324 99.4308 185.365 96.3902C188.405 93.3497 188.582 83.697 188.582 83.697C188.582 83.697 183.949 73.6905 174.103 70.8269C164.258 67.9633 159.448 76.5487 159.448 76.5487Z" fill="#A18967" stroke="#263238" stroke-width="1.20194" stroke-linecap="round" stroke-linejoin="round"/>
<path d="M196.412 75.1496C196.412 75.1496 197.345 77.9435 195.549 81.4774C193.752 85.0114 190.283 87.9983 189.349 87.6926C188.416 87.387 192.251 74.5973 192.251 74.5973C192.251 74.5973 194.798 73.1655 196.412 75.1496Z" fill="#A18967" stroke="#263238" stroke-width="1.20194" stroke-linecap="round" stroke-linejoin="round"/>
<path d="M156.974 64.937C156.974 64.937 155.21 67.2911 155.794 71.2165C156.379 75.1419 158.739 79.062 159.72 79.062C160.701 79.062 161.093 65.7253 161.093 65.7253C161.093 65.7253 159.13 63.5642 156.974 64.937Z" fill="#A18967" stroke="#263238" stroke-width="1.20194" stroke-linecap="round" stroke-linejoin="round"/>
<path d="M159.916 70.0321C159.916 70.0321 158.543 82.0014 160.109 86.9081C161.675 91.8149 164.817 99.4619 169.724 101.425C174.631 103.387 185.812 94.952 187.576 91.6164C189.34 88.2809 194.247 74.1559 194.247 74.1559C195.538 72.4382 196.376 70.424 196.685 68.298C196.994 66.172 196.764 64.0024 196.017 61.9883C193.464 54.9258 179.731 50.6089 174.03 50.8073C168.33 51.0058 162.651 55.7141 162.26 59.4411C161.868 63.1681 159.916 70.0321 159.916 70.0321Z" fill="#A18967" stroke="#263238" stroke-width="1.20194" stroke-linecap="round" stroke-linejoin="round"/>
<path d="M172.672 77.2966C172.672 77.2966 168.355 71.9984 164.43 73.768" stroke="#263238" stroke-width="2.40388" stroke-linecap="round" stroke-linejoin="round"/>
<path d="M179.535 79.6538C179.535 79.6538 185.434 78.281 188.169 80.8336" stroke="#263238" stroke-width="2.40388" stroke-linecap="round" stroke-linejoin="round"/>
<path d="M165.02 78.4766C165.02 78.4766 166.28 82.2304 171.396 81.796" stroke="#263238" stroke-width="1.20194" stroke-linecap="round" stroke-linejoin="round"/>
<path d="M179.141 83.7656C179.141 83.7656 180.32 86.3182 185.812 85.3369" stroke="#263238" stroke-width="1.20194" stroke-linecap="round" stroke-linejoin="round"/>
<path d="M169.474 87.3398C169.3 88.1344 169.414 88.9649 169.796 89.6833C170.434 90.6432 172.032 92.0267 173.206 92.0267C174.381 92.0267 176.831 91.6031 177.469 90.9542C177.879 90.5338 178.239 90.0678 178.542 89.5653" stroke="#263238" stroke-width="1.20194" stroke-linecap="round" stroke-linejoin="round"/>
<path d="M166.809 90.8594C166.809 90.8594 169.49 93.9482 171.715 94.6936C173.941 95.439 178.108 94.1573 179.282 93.7337" stroke="#263238" stroke-width="1.20194" stroke-linecap="round" stroke-linejoin="round"/>
<path d="M205.667 56.531C205.485 55.244 206.402 53.4047 206.584 52.3053C206.766 51.206 205.297 49.179 204.015 47.5273C203.024 46.2051 202.505 44.5889 202.541 42.9369C202.541 41.8323 201.259 40.9153 200.154 40.1806C198.811 39.2866 197.578 38.2372 196.481 37.0542C195.746 36.1372 192.625 36.3195 192.073 36.3195C191.521 36.3195 189.134 34.3032 187.665 33.5685C186.196 32.8339 183.257 34.1048 183.257 34.1048C183.257 34.1048 179.766 32.4531 179.031 32.4531C178.297 32.4531 175.17 33.7401 175.17 33.7401C174.135 34.1841 173.057 34.5201 171.953 34.7429C171.752 34.6907 171.548 34.6566 171.341 34.6411C170.928 34.1048 167.255 36.3088 167.255 36.3088L163.952 36.8451L162.724 38.8346C161.549 38.9633 158.798 39.403 158.605 40.749C158.359 42.465 158.605 43.1997 157.871 44.1757C157.136 45.1517 154.444 44.9104 155.189 47.1144C155.935 49.3184 157.635 51.0344 155.431 52.2624C153.227 53.4905 152.004 55.6891 153.227 56.9118C154.449 58.1344 155.431 59.8505 155.189 60.8318C154.948 61.8132 154.696 64.0172 155.677 64.5052C156.542 65.0059 157.362 65.58 158.128 66.2212L159.351 68.9025L160.085 70.6185C160.085 70.6185 161.308 66.6985 162.289 66.2105C163.271 65.7225 162.289 67.9265 164.252 67.9265C166.215 67.9265 168.167 58.6171 169.615 58.3704C171.062 58.1237 175.513 66.4571 179.905 66.4571C184.297 66.4571 189.724 62.6015 191.934 62.6015C194.143 62.6015 192.422 71.9055 192.422 73.8628C192.422 75.8202 192.91 77.7775 192.91 78.5175C192.91 79.2576 195.36 75.0855 197.076 74.1042C197.548 73.836 198.117 73.5089 198.712 73.1335C198.712 73.2193 198.685 73.2676 198.685 73.2676C198.685 73.2676 204.75 69.4066 205.485 68.1249C206.219 66.8433 205.667 65.7332 205.667 64.6339C205.667 63.5345 206.402 62.6122 206.584 60.9605C206.766 59.3088 205.849 57.8127 205.667 56.531Z" fill="#263238" stroke="#263238" stroke-width="1.20194" stroke-linecap="round" stroke-linejoin="round"/>
<path d="M250.566 151.938H14.2969" stroke="#263238" stroke-width="1.20194" stroke-linecap="round" stroke-linejoin="round"/>
<path d="M224.877 136.303C224.877 136.303 218.179 133.842 213.363 135.767C208.548 137.692 197.244 142.266 189.548 143.709C182.328 144.988 174.989 145.472 167.664 145.151C161.164 144.91 157.555 145.875 156.113 147.077C154.67 148.278 149.377 155.013 149.855 155.737C150.332 156.461 150.868 156.735 153.228 156.22C154.166 156.011 156.837 153.093 156.837 153.093L161.663 150.948C161.663 150.948 156.611 156.483 157.33 157.201C158.049 157.92 159.255 156.96 160.22 156.241C161.186 155.523 163.105 153.833 163.105 153.833L167.438 151.908C167.438 151.908 162.837 155.013 162.837 156.445C162.837 157.877 163.958 157.035 165.867 156.273C166.772 155.702 167.634 155.066 168.447 154.37L172.066 153.351C174.404 154.57 177.008 155.189 179.644 155.153C182.399 155.141 185.061 154.149 187.151 152.353C187.151 152.353 203.995 154.761 212.414 154.037C220.833 153.313 231.419 154.279 235.752 151.152C240.085 148.026 234.551 139.843 234.068 139.119" fill="#A18967"/>
<path d="M224.877 136.303C224.877 136.303 218.179 133.842 213.363 135.767C208.548 137.692 197.244 142.266 189.548 143.709C182.328 144.988 174.989 145.472 167.664 145.151C161.164 144.91 157.555 145.875 156.113 147.077C154.67 148.278 149.377 155.013 149.855 155.737C150.332 156.461 150.868 156.735 153.228 156.22C154.166 156.011 156.837 153.093 156.837 153.093L161.663 150.948C161.663 150.948 156.611 156.483 157.33 157.201C158.049 157.92 159.255 156.96 160.22 156.241C161.186 155.523 163.105 153.833 163.105 153.833L167.438 151.908C167.438 151.908 162.837 155.013 162.837 156.445C162.837 157.877 163.958 157.035 165.867 156.273C166.772 155.702 167.634 155.066 168.447 154.37L172.066 153.351C174.404 154.57 177.008 155.189 179.644 155.153C182.399 155.141 185.061 154.149 187.151 152.353C187.151 152.353 203.995 154.761 212.414 154.037C220.833 153.313 231.419 154.279 235.752 151.152C240.085 148.026 234.551 139.843 234.068 139.119" stroke="#263238" stroke-width="1.20194" stroke-linecap="round" stroke-linejoin="round"/>
<path d="M150.969 156.413C150.969 156.413 151.864 153.833 152.76 152.712C153.655 151.592 157.801 148.905 159.259 148.122C159.838 147.787 160.436 147.488 161.05 147.227" stroke="#263238" stroke-width="1.20194" stroke-linecap="round" stroke-linejoin="round"/>
<path d="M161.641 150.925L165.872 148.109" stroke="#263238" stroke-width="1.20194" stroke-linecap="round" stroke-linejoin="round"/>
<path d="M167.41 151.89L171.357 149.906" stroke="#263238" stroke-width="1.20194" stroke-linecap="round" stroke-linejoin="round"/>
<path d="M224.877 136.307C221.3 135.455 216.248 134.618 213.363 135.771C209.073 137.482 199.7 141.273 192.262 143.112C193.316 144.272 193.925 145.767 193.983 147.333C194.067 149.295 193.799 151.257 193.189 153.124C198.858 153.762 207.223 154.503 212.404 154.057C220.823 153.333 231.408 154.299 235.741 151.172C240.074 148.046 234.54 139.863 234.058 139.139" fill="#B148F3"/>
<path d="M224.877 136.307C221.3 135.455 216.248 134.618 213.363 135.771C209.073 137.482 199.7 141.273 192.262 143.112C193.316 144.272 193.925 145.767 193.983 147.333C194.067 149.295 193.799 151.257 193.189 153.124C198.858 153.762 207.223 154.503 212.404 154.057C220.823 153.333 231.408 154.299 235.741 151.172C240.074 148.046 234.54 139.863 234.058 139.139" stroke="#263238" stroke-width="1.20194" stroke-linecap="round" stroke-linejoin="round"/>
<path d="M97.8425 135.579C98.293 134.362 101.596 131.45 106.042 132.228C110.487 133.005 115.534 137.944 118.419 141.741C121.304 145.538 123.604 146.567 123.604 146.567L120.204 156.955C120.204 156.955 118.113 156.45 114.188 155.453C110.262 154.456 101.478 153.158 97.4403 151.903C93.4023 150.648 91.6809 146.304 92.5604 142.25C93.0089 139.997 93.7763 137.82 94.8395 135.783" fill="#B148F3"/>
<path d="M97.8425 135.579C98.293 134.362 101.596 131.45 106.042 132.228C110.487 133.005 115.534 137.944 118.419 141.741C121.304 145.538 123.604 146.567 123.604 146.567L120.204 156.955C120.204 156.955 118.113 156.45 114.188 155.453C110.262 154.456 101.478 153.158 97.4403 151.903C93.4023 150.648 91.6809 146.304 92.5604 142.25C93.0089 139.997 93.7763 137.82 94.8395 135.783" stroke="#263238" stroke-width="1.20194" stroke-linecap="round" stroke-linejoin="round"/>
<path d="M118.426 141.742C118.121 141.345 117.794 140.938 117.45 140.52C114.935 141.522 111.745 143.372 110.055 146.633C108.366 149.893 108.356 152.585 108.683 154.301C110.828 154.709 112.806 155.095 114.185 155.444C118.11 156.441 120.201 156.945 120.201 156.945L123.601 146.558C123.601 146.558 121.306 145.544 118.426 141.742Z" fill="#A18967" stroke="#263238" stroke-width="1.20194" stroke-linecap="round" stroke-linejoin="round"/>
<path d="M117.028 151.887C116.803 153.496 116.309 155.336 118.637 156.354C120.964 157.373 123.281 159.888 124.745 160.478C126.515 161.157 128.367 161.604 130.252 161.808C131.743 161.905 133.582 162.393 136.505 161.578C139.427 160.763 139.347 160.012 139.347 160.012C139.347 160.012 141.17 160.081 142.071 159.636C142.972 159.191 142.339 158.076 141.245 157.636C140.151 157.196 138.811 156.607 138.811 156.607C138.811 156.607 140.473 155.073 140.055 154.692L139.642 154.311C139.642 154.311 141.562 154.537 141.728 153.925C141.894 153.314 140.688 150.611 140.205 148.337C139.722 146.064 138.709 146.369 136.859 146.005C135.009 145.64 132.488 146.107 129.163 145.399C125.839 144.691 121.023 145.881 119.119 146.385" fill="#A18967"/>
<path d="M117.028 151.887C116.803 153.496 116.309 155.336 118.637 156.354C120.964 157.373 123.281 159.888 124.745 160.478C126.515 161.157 128.367 161.604 130.252 161.808C131.743 161.905 133.582 162.393 136.505 161.578C139.427 160.763 139.347 160.012 139.347 160.012C139.347 160.012 141.17 160.081 142.071 159.636C142.972 159.191 142.339 158.076 141.245 157.636C140.151 157.196 138.811 156.607 138.811 156.607C138.811 156.607 140.473 155.073 140.055 154.692L139.642 154.311C139.642 154.311 141.562 154.537 141.728 153.925C141.894 153.314 140.688 150.611 140.205 148.337C139.722 146.064 138.709 146.369 136.859 146.005C135.009 145.64 132.488 146.107 129.163 145.399C125.839 144.691 121.023 145.881 119.119 146.385" stroke="#263238" stroke-width="1.20194" stroke-linecap="round" stroke-linejoin="round"/>
<path d="M130.014 136.421L133.05 147.147L135.474 148.3L131.881 135.88C131.843 135.748 131.778 135.626 131.689 135.521C131.601 135.417 131.491 135.332 131.367 135.273C131.243 135.214 131.108 135.183 130.971 135.18C130.834 135.177 130.698 135.204 130.572 135.258C130.353 135.35 130.175 135.519 130.072 135.734C129.969 135.948 129.949 136.193 130.014 136.421Z" fill="#263238"/>
<path d="M131.737 146.328C131.737 146.328 137.046 149.16 137.41 149.304C137.662 149.406 140.027 153.358 140.778 155.257C141.127 156.126 140.735 156.624 139.92 157.075L138.821 156.63L132.219 152.474L129.801 151.321" fill="#A18967"/>
<path d="M131.737 146.328C131.737 146.328 137.046 149.16 137.41 149.304C137.662 149.406 140.027 153.358 140.778 155.257C141.127 156.126 140.735 156.624 139.92 157.075L138.821 156.63L132.219 152.474L129.801 151.321" stroke="#263238" stroke-width="1.20194" stroke-linecap="round" stroke-linejoin="round"/>
<path d="M128.035 155.574C128.035 155.574 133.205 158.647 134.293 159.21C135.382 159.773 139.356 160.031 139.356 160.031" stroke="#263238" stroke-width="1.20194" stroke-linecap="round" stroke-linejoin="round"/>
<path d="M126.098 158.594C126.098 158.594 130.436 160.985 131.289 161.275C132.141 161.565 133.97 162.069 133.97 162.069" stroke="#263238" stroke-width="1.20194" stroke-linecap="round" stroke-linejoin="round"/>
<path d="M66.4768 179.652L86.2753 161.44L42.6562 158.625L66.4768 179.652Z" fill="#CCCCCC" stroke="#263238" stroke-width="1.20194" stroke-linecap="round" stroke-linejoin="round"/>
<path d="M65.6408 175.986L74.5534 167.54L64.2305 166.918L65.6408 175.986Z" fill="#263238" stroke="#263238" stroke-width="1.20194" stroke-linecap="round" stroke-linejoin="round"/>
<path d="M4.93452 128.52L70.2345 131.41L66.4753 179.662L0.601562 176.482L4.93452 128.52Z" fill="#A6A6A6" stroke="#263238" stroke-width="1.20194" stroke-linecap="round" stroke-linejoin="round"/>
<path d="M0.894531 173.27C4.75558 172.702 11.2711 171.184 22.2751 167.623C48.4712 159.145 51.7692 135.448 70.2378 131.41L4.93791 128.52L0.894531 173.27Z" fill="#263238" stroke="#263238" stroke-width="1.20194" stroke-linecap="round" stroke-linejoin="round"/>
<path d="M34.9852 156.826C37.7514 156.826 39.9938 155.102 39.9938 152.975C39.9938 150.849 37.7514 149.125 34.9852 149.125C32.219 149.125 29.9766 150.849 29.9766 152.975C29.9766 155.102 32.219 156.826 34.9852 156.826Z" fill="white" stroke="#263238" stroke-width="1.20194" stroke-linecap="round" stroke-linejoin="round"/>
</svg>
