<svg width="16" height="18" viewBox="0 0 16 18" fill="none" xmlns="http://www.w3.org/2000/svg">
<path d="M10.5438 13.6154V14.1923C10.5438 14.8043 10.2758 15.3913 9.79886 15.8241C9.3219 16.2569 8.675 16.5 8.00047 16.5C7.32595 16.5 6.67905 16.2569 6.20209 15.8241C5.72513 15.3913 5.45718 14.8043 5.45718 14.1923V13.6154M14.8229 12.441C13.8024 11.3077 13.0819 10.7308 13.0819 7.60637C13.0819 4.74519 11.4717 3.72584 10.1464 3.23077C9.97034 3.16514 9.80463 3.01442 9.75098 2.85036C9.5185 2.13245 8.86679 1.5 8.00047 1.5C7.13416 1.5 6.48205 2.13281 6.25196 2.85108C6.19831 3.01695 6.0326 3.16514 5.85655 3.23077C4.52967 3.72656 2.92103 4.74231 2.92103 7.60637C2.91904 10.7308 2.19858 11.3077 1.17808 12.441C0.755255 12.9105 1.12562 13.6154 1.86517 13.6154H14.1398C14.8753 13.6154 15.2433 12.9083 14.8229 12.441Z" stroke="#696969" stroke-width="1.25" stroke-linecap="round" stroke-linejoin="round"/>
</svg>
