<svg width="9" height="14" viewBox="0 0 9 14" fill="none" xmlns="http://www.w3.org/2000/svg">
<path d="M7.375 1.375H7.38348V1.38348H7.375V1.375Z" stroke="#696969" stroke-width="1.69641" stroke-linecap="round" stroke-linejoin="round"/>
<path d="M7.79742 1.37332C7.79742 1.4858 7.75274 1.59367 7.67321 1.67321C7.59367 1.75274 7.4858 1.79742 7.37332 1.79742C7.26084 1.79742 7.15297 1.75274 7.07344 1.67321C6.9939 1.59367 6.94922 1.4858 6.94922 1.37332C6.94922 1.26084 6.9939 1.15297 7.07344 1.07344C7.15297 0.993901 7.26084 0.949219 7.37332 0.949219C7.4858 0.949219 7.59367 0.993901 7.67321 1.07344C7.75274 1.15297 7.79742 1.26084 7.79742 1.37332ZM7.37332 6.87818H7.3818V6.88666H7.37332V6.87818Z" stroke="#696969" stroke-width="1.69641" stroke-linecap="round" stroke-linejoin="round"/>
<path d="M7.79742 6.88113C7.79742 6.99361 7.75274 7.10149 7.67321 7.18102C7.59367 7.26056 7.4858 7.30524 7.37332 7.30524C7.26084 7.30524 7.15297 7.26056 7.07344 7.18102C6.9939 7.10149 6.94922 6.99361 6.94922 6.88113C6.94922 6.76865 6.9939 6.66078 7.07344 6.58125C7.15297 6.50171 7.26084 6.45703 7.37332 6.45703C7.4858 6.45703 7.59367 6.50171 7.67321 6.58125C7.75274 6.66078 7.79742 6.76865 7.79742 6.88113ZM7.37332 12.403H7.3818V12.4114H7.37332V12.403Z" stroke="#696969" stroke-width="1.69641" stroke-linecap="round" stroke-linejoin="round"/>
<path d="M7.79904 12.4017C7.79904 12.5142 7.75436 12.622 7.67483 12.7016C7.59529 12.7811 7.48742 12.8258 7.37494 12.8258C7.26246 12.8258 7.15459 12.7811 7.07505 12.7016C6.99552 12.622 6.95084 12.5142 6.95084 12.4017C6.95084 12.2892 6.99552 12.1813 7.07505 12.1018C7.15459 12.0223 7.26246 11.9776 7.37494 11.9776C7.48742 11.9776 7.59529 12.0223 7.67483 12.1018C7.75436 12.1813 7.79904 12.2892 7.79904 12.4017ZM1.4375 1.375H1.44598V1.38348H1.4375V1.375Z" stroke="#696969" stroke-width="1.69641" stroke-linecap="round" stroke-linejoin="round"/>
<path d="M1.85992 1.37332C1.85992 1.4858 1.81524 1.59367 1.73571 1.67321C1.65617 1.75274 1.5483 1.79742 1.43582 1.79742C1.32334 1.79742 1.21547 1.75274 1.13594 1.67321C1.0564 1.59367 1.01172 1.4858 1.01172 1.37332C1.01172 1.26084 1.0564 1.15297 1.13594 1.07344C1.21547 0.993901 1.32334 0.949219 1.43582 0.949219C1.5483 0.949219 1.65617 0.993901 1.73571 1.07344C1.81524 1.15297 1.85992 1.26084 1.85992 1.37332ZM1.43582 6.87818H1.4443V6.88666H1.43582V6.87818Z" stroke="#696969" stroke-width="1.69641" stroke-linecap="round" stroke-linejoin="round"/>
<path d="M1.85992 6.88113C1.85992 6.99361 1.81524 7.10149 1.73571 7.18102C1.65617 7.26056 1.5483 7.30524 1.43582 7.30524C1.32334 7.30524 1.21547 7.26056 1.13594 7.18102C1.0564 7.10149 1.01172 6.99361 1.01172 6.88113C1.01172 6.76865 1.0564 6.66078 1.13594 6.58125C1.21547 6.50171 1.32334 6.45703 1.43582 6.45703C1.5483 6.45703 1.65617 6.50171 1.73571 6.58125C1.81524 6.66078 1.85992 6.76865 1.85992 6.88113ZM1.43582 12.403H1.4443V12.4114H1.43582V12.403Z" stroke="#696969" stroke-width="1.69641" stroke-linecap="round" stroke-linejoin="round"/>
<path d="M1.85992 12.4007C1.85992 12.5131 1.81524 12.621 1.73571 12.7006C1.65617 12.7801 1.5483 12.8248 1.43582 12.8248C1.32334 12.8248 1.21547 12.7801 1.13594 12.7006C1.0564 12.621 1.01172 12.5131 1.01172 12.4007C1.01172 12.2882 1.0564 12.1803 1.13594 12.1008C1.21547 12.0212 1.32334 11.9766 1.43582 11.9766C1.5483 11.9766 1.65617 12.0212 1.73571 12.1008C1.81524 12.1803 1.85992 12.2882 1.85992 12.4007Z" stroke="#696969" stroke-width="1.69641" stroke-linecap="round" stroke-linejoin="round"/>
</svg>
