<svg width="32" height="32" viewBox="0 0 32 32" fill="none" xmlns="http://www.w3.org/2000/svg">
<rect width="32" height="32" rx="8" fill="#292929"/>
<path d="M15.322 19.1947C15.322 18.28 15.4623 17.5173 15.743 16.9067C16.023 16.296 16.5996 15.6087 17.473 14.8447C18.0796 14.2953 18.5363 13.7743 18.843 13.2817C19.1496 12.789 19.303 12.2337 19.303 11.6157C19.303 10.727 18.997 9.98699 18.385 9.39566C17.773 8.80499 16.9366 8.50966 15.876 8.50966C15.0133 8.50966 14.326 8.71032 13.814 9.11166C13.302 9.51299 12.8903 10.0123 12.579 10.6097L11.502 10.1057C11.9293 9.25699 12.5006 8.58499 13.216 8.08966C13.9313 7.59499 14.818 7.34766 15.876 7.34766C17.356 7.34766 18.4966 7.77099 19.298 8.61766C20.0993 9.46432 20.4993 10.4557 20.498 11.5917C20.498 12.323 20.3383 12.9907 20.019 13.5947C19.699 14.1993 19.2323 14.774 18.619 15.3187C17.7003 16.128 17.1213 16.788 16.882 17.2987C16.6433 17.8093 16.524 18.441 16.524 19.1937L15.322 19.1947ZM15.878 24.6557C15.61 24.6557 15.3763 24.556 15.177 24.3567C14.977 24.1573 14.877 23.9237 14.877 23.6557C14.877 23.3877 14.977 23.154 15.177 22.9547C15.377 22.7553 15.6103 22.6557 15.877 22.6557C16.1436 22.6557 16.3776 22.7553 16.579 22.9547C16.7803 23.154 16.88 23.3877 16.878 23.6557C16.876 23.9237 16.776 24.1573 16.578 24.3567C16.38 24.556 16.1466 24.6557 15.878 24.6557Z" fill="white"/>
</svg>
