<svg width="16" height="18" viewBox="0 0 16 18" fill="none" xmlns="http://www.w3.org/2000/svg">
<path d="M2.32765 15.8893H13.6725V2.11087H2.32765V15.8893ZM8.64386 3.89847H11.4709C11.5417 3.88413 11.6153 3.89932 11.6721 3.94066C11.729 3.98115 11.7625 4.04358 11.7625 4.10938C11.7625 4.17519 11.729 4.23677 11.6721 4.27811C11.6153 4.31945 11.5417 4.33464 11.4709 4.31945H8.64386C8.57304 4.33464 8.49943 4.31945 8.4426 4.27811C8.38576 4.23677 8.35222 4.17519 8.35222 4.10938C8.35222 4.04358 8.38576 3.98115 8.4426 3.94066C8.49943 3.89932 8.57304 3.88413 8.64386 3.89847ZM8.64386 5.16226H10.4859C10.6173 5.16226 10.7245 5.25843 10.7245 5.37823C10.7245 5.49718 10.6173 5.5942 10.4859 5.5942H8.64386C8.51248 5.5942 8.40533 5.49718 8.40533 5.37823C8.40533 5.25843 8.51248 5.16226 8.64386 5.16226ZM8.64386 8.15801H11.4709C11.5417 8.14282 11.6153 8.15885 11.6721 8.19935C11.729 8.24069 11.7625 8.30227 11.7625 8.36808C11.7625 8.43388 11.729 8.49631 11.6721 8.53681C11.6153 8.57815 11.5417 8.59333 11.4709 8.57899H8.64386C8.57304 8.59333 8.49943 8.57815 8.4426 8.53681C8.38576 8.49631 8.35222 8.43388 8.35222 8.36808C8.35222 8.30227 8.38576 8.24069 8.4426 8.19935C8.49943 8.15886 8.57304 8.14283 8.64386 8.15801ZM8.64386 9.42179H10.485L10.4859 9.42095C10.594 9.44373 10.6714 9.53062 10.6714 9.63186C10.6714 9.73225 10.594 9.81999 10.4859 9.84193H8.64386C8.57304 9.85711 8.49944 9.84108 8.4426 9.80059C8.38576 9.75925 8.35222 9.69767 8.35222 9.63186C8.35222 9.56606 8.38576 9.50363 8.4426 9.46313C8.49944 9.42179 8.57304 9.40661 8.64386 9.42095L8.64386 9.42179ZM8.64386 12.4175L11.4709 12.4167C11.6023 12.4167 11.7094 12.5137 11.7094 12.6327C11.7094 12.7516 11.6023 12.8486 11.4709 12.8486H8.64386C8.51248 12.8486 8.40533 12.7516 8.40533 12.6327C8.40533 12.5137 8.51248 12.4167 8.64386 12.4167V12.4175ZM8.64386 13.6813H10.485L10.4859 13.6805C10.6173 13.6805 10.7245 13.7767 10.7245 13.8965C10.7245 14.0154 10.6173 14.1124 10.4859 14.1124H8.64386C8.51248 14.1124 8.40533 14.0154 8.40533 13.8965C8.40533 13.7767 8.51248 13.6805 8.64386 13.6805L8.64386 13.6813ZM4.36515 4.47551C4.45646 4.39621 4.60181 4.39621 4.69405 4.47551L5.44503 5.15379L6.85196 3.88158H6.8529C6.94514 3.80228 7.08956 3.80228 7.1818 3.88158C7.26939 3.96511 7.26939 4.09587 7.1818 4.17939L5.6146 5.6026C5.52236 5.68191 5.37794 5.68191 5.2857 5.6026L4.3698 4.77331C4.28035 4.69148 4.2785 4.55987 4.36515 4.47551ZM4.51795 9.83767L6.69824 7.86355H6.69731C6.78955 7.78425 6.9349 7.78425 7.02714 7.86355C7.11473 7.94707 7.11473 8.07868 7.02714 8.1622L6.09166 8.99994L7.01968 9.83767C7.10726 9.92119 7.10726 10.0528 7.01968 10.1363C6.92743 10.2165 6.78022 10.2165 6.68798 10.1363L5.76275 9.29858L4.83753 10.1363H4.8366C4.74249 10.1903 4.6195 10.1777 4.5403 10.1059C4.46203 10.0351 4.44806 9.92288 4.50769 9.83767L4.51795 9.83767ZM4.51795 7.86355H4.51702C4.60926 7.78425 4.75462 7.78425 4.84686 7.86355L5.28105 8.25248C5.36863 8.336 5.36863 8.4676 5.28105 8.55112C5.23819 8.59162 5.17856 8.6144 5.11613 8.61355C5.05463 8.61271 4.99593 8.59162 4.95121 8.55281L4.51702 8.1622C4.4285 8.07952 4.42757 7.94792 4.51515 7.86356L4.51795 7.86355ZM4.36794 12.9903L4.36701 12.9911C4.45925 12.9118 4.6046 12.9118 4.69591 12.9911L5.4469 13.6711L6.85383 12.3972H6.85476C6.94886 12.3432 7.07279 12.355 7.15106 12.4268C7.23025 12.4985 7.24423 12.6098 7.18367 12.695L5.61461 14.1182C5.52237 14.1976 5.37795 14.1976 5.2857 14.1182L4.36981 13.2915C4.2785 13.2088 4.27663 13.0755 4.36515 12.9912L4.36794 12.9903ZM13.909 0H2.09644C0.939202 0.00168739 0.000930257 0.851233 0 1.89904V16.101C0.000931689 17.1488 0.939202 17.9983 2.09644 18H13.9036C15.0608 17.9983 15.9991 17.1488 16 16.101V1.89904C15.9991 0.851233 15.0608 0.00168458 13.9036 0H13.909ZM14.1476 16.101H14.1466C14.1466 16.1583 14.1215 16.2132 14.0768 16.2537C14.032 16.2941 13.9715 16.3169 13.9081 16.3169H2.09623C1.96485 16.3169 1.8577 16.2208 1.8577 16.101V1.89904C1.8577 1.77925 1.96485 1.68307 2.09623 1.68307H13.9033C13.9667 1.68307 14.0273 1.70585 14.072 1.74635C14.1167 1.78684 14.1419 1.84168 14.1419 1.89904L14.1476 16.101Z" fill="#FE5102"/>
</svg>
