<svg width="14" height="11" viewBox="0 0 14 11" fill="none" xmlns="http://www.w3.org/2000/svg">
<path d="M13.5333 10H13.0667V6.5C13.0667 6.23478 12.9683 5.98043 12.7933 5.79289C12.6183 5.60536 12.3809 5.5 12.1333 5.5H9.8V1C9.8 0.734784 9.70167 0.48043 9.52663 0.292893C9.3516 0.105357 9.1142 0 8.86667 0H5.13333C4.8858 0 4.6484 0.105357 4.47337 0.292893C4.29833 0.48043 4.2 0.734784 4.2 1V3H1.86667C1.61913 3 1.38173 3.10536 1.2067 3.29289C1.03167 3.48043 0.933333 3.73478 0.933333 4V10H0.466667C0.342899 10 0.2242 10.0527 0.136683 10.1464C0.0491665 10.2402 0 10.3674 0 10.5C0 10.6326 0.0491665 10.7598 0.136683 10.8536C0.2242 10.9473 0.342899 11 0.466667 11H13.5333C13.6571 11 13.7758 10.9473 13.8633 10.8536C13.9508 10.7598 14 10.6326 14 10.5C14 10.3674 13.9508 10.2402 13.8633 10.1464C13.7758 10.0527 13.6571 10 13.5333 10ZM4.2 10H1.86667V4H4.2V10ZM7.7 6C7.7 6.13261 7.65083 6.25979 7.56332 6.35355C7.4758 6.44732 7.3571 6.5 7.23333 6.5C7.10957 6.5 6.99087 6.44732 6.90335 6.35355C6.81583 6.25979 6.76667 6.13261 6.76667 6V4.19375L6.68092 4.22437C6.62277 4.24514 6.56138 4.25343 6.50025 4.24878C6.43912 4.24412 6.37944 4.22661 6.32462 4.19725C6.2698 4.16788 6.22092 4.12723 6.18076 4.07762C6.14061 4.02802 6.10996 3.97042 6.09058 3.90812C6.0712 3.84583 6.06346 3.78005 6.06781 3.71455C6.07215 3.64905 6.0885 3.58511 6.1159 3.52638C6.14331 3.46764 6.18125 3.41527 6.22755 3.37225C6.27385 3.32922 6.32761 3.29639 6.38575 3.27563L7.08575 3.02563C7.1559 3.00057 7.23061 2.99373 7.30371 3.00568C7.37681 3.01763 7.44622 3.04802 7.50621 3.09435C7.5662 3.14068 7.61505 3.20162 7.64874 3.27214C7.68244 3.34267 7.70001 3.42077 7.7 3.5V6ZM12.1333 10H9.8V6.5H12.1333V10Z" fill="#292929"/>
</svg>
