<svg width="12" height="12" viewBox="0 0 12 12" fill="none" xmlns="http://www.w3.org/2000/svg">
<path d="M5.99844 9.45307L3.36971 11.4476C3.23946 11.5535 3.09736 11.6036 2.94343 11.5979C2.7895 11.5923 2.65332 11.548 2.53491 11.4652C2.4165 11.3824 2.32485 11.2706 2.25996 11.1299C2.19507 10.9891 2.19199 10.8361 2.25073 10.6709L3.26314 7.40563L0.687699 5.58764C0.545606 5.49351 0.456797 5.36996 0.421274 5.21699C0.385751 5.06402 0.391671 4.92281 0.439036 4.79338C0.4864 4.66394 0.569288 4.5491 0.687699 4.44884C0.80611 4.34859 0.948203 4.2987 1.11398 4.29917H4.29332L5.32349 0.910301C5.3827 0.745565 5.47459 0.618953 5.59915 0.530466C5.72372 0.441979 5.85682 0.397971 5.99844 0.398441C6.14006 0.398912 6.27339 0.443156 6.39843 0.531172C6.52347 0.619188 6.61512 0.745565 6.67338 0.910301L7.70356 4.29917H10.8829C11.0487 4.29917 11.1908 4.34929 11.3092 4.44955C11.4276 4.5498 11.5105 4.66441 11.5578 4.79338C11.6052 4.92234 11.6111 5.06355 11.5756 5.21699C11.5401 5.37043 11.4513 5.49398 11.3092 5.58764L8.73373 7.40563L9.74615 10.6709C9.80535 10.8357 9.80251 10.9886 9.73762 11.1299C9.67273 11.2711 9.58085 11.3828 9.46196 11.4652C9.34308 11.5476 9.2069 11.5918 9.05344 11.5979C8.89998 11.6041 8.75789 11.5539 8.62716 11.4476L5.99844 9.45307Z" fill="black"/>
</svg>
