<svg width="13" height="12" viewBox="0 0 13 12" fill="none" xmlns="http://www.w3.org/2000/svg">
<path d="M10.0167 12C10.2532 12 10.4513 11.921 10.611 11.7629C10.7707 11.6048 10.8508 11.4094 10.8514 11.1767C10.8519 10.9439 10.7718 10.7485 10.611 10.5905C10.4502 10.4324 10.252 10.3533 10.0167 10.3533H4.92486C4.0484 10.3533 3.28658 10.0789 2.63939 9.53002C1.9922 8.98113 1.66889 8.29503 1.66944 7.4717C1.67 6.64837 1.99332 5.96226 2.63939 5.41338C3.28546 4.86449 4.04729 4.59005 4.92486 4.59005H10.1836L8.59763 6.15437C8.4446 6.30532 8.36808 6.49743 8.36808 6.7307C8.36808 6.96398 8.4446 7.15609 8.59763 7.30703C8.75066 7.45798 8.94543 7.53345 9.18193 7.53345C9.41844 7.53345 9.61321 7.45798 9.76624 7.30703L12.7712 4.34305C12.8547 4.26072 12.914 4.17153 12.949 4.07547C12.9841 3.97942 13.0011 3.8765 12.9999 3.76672C12.9988 3.65695 12.9813 3.55403 12.9474 3.45798C12.9134 3.36192 12.8547 3.27273 12.7712 3.19039L9.76624 0.226415C9.61321 0.0754714 9.41844 0 9.18193 0C8.94543 0 8.75066 0.0754714 8.59763 0.226415C8.4446 0.377358 8.36808 0.569468 8.36808 0.802744C8.36808 1.03602 8.4446 1.22813 8.59763 1.37907L10.1836 2.9434H4.92486C3.57539 2.9434 2.41707 3.37564 1.44991 4.24014C0.482747 5.10463 -0.000555992 6.18182 9.53674e-07 7.4717C0.000556946 8.76158 0.48386 9.83876 1.44991 10.7033C2.41596 11.5678 3.57428 12 4.92486 12H10.0167Z" fill="#696969"/>
</svg>
