<svg width="16" height="16" viewBox="0 0 16 16" fill="none" xmlns="http://www.w3.org/2000/svg">
<path d="M14.6666 7.16658C14.4628 5.7001 13.7825 4.3413 12.7305 3.2995C11.6785 2.25769 10.3131 1.59068 8.84471 1.40121C7.3763 1.21174 5.88633 1.51032 4.60431 2.25096C3.3223 2.99159 2.31935 4.1332 1.74998 5.49992M1.33331 2.16658V5.49992H4.66665M1.33331 8.83324C1.53711 10.2997 2.21742 11.6585 3.26945 12.7003C4.32147 13.7421 5.68685 14.4091 7.15525 14.5986C8.62366 14.7881 10.1136 14.4895 11.3956 13.7489C12.6777 13.0082 13.6806 11.8666 14.25 10.4999M14.6666 13.8332V10.4999H11.3333" stroke="#696969" stroke-width="1.5" stroke-linecap="round" stroke-linejoin="round"/>
</svg>
