<svg width="19" height="19" viewBox="0 0 19 19" fill="none" xmlns="http://www.w3.org/2000/svg">
<path fill-rule="evenodd" clip-rule="evenodd" d="M15.3916 3.28936C15.4997 3.18131 15.6737 3.18019 15.7839 3.29038L15.944 3.45045C16.0526 3.55906 16.0546 3.73316 15.945 3.84275L10.5918 9.19595C10.5106 9.2772 10.5375 9.34307 10.6528 9.34307H18.2233C18.3761 9.34307 18.5 9.46535 18.5 9.62119V9.84756C18.5 10.0012 18.3783 10.1257 18.2233 10.1257H10.6528C10.5378 10.1257 10.5103 10.1913 10.5918 10.2728L15.945 15.626C16.0531 15.7341 16.0542 15.9081 15.944 16.0183L15.7839 16.1784C15.6753 16.287 15.5012 16.289 15.3916 16.1794L10.0384 10.8262C9.95717 10.7449 9.8913 10.7718 9.8913 10.8871V18.4577C9.8913 18.6105 9.76902 18.7344 9.61318 18.7344H9.38682C9.23322 18.7344 9.1087 18.6127 9.1087 18.4577V10.8871C9.1087 10.7722 9.04309 10.7447 8.96158 10.8262L3.60837 16.1794C3.50032 16.2874 3.32627 16.2886 3.21607 16.1784L3.05601 16.0183C2.94739 15.9097 2.9454 15.7356 3.05499 15.626L8.40819 10.2728C8.48944 10.1915 8.46253 10.1257 8.34725 10.1257H0.776677C0.623872 10.1257 0.5 10.0034 0.5 9.84756V9.62119C0.5 9.46759 0.621695 9.34307 0.776677 9.34307H8.34725C8.46216 9.34307 8.4897 9.27747 8.40819 9.19595L3.05499 3.84275C2.94694 3.7347 2.94581 3.56064 3.05601 3.45045L3.21607 3.29038C3.32468 3.18177 3.49878 3.17977 3.60837 3.28936L8.96158 8.64256C9.04283 8.72381 9.1087 8.69691 9.1087 8.58162V1.01105C9.1087 0.858247 9.23098 0.734375 9.38682 0.734375H9.61318C9.76679 0.734375 9.8913 0.85607 9.8913 1.01105V8.58162C9.8913 8.69653 9.95691 8.72408 10.0384 8.64256L15.3916 3.28936Z" fill="#AE3232" stroke="#AE3232" stroke-width="0.5"/>
</svg>
