<svg width="18" height="18" viewBox="0 0 18 18" fill="none" xmlns="http://www.w3.org/2000/svg">
<path d="M7.29785 14.874C7.29785 14.6374 7.14629 14.4275 6.92188 14.3525C6.8391 14.3249 6.7723 14.2939 6.64355 14.2402C6.46375 14.1654 6.2601 14.1916 6.10645 14.3047L6.04395 14.3584L4.85449 15.5479C4.51072 15.8916 3.93947 15.8916 3.5957 15.5479L2.45215 14.4043C2.10838 14.0605 2.10838 13.4893 2.45215 13.1455L3.6416 11.9561C3.80336 11.7939 3.84772 11.5484 3.75293 11.3398C3.73798 11.3069 3.72306 11.2689 3.70312 11.2168C3.68479 11.1689 3.66022 11.1045 3.63379 11.041C3.54839 10.8361 3.34801 10.7021 3.12598 10.7021H1.44141C0.952385 10.7021 0.549805 10.2996 0.549805 9.81055V8.18945C0.549805 7.70043 0.952386 7.29787 1.44141 7.29785H3.12598C3.3626 7.29785 3.57251 7.14629 3.64746 6.92188C3.67505 6.83909 3.70612 6.7723 3.75977 6.64355C3.84524 6.43808 3.79878 6.20147 3.6416 6.04395L2.45215 4.85449C2.10838 4.51072 2.10838 3.93947 2.45215 3.5957L3.5957 2.45215C3.93947 2.10838 4.51072 2.10838 4.85449 2.45215L6.04395 3.6416C6.20606 3.80336 6.45163 3.84772 6.66016 3.75293C6.69305 3.73798 6.73115 3.72306 6.7832 3.70312C6.83108 3.68479 6.89553 3.66022 6.95898 3.63379C7.16394 3.54839 7.29785 3.34801 7.29785 3.12598V1.44141C7.29787 0.952386 7.70043 0.549805 8.18945 0.549805H9.81055C10.2996 0.549805 10.7021 0.952385 10.7021 1.44141V3.12598C10.7021 3.3626 10.8537 3.57251 11.0781 3.64746C11.1609 3.67505 11.2277 3.70612 11.3564 3.75977C11.5619 3.84524 11.7985 3.79878 11.9561 3.6416L13.1455 2.45215C13.4893 2.10838 14.0605 2.10838 14.4043 2.45215L15.5479 3.5957C15.8916 3.93947 15.8916 4.51072 15.5479 4.85449L14.3584 6.04395C14.1966 6.20606 14.1523 6.45163 14.2471 6.66016C14.262 6.69305 14.2769 6.73115 14.2969 6.7832C14.3152 6.83108 14.3398 6.89553 14.3662 6.95898C14.4516 7.16394 14.652 7.29785 14.874 7.29785H16.5586C17.0476 7.29787 17.4502 7.70043 17.4502 8.18945V9.81055C17.4502 10.2996 17.0476 10.7021 16.5586 10.7021H14.874C14.6668 10.7021 14.4803 10.8185 14.3867 10.998L14.3525 11.0781C14.3249 11.1609 14.2939 11.2277 14.2402 11.3564C14.1548 11.5619 14.2012 11.7985 14.3584 11.9561L15.5479 13.1455C15.8916 13.4893 15.8916 14.0605 15.5479 14.4043L14.4043 15.5479C14.0605 15.8916 13.4893 15.8916 13.1455 15.5479L11.9561 14.3584C11.8143 14.2169 11.6087 14.1651 11.4199 14.2178L11.3398 14.2471C11.3069 14.262 11.2689 14.2769 11.2168 14.2969C11.1689 14.3152 11.1045 14.3398 11.041 14.3662C10.8361 14.4516 10.7021 14.652 10.7021 14.874V16.5586C10.7021 17.0476 10.2996 17.4502 9.81055 17.4502H8.18945C7.70043 17.4502 7.29787 17.0476 7.29785 16.5586V14.874Z" stroke="#696969" stroke-width="1.1" stroke-miterlimit="10" stroke-linejoin="round"/>
<path d="M9.00888 12.6125C9.96461 12.6125 10.8812 12.2328 11.557 11.557C12.2328 10.8812 12.6125 9.96461 12.6125 9.00888C12.6125 8.05314 12.2328 7.13655 11.557 6.46074C10.8812 5.78494 9.96461 5.40527 9.00888 5.40527C8.05314 5.40527 7.13655 5.78494 6.46074 6.46074C5.78494 7.13655 5.40527 8.05314 5.40527 9.00888C5.40527 9.96461 5.78494 10.8812 6.46074 11.557C7.13655 12.2328 8.05314 12.6125 9.00888 12.6125Z" stroke="#696969" stroke-miterlimit="10" stroke-linejoin="round"/>
</svg>
