<svg width="12" height="12" viewBox="0 0 12 12" fill="none" xmlns="http://www.w3.org/2000/svg">
<path d="M6.56191 2.35323L9.64365 5.43496L3.78403 11.2946C3.58126 11.0917 3.46674 10.8171 3.46536 10.5303C3.46397 10.2435 3.57584 9.96773 3.77664 9.76295L3.77479 9.7611C3.57315 9.96715 3.29792 10.0847 3.00965 10.0878C2.72137 10.0909 2.44367 9.97938 2.23762 9.77775C2.03157 9.57611 1.91406 9.30088 1.91094 9.01261C1.90782 8.72433 2.01934 8.44662 2.22098 8.24058L2.21605 8.23565C2.01028 8.42907 1.73736 8.53491 1.45499 8.53076C1.17261 8.52662 0.902915 8.41284 0.702913 8.21346L6.56191 2.35323ZM11.2375 2.09806L9.89881 0.759354C9.66765 0.528259 9.35417 0.398438 9.0273 0.398438C8.70043 0.398438 8.38695 0.528259 8.15578 0.759354L7.17826 1.73688L10.26 4.81862L11.2375 3.84109C11.4686 3.60993 11.5984 3.29644 11.5984 2.96957C11.5984 2.64271 11.4686 2.32922 11.2375 2.09806ZM0.398438 9.74939V11.5984H2.24748C2.24748 11.108 2.05267 10.6377 1.70591 10.291C1.35914 9.9442 0.888834 9.74939 0.398438 9.74939Z" fill="black"/>
</svg>
