<svg width="13" height="13" viewBox="0 0 13 13" fill="none" xmlns="http://www.w3.org/2000/svg">
<path d="M0.499947 1.40087C0.499947 1.89841 0.90346 2.30174 1.40122 2.30174C1.89898 2.30174 2.30249 1.89841 2.30249 1.40087C2.30249 0.903334 1.89898 0.5 1.40122 0.5C0.90346 0.5 0.499947 0.903334 0.499947 1.40087Z" fill="#292929" stroke="#292929"/>
<path d="M5.20014 1.40087C5.20014 1.89841 5.60366 2.30174 6.10141 2.30174C6.59917 2.30174 7.00269 1.89841 7.00269 1.40087C7.00269 0.903334 6.59917 0.5 6.10141 0.5C5.60366 0.5 5.20014 0.903334 5.20014 1.40087Z" fill="#292929" stroke="#292929"/>
<path d="M9.89741 1.40087C9.89741 1.89841 10.3009 2.30174 10.7987 2.30174C11.2964 2.30174 11.7 1.89841 11.7 1.40087C11.7 0.903334 11.2964 0.5 10.7987 0.5C10.3009 0.5 9.89741 0.903334 9.89741 1.40087Z" fill="#292929" stroke="#292929"/>
<path d="M0.499947 6.10009C0.499947 6.59763 0.90346 7.00096 1.40122 7.00096C1.89898 7.00096 2.30249 6.59763 2.30249 6.10009C2.30249 5.60255 1.89898 5.19922 1.40122 5.19922C0.90346 5.19922 0.499947 5.60255 0.499947 6.10009Z" fill="#292929" stroke="#292929"/>
<path d="M5.20014 6.10009C5.20014 6.59763 5.60366 7.00096 6.10141 7.00096C6.59917 7.00096 7.00269 6.59763 7.00269 6.10009C7.00269 5.60255 6.59917 5.19922 6.10141 5.19922C5.60366 5.19922 5.20014 5.60255 5.20014 6.10009Z" fill="#292929" stroke="#292929"/>
<path d="M9.89741 6.10009C9.89741 6.59763 10.3009 7.00096 10.7987 7.00096C11.2964 7.00096 11.7 6.59763 11.7 6.10009C11.7 5.60255 11.2964 5.19922 10.7987 5.19922C10.3009 5.19922 9.89741 5.60255 9.89741 6.10009Z" fill="#292929" stroke="#292929"/>
<path d="M0.499947 10.7993C0.499947 11.2968 0.90346 11.7002 1.40122 11.7002C1.89898 11.7002 2.30249 11.2968 2.30249 10.7993C2.30249 10.3018 1.89898 9.89844 1.40122 9.89844C0.90346 9.89844 0.499947 10.3018 0.499947 10.7993Z" fill="#292929" stroke="#292929"/>
<path d="M5.20014 10.7993C5.20014 11.2968 5.60366 11.7002 6.10141 11.7002C6.59917 11.7002 7.00269 11.2968 7.00269 10.7993C7.00269 10.3018 6.59917 9.89844 6.10141 9.89844C5.60366 9.89844 5.20014 10.3018 5.20014 10.7993Z" fill="#292929" stroke="#292929"/>
<path d="M9.89741 10.7993C9.89741 11.2968 10.3009 11.7002 10.7987 11.7002C11.2964 11.7002 11.7 11.2968 11.7 10.7993C11.7 10.3018 11.2964 9.89844 10.7987 9.89844C10.3009 9.89844 9.89741 10.3018 9.89741 10.7993Z" fill="#292929" stroke="#292929"/>
</svg>
