<svg width="10" height="12" viewBox="0 0 10 12" fill="none" xmlns="http://www.w3.org/2000/svg">
<path d="M7.96797 2.09086C7.02453 1.38061 5.87764 0.996746 4.69905 0.996746C3.52045 0.996746 2.37356 1.38061 1.43012 2.09086H2.47039V3.08698H0V0.248041H0.990733V1.17991C2.0765 0.411987 3.37163 -8.91324e-05 4.69912 1.44612e-08C6.02662 8.91614e-05 7.3217 0.412339 8.40736 1.18041L8.40835 0.248041L9.39908 0.248539L9.3976 3.08748H6.9282V2.09136L7.96797 2.09086Z" fill="#292929"/>
<path d="M4.69989 1.89453C4.40297 1.89453 4.11821 2.01312 3.90826 2.22422C3.69831 2.43531 3.58036 2.72161 3.58036 3.02014V7.03649L2.25476 6.77252C2.0742 6.73683 1.88717 6.75572 1.71728 6.82682C1.54738 6.89791 1.40225 7.01801 1.30019 7.17196L0.82959 7.8817L2.95917 10.6668C3.08679 10.8335 3.25074 10.9684 3.43838 11.0613C3.62603 11.1542 3.83238 11.2026 4.04155 11.2028H7.55171C8.13971 11.2028 8.66133 10.8242 8.84709 10.2639L9.73033 7.5993C9.82921 7.30017 9.82282 6.97595 9.71226 6.68099C9.60169 6.38602 9.39366 6.13822 9.12301 5.97911L7.32731 4.92522C7.11827 4.80281 6.88066 4.73836 6.63875 4.73845H5.81991V3.02014C5.81991 2.87229 5.79094 2.72587 5.73464 2.58928C5.67835 2.45268 5.59584 2.32857 5.49183 2.22404C5.38782 2.11951 5.26435 2.03661 5.12846 1.98007C4.99258 1.92353 4.84695 1.89447 4.69989 1.89453Z" fill="#292929"/>
</svg>
