<svg width="18" height="23" viewBox="0 0 18 23" fill="none" xmlns="http://www.w3.org/2000/svg">
<path d="M4.75021 13.9286C4.58918 13.9286 4.43476 13.8647 4.32089 13.7508C4.20703 13.637 4.14307 13.4825 4.14307 13.3215C4.14307 13.1605 4.20703 13.006 4.32089 12.8922C4.43476 12.7783 4.58918 12.7144 4.75021 12.7144H13.2502C13.4112 12.7144 13.5657 12.7783 13.6795 12.8922C13.7934 13.006 13.8574 13.1605 13.8574 13.3215C13.8574 13.4825 13.7934 13.637 13.6795 13.7508C13.5657 13.8647 13.4112 13.9286 13.2502 13.9286H4.75021ZM4.75021 17.5715C4.58918 17.5715 4.43476 17.5075 4.32089 17.3937C4.20703 17.2798 4.14307 17.1254 4.14307 16.9644C4.14307 16.8033 4.20703 16.6489 4.32089 16.535C4.43476 16.4212 4.58918 16.3572 4.75021 16.3572H13.2502C13.4112 16.3572 13.5657 16.4212 13.6795 16.535C13.7934 16.6489 13.8574 16.8033 13.8574 16.9644C13.8574 17.1254 13.7934 17.2798 13.6795 17.3937C13.5657 17.5075 13.4112 17.5715 13.2502 17.5715H4.75021Z" fill="#696969"/>
<path fill-rule="evenodd" clip-rule="evenodd" d="M10.4389 0.571289H2.32143C1.83836 0.571289 1.37507 0.763189 1.03348 1.10477C0.6919 1.44636 0.5 1.90964 0.5 2.39272V20.607C0.5 21.0901 0.6919 21.5534 1.03348 21.8949C1.37507 22.2365 1.83836 22.4284 2.32143 22.4284H15.6786C16.1616 22.4284 16.6249 22.2365 16.9665 21.8949C17.3081 21.5534 17.5 21.0901 17.5 20.607V8.10229C17.4999 7.64629 17.3287 7.20692 17.0204 6.871L11.7819 1.16143C11.6112 0.975337 11.4037 0.826775 11.1725 0.725181C10.9413 0.623587 10.6915 0.57118 10.4389 0.571289ZM1.71429 2.39272C1.71429 2.23169 1.77825 2.07726 1.89211 1.9634C2.00598 1.84954 2.1604 1.78557 2.32143 1.78557H10.4389C10.5232 1.78548 10.6065 1.80292 10.6837 1.83679C10.7608 1.87066 10.83 1.92021 10.887 1.98229L16.1254 7.69186C16.2284 7.80377 16.2856 7.95024 16.2857 8.10229V20.607C16.2857 20.768 16.2217 20.9225 16.1079 21.0363C15.994 21.1502 15.8396 21.2141 15.6786 21.2141H2.32143C2.1604 21.2141 2.00598 21.1502 1.89211 21.0363C1.77825 20.9225 1.71429 20.768 1.71429 20.607V2.39272Z" fill="#696969"/>
<path d="M10.2143 7.857H16.8929C17.0539 7.857 17.2083 7.92097 17.3222 8.03483C17.436 8.14869 17.5 8.30312 17.5 8.46415C17.5 8.62517 17.436 8.7796 17.3222 8.89346C17.2083 9.00732 17.0539 9.07129 16.8929 9.07129H9.60714C9.44612 9.07129 9.29169 9.00732 9.17783 8.89346C9.06397 8.7796 9 8.62517 9 8.46415V1.17843C9 1.01741 9.06397 0.862978 9.17783 0.749117C9.29169 0.635256 9.44612 0.571289 9.60714 0.571289C9.76817 0.571289 9.9226 0.635256 10.0365 0.749117C10.1503 0.862978 10.2143 1.01741 10.2143 1.17843V7.857Z" fill="#696969"/>
</svg>
