<svg width="186" height="179" viewBox="0 0 186 179" fill="none" xmlns="http://www.w3.org/2000/svg">
<path opacity="0.7" d="M20.2361 55.5487C20.2361 55.5487 9.01155 84.536 24.7855 113.725C40.5594 142.913 73.0493 158.333 99.0534 171.518C125.057 184.703 152.06 178.282 164.891 156.686C177.722 135.091 160.124 119.675 160.1 88.8801C160.076 58.0851 164.71 49.9324 148.022 23.9163C131.334 -2.09983 90.4256 -7.86105 59.4897 11.4356C28.5538 30.7323 20.2361 55.5487 20.2361 55.5487Z" fill="white"/>
<path d="M87.548 2.65822C137.471 -1.7704 137.571 26.3835 160.073 52.6331C182.574 78.8828 187.385 90.7796 178.89 121.039C170.395 151.299 141.851 175.016 106.478 161.577C71.1058 148.138 50.863 161.042 28.5629 149.096C6.26279 137.151 -2.03482 114.106 14.3027 86.9308C30.6403 59.7552 25.9742 8.14165 87.548 2.65822Z" fill="#B148F3"/>
<path opacity="0.7" d="M87.548 2.65822C137.471 -1.7704 137.571 26.3835 160.073 52.6331C182.574 78.8828 187.385 90.7796 178.89 121.039C170.395 151.299 141.851 175.016 106.478 161.577C71.1058 148.138 50.863 161.042 28.5629 149.096C6.26279 137.151 -2.03482 114.106 14.3027 86.9308C30.6403 59.7552 25.9742 8.14165 87.548 2.65822Z" fill="white"/>
<path d="M120.79 14.705L42.3203 23.4375L54.4596 132.521L132.929 123.789L120.79 14.705Z" fill="white" stroke="#263238" stroke-width="0.67808" stroke-linecap="round" stroke-linejoin="round"/>
<path d="M120.79 14.705L42.3203 23.4375L43.9999 38.5305L122.47 29.798L120.79 14.705Z" fill="#B148F3" stroke="#263238" stroke-width="0.67808" stroke-linecap="round" stroke-linejoin="round"/>
<path d="M98.9854 21.6593L65.1106 25.4277C64.9531 25.4355 64.799 25.4754 64.6575 25.5448C64.516 25.6142 64.3902 25.7118 64.2876 25.8315C64.1851 25.9512 64.1081 26.0905 64.0612 26.241C64.0144 26.3915 63.9987 26.5499 64.0151 26.7067C64.0316 26.8634 64.0798 27.0152 64.1568 27.1527C64.2339 27.2901 64.3382 27.4105 64.4633 27.5063C64.5884 27.6021 64.7318 27.6714 64.8846 27.71C65.0374 27.7485 65.1965 27.7555 65.3521 27.7306L99.227 23.9622C99.5234 23.9174 99.7909 23.7595 99.9734 23.5217C100.156 23.2839 100.239 22.9847 100.206 22.6868C100.173 22.3889 100.025 22.1155 99.7946 21.9239C99.5641 21.7324 99.2683 21.6375 98.9693 21.6593H98.9854Z" fill="white"/>
<path d="M91.0434 27.3336L74.11 29.2177C74.0344 29.2252 73.961 29.2477 73.8942 29.2839C73.8274 29.3201 73.7684 29.3693 73.7208 29.4285C73.6732 29.4877 73.6379 29.5558 73.6169 29.6289C73.596 29.7019 73.5898 29.7784 73.5987 29.8539C73.6149 30.0064 73.691 30.1464 73.8102 30.243C73.9295 30.3396 74.0822 30.385 74.2348 30.3692L91.1722 28.485C91.3204 28.4626 91.4542 28.3837 91.5454 28.2648C91.6367 28.1459 91.6784 27.9963 91.6617 27.8473C91.645 27.6984 91.5713 27.5617 91.4561 27.4659C91.3408 27.3701 91.1929 27.3227 91.0434 27.3336Z" fill="white"/>
<path opacity="0.3" d="M103.701 40.3816L59.3138 45.3175C59.2001 45.3303 59.0962 45.3878 59.0248 45.4773C58.9535 45.5667 58.9206 45.6809 58.9334 45.7946C58.9462 45.9083 59.0037 46.0123 59.0931 46.0836C59.1826 46.155 59.2967 46.1879 59.4105 46.1751L103.785 41.2392C103.899 41.2264 104.003 41.1689 104.074 41.0794C104.146 40.9899 104.178 40.8758 104.166 40.7621C104.153 40.6484 104.095 40.5444 104.006 40.473C103.916 40.4017 103.802 40.3688 103.689 40.3816H103.701Z" fill="black"/>
<path opacity="0.3" d="M104.045 43.4622L53.0111 49.1389C52.8974 49.1517 52.7934 49.2092 52.7221 49.2986C52.6507 49.3881 52.6178 49.5023 52.6306 49.616C52.6435 49.7297 52.7009 49.8337 52.7904 49.905C52.8799 49.9764 52.994 50.0093 53.1077 49.9964L104.141 44.3198C104.2 44.3163 104.256 44.3011 104.308 44.275C104.36 44.249 104.407 44.2127 104.444 44.1683C104.482 44.1239 104.51 44.0723 104.527 44.0167C104.544 43.9611 104.55 43.9026 104.544 43.8447C104.538 43.7863 104.52 43.7297 104.491 43.6785C104.462 43.6273 104.423 43.5824 104.376 43.5467C104.33 43.5109 104.276 43.485 104.219 43.4705C104.162 43.456 104.103 43.4532 104.045 43.4622Z" fill="black"/>
<path opacity="0.3" d="M91.0657 48.028L53.35 52.2231C53.2363 52.236 53.1323 52.2934 53.0609 52.3829C52.9896 52.4724 52.9567 52.5865 52.9695 52.7002C52.9823 52.8139 53.0398 52.9179 53.1293 52.9893C53.2187 53.0606 53.3329 53.0935 53.4466 53.0807L91.1583 48.8856C91.2164 48.8821 91.2732 48.8669 91.3252 48.8408C91.3772 48.8148 91.4235 48.7785 91.4611 48.7341C91.4987 48.6897 91.527 48.6381 91.5441 48.5825C91.5613 48.5269 91.567 48.4684 91.5609 48.4105C91.5545 48.3525 91.5364 48.2963 91.5078 48.2454C91.4793 48.1945 91.4407 48.1498 91.3945 48.1141C91.3483 48.0784 91.2953 48.0524 91.2388 48.0376C91.1824 48.0228 91.1235 48.0196 91.0657 48.028Z" fill="black"/>
<path opacity="0.3" d="M114.954 38.7442L110.453 39.2452C109.847 39.3126 109.411 39.858 109.478 40.4635L109.979 44.965C110.047 45.5705 110.592 46.0068 111.198 45.9394L115.699 45.4384C116.305 45.3711 116.741 44.8256 116.674 44.2201L116.173 39.7186C116.105 39.1131 115.56 38.6769 114.954 38.7442Z" stroke="#263238" stroke-width="0.67808" stroke-linecap="round" stroke-linejoin="round"/>
<path d="M111.256 42.2034L112.737 43.6005L114.686 40.6172" stroke="#B148F3" stroke-width="2.03424" stroke-linecap="round" stroke-linejoin="round"/>
<path opacity="0.3" d="M105.324 54.9715L60.9496 59.9074C60.8359 59.9202 60.7319 59.9776 60.6605 60.0671C60.5892 60.1566 60.5563 60.2707 60.5691 60.3844C60.5819 60.4982 60.6394 60.6021 60.7289 60.6735C60.8183 60.7448 60.9325 60.7777 61.0462 60.7649L105.421 55.829C105.477 55.8227 105.532 55.8053 105.581 55.7779C105.631 55.7505 105.675 55.7136 105.71 55.6693C105.745 55.625 105.772 55.5741 105.787 55.5197C105.803 55.4652 105.808 55.4082 105.801 55.3519C105.795 55.2956 105.778 55.2411 105.75 55.1915C105.723 55.1419 105.686 55.0982 105.642 55.0629C105.597 55.0276 105.547 55.0013 105.492 54.9856C105.438 54.9699 105.381 54.9651 105.324 54.9715Z" fill="black"/>
<path opacity="0.3" d="M105.668 58.0535L54.6341 63.7302C54.5778 63.7365 54.5233 63.7539 54.4737 63.7813C54.4241 63.8087 54.3804 63.8456 54.3451 63.8899C54.3098 63.9342 54.2835 63.9851 54.2678 64.0395C54.2522 64.094 54.2473 64.151 54.2537 64.2073C54.26 64.2636 54.2774 64.3181 54.3048 64.3677C54.3322 64.4173 54.3691 64.461 54.4134 64.4963C54.4577 64.5316 54.5086 64.5579 54.563 64.5736C54.6175 64.5893 54.6745 64.5941 54.7308 64.5877L105.765 58.911C105.878 58.8982 105.982 58.8408 106.054 58.7513C106.125 58.6618 106.158 58.5477 106.145 58.434C106.132 58.3202 106.075 58.2163 105.985 58.1449C105.896 58.0736 105.782 58.0407 105.668 58.0535Z" fill="black"/>
<path opacity="0.3" d="M92.6907 62.614L54.975 66.8091C54.8613 66.8219 54.7573 66.8794 54.6859 66.9688C54.6146 67.0583 54.5817 67.1724 54.5945 67.2862C54.6073 67.3999 54.6648 67.5038 54.7543 67.5752C54.8437 67.6465 54.9579 67.6794 55.0716 67.6666L92.7833 63.4715C92.8414 63.468 92.8982 63.4528 92.9502 63.4268C93.0022 63.4007 93.0485 63.3644 93.0861 63.32C93.1237 63.2756 93.152 63.2241 93.1691 63.1684C93.1863 63.1128 93.192 63.0543 93.1859 62.9964C93.1795 62.9384 93.1614 62.8822 93.1328 62.8313C93.1043 62.7804 93.0657 62.7358 93.0195 62.7001C92.9733 62.6644 92.9203 62.6383 92.8638 62.6236C92.8074 62.6088 92.7485 62.6055 92.6907 62.614Z" fill="black"/>
<path opacity="0.3" d="M116.579 53.3341L112.078 53.835C111.472 53.9024 111.036 54.4479 111.103 55.0534L111.604 59.5549C111.672 60.1604 112.217 60.5966 112.823 60.5292L117.324 60.0283C117.93 59.9609 118.366 59.4154 118.299 58.8099L117.798 54.3084C117.73 53.7029 117.185 53.2667 116.579 53.3341Z" stroke="#263238" stroke-width="0.67808" stroke-linecap="round" stroke-linejoin="round"/>
<path d="M112.883 56.8011L114.36 58.1981L116.309 55.2148" stroke="#B148F3" stroke-width="2.03424" stroke-linecap="round" stroke-linejoin="round"/>
<path opacity="0.3" d="M106.947 69.5656L62.5719 74.5015C62.4654 74.522 62.3706 74.5819 62.3063 74.6693C62.2421 74.7567 62.2132 74.8652 62.2254 74.9729C62.2376 75.0807 62.29 75.1799 62.3721 75.2507C62.4543 75.3216 62.5601 75.3588 62.6685 75.355L107.043 70.411C107.1 70.4047 107.154 70.3873 107.204 70.3599C107.253 70.3325 107.297 70.2956 107.332 70.2513C107.368 70.207 107.394 70.1562 107.41 70.1017C107.425 70.0473 107.43 69.9903 107.424 69.934C107.417 69.8776 107.4 69.8231 107.373 69.7735C107.345 69.724 107.308 69.6802 107.264 69.6449C107.22 69.6096 107.169 69.5833 107.114 69.5676C107.06 69.552 107.003 69.5471 106.947 69.5535V69.5656Z" fill="black"/>
<path opacity="0.3" d="M107.291 72.6459L56.253 78.3225C56.1966 78.328 56.1419 78.3448 56.0921 78.3718C56.0423 78.3988 55.9985 78.4356 55.9632 78.4799C55.9279 78.5242 55.9018 78.5752 55.8866 78.6298C55.8714 78.6843 55.8673 78.7414 55.8746 78.7976C55.8806 78.8539 55.8977 78.9085 55.9248 78.9583C55.952 79.008 55.9887 79.0519 56.0328 79.0874C56.0769 79.1229 56.1276 79.1494 56.182 79.1653C56.2364 79.1812 56.2933 79.1862 56.3497 79.1801L107.383 73.5034C107.442 73.4994 107.499 73.4837 107.551 73.4572C107.603 73.4308 107.649 73.3941 107.686 73.3494C107.724 73.3046 107.752 73.2528 107.769 73.197C107.786 73.1411 107.792 73.0824 107.786 73.0243C107.78 72.9664 107.762 72.9104 107.733 72.8596C107.704 72.8089 107.666 72.7645 107.619 72.7291C107.573 72.6938 107.52 72.6681 107.464 72.6538C107.407 72.6395 107.348 72.6368 107.291 72.6459Z" fill="black"/>
<path opacity="0.3" d="M94.3137 77.2057L56.598 81.4008C56.4843 81.4137 56.3803 81.4711 56.309 81.5606C56.2376 81.6501 56.2047 81.7642 56.2176 81.8779C56.2304 81.9916 56.2878 82.0956 56.3773 82.167C56.4668 82.2383 56.5809 82.2712 56.6946 82.2584L94.4063 78.0593C94.52 78.047 94.6242 77.99 94.6959 77.9009C94.7677 77.8118 94.8011 77.6979 94.7888 77.5842C94.7765 77.4705 94.7196 77.3663 94.6305 77.2946C94.5414 77.2228 94.4274 77.1894 94.3137 77.2017V77.2057Z" fill="black"/>
<path opacity="0.3" d="M118.204 67.92L113.703 68.421C113.097 68.4883 112.661 69.0338 112.728 69.6393L113.229 74.1408C113.297 74.7463 113.842 75.1825 114.448 75.1152L118.949 74.6142C119.555 74.5468 119.991 74.0013 119.924 73.3958L119.423 68.8944C119.355 68.2889 118.81 67.8526 118.204 67.92Z" stroke="#263238" stroke-width="0.67808" stroke-linecap="round" stroke-linejoin="round"/>
<path d="M114.505 71.3832L115.982 72.7803L117.935 69.793" stroke="#B148F3" stroke-width="2.03424" stroke-linecap="round" stroke-linejoin="round"/>
<path opacity="0.3" d="M108.567 84.1523L64.192 89.0882C64.0855 89.1087 63.9907 89.1687 63.9264 89.2561C63.8622 89.3435 63.8333 89.4519 63.8455 89.5597C63.8577 89.6674 63.9101 89.7666 63.9923 89.8375C64.0744 89.9083 64.1802 89.9455 64.2886 89.9417L108.663 85.0058C108.723 85.0038 108.781 84.9894 108.835 84.9637C108.888 84.9381 108.936 84.9016 108.975 84.8566C109.013 84.8116 109.042 84.7591 109.06 84.7024C109.077 84.6456 109.083 84.5859 109.076 84.5269C109.07 84.4678 109.051 84.4109 109.021 84.3595C108.991 84.3081 108.951 84.2634 108.903 84.2282C108.856 84.193 108.801 84.1681 108.743 84.1551C108.685 84.142 108.625 84.1411 108.567 84.1523Z" fill="black"/>
<path opacity="0.3" d="M108.916 87.2331L57.878 92.9097C57.8216 92.9152 57.7669 92.932 57.7171 92.959C57.6673 92.986 57.6235 93.0228 57.5882 93.0671C57.5529 93.1114 57.5268 93.1624 57.5116 93.217C57.4964 93.2715 57.4923 93.3286 57.4996 93.3848C57.5056 93.4411 57.5227 93.4957 57.5498 93.5455C57.577 93.5952 57.6137 93.6391 57.6578 93.6746C57.7019 93.7101 57.7526 93.7366 57.807 93.7525C57.8614 93.7684 57.9183 93.7734 57.9747 93.7673L109.008 88.0906C109.123 88.0775 109.227 88.0197 109.298 87.9299C109.37 87.8402 109.403 87.7257 109.391 87.6115C109.378 87.4985 109.32 87.3952 109.231 87.3243C109.142 87.2534 109.029 87.2206 108.916 87.2331Z" fill="black"/>
<path opacity="0.3" d="M95.9531 91.7959L58.2374 95.9911C58.181 95.9965 58.1263 96.0133 58.0765 96.0403C58.0267 96.0673 57.9829 96.1041 57.9476 96.1484C57.9123 96.1927 57.8862 96.2437 57.871 96.2983C57.8558 96.3529 57.8517 96.4099 57.859 96.4661C57.865 96.5225 57.8821 96.577 57.9092 96.6268C57.9364 96.6765 57.973 96.7204 58.0172 96.7559C58.0613 96.7914 58.112 96.8179 58.1664 96.8338C58.2207 96.8497 58.2777 96.8547 58.334 96.8486L96.0457 92.6535C96.1021 92.6475 96.1567 92.6304 96.2064 92.6032C96.2561 92.5761 96.3 92.5394 96.3355 92.4953C96.371 92.4512 96.3975 92.4005 96.4134 92.3461C96.4293 92.2917 96.4343 92.2347 96.4282 92.1784C96.4227 92.1219 96.406 92.067 96.379 92.017C96.352 91.967 96.3153 91.9229 96.2711 91.8873C96.2268 91.8517 96.1759 91.8253 96.1213 91.8096C96.0667 91.7939 96.0095 91.7892 95.9531 91.7959Z" fill="black"/>
<path opacity="0.3" d="M119.827 82.5099L115.326 83.0108C114.72 83.0782 114.284 83.6237 114.352 84.2292L114.852 88.7307C114.92 89.3362 115.465 89.7724 116.071 89.705L120.572 89.2041C121.178 89.1367 121.614 88.5912 121.547 87.9857L121.046 83.4842C120.978 82.8787 120.433 82.4425 119.827 82.5099Z" stroke="#263238" stroke-width="0.67808" stroke-linecap="round" stroke-linejoin="round"/>
<path d="M116.126 85.973L117.604 87.37L119.556 84.3867" stroke="#B148F3" stroke-width="2.03424" stroke-linecap="round" stroke-linejoin="round"/>
<path opacity="0.3" d="M110.198 98.7404L65.8234 103.676C65.7671 103.682 65.7126 103.7 65.6629 103.727C65.6132 103.754 65.5693 103.791 65.5338 103.835C65.4983 103.879 65.4718 103.929 65.4559 103.984C65.44 104.038 65.4349 104.095 65.441 104.151C65.447 104.208 65.4642 104.262 65.4913 104.312C65.5185 104.362 65.5552 104.406 65.5993 104.441C65.6434 104.477 65.6941 104.503 65.7484 104.519C65.8028 104.535 65.8597 104.54 65.916 104.534L110.291 99.598C110.347 99.592 110.402 99.5749 110.451 99.5477C110.501 99.5206 110.545 99.4839 110.581 99.4398C110.616 99.3956 110.643 99.3449 110.658 99.2906C110.674 99.2362 110.679 99.1792 110.673 99.1229C110.66 99.0096 110.603 98.906 110.514 98.8344C110.425 98.7629 110.312 98.7291 110.198 98.7404Z" fill="black"/>
<path opacity="0.3" d="M110.538 101.813L59.5007 107.489C59.4413 107.491 59.383 107.506 59.3295 107.531C59.2759 107.557 59.2283 107.594 59.1895 107.639C59.1507 107.683 59.1216 107.736 59.1041 107.793C59.0866 107.85 59.081 107.909 59.0877 107.968C59.0944 108.027 59.1132 108.084 59.1429 108.136C59.1727 108.187 59.2128 108.232 59.2606 108.267C59.3085 108.302 59.3631 108.327 59.421 108.34C59.479 108.353 59.539 108.354 59.5973 108.343L110.631 102.666C110.691 102.665 110.749 102.651 110.803 102.626C110.857 102.6 110.905 102.564 110.945 102.519C110.984 102.474 111.014 102.422 111.032 102.365C111.049 102.308 111.055 102.248 111.049 102.189C111.043 102.13 111.024 102.072 110.994 102.021C110.964 101.969 110.924 101.924 110.876 101.889C110.828 101.853 110.774 101.828 110.715 101.815C110.657 101.802 110.597 101.801 110.538 101.813Z" fill="black"/>
<path opacity="0.3" d="M97.5637 106.39L59.848 110.585C59.7343 110.598 59.6303 110.655 59.559 110.745C59.4876 110.834 59.4547 110.948 59.4676 111.062C59.4804 111.176 59.5378 111.28 59.6273 111.351C59.7168 111.422 59.8309 111.455 59.9446 111.442L97.6603 107.247C97.7737 107.233 97.877 107.175 97.9478 107.085C98.0186 106.996 98.0513 106.882 98.0388 106.768C98.0328 106.712 98.0157 106.658 97.9885 106.608C97.9613 106.559 97.9245 106.515 97.8803 106.48C97.8362 106.444 97.7854 106.418 97.7311 106.403C97.6767 106.388 97.6198 106.383 97.5637 106.39Z" fill="black"/>
<path opacity="0.3" d="M121.452 97.1075L116.951 97.6085C116.345 97.6758 115.909 98.2213 115.976 98.8268L116.477 103.328C116.545 103.934 117.09 104.37 117.696 104.303L122.197 103.802C122.803 103.734 123.239 103.189 123.172 102.583L122.671 98.0819C122.603 97.4764 122.058 97.0401 121.452 97.1075Z" stroke="#263238" stroke-width="0.67808" stroke-linecap="round" stroke-linejoin="round"/>
<path d="M117.748 100.563L119.226 101.96L121.178 98.9766" stroke="#B148F3" stroke-width="2.03424" stroke-linecap="round" stroke-linejoin="round"/>
<path opacity="0.3" d="M111.431 109.862L67.056 114.806C66.9423 114.819 66.8383 114.876 66.767 114.966C66.6956 115.055 66.6628 115.169 66.6756 115.283C66.6884 115.397 66.7458 115.501 66.8353 115.572C66.9248 115.643 67.0389 115.676 67.1526 115.663L111.527 110.727C111.584 110.722 111.639 110.705 111.688 110.678C111.738 110.651 111.782 110.614 111.817 110.57C111.853 110.526 111.879 110.475 111.894 110.42C111.909 110.366 111.913 110.309 111.906 110.252C111.901 110.195 111.884 110.14 111.858 110.089C111.831 110.039 111.794 109.994 111.75 109.957C111.706 109.921 111.655 109.894 111.6 109.877C111.545 109.861 111.488 109.856 111.431 109.862Z" fill="black"/>
<path opacity="0.3" d="M111.774 112.953L60.7398 118.63C60.6802 118.632 60.6215 118.645 60.5675 118.671C60.5135 118.696 60.4654 118.732 60.4261 118.777C60.3868 118.822 60.3572 118.874 60.3393 118.931C60.3214 118.988 60.3154 119.048 60.3218 119.107C60.3283 119.166 60.3469 119.224 60.3767 119.275C60.4064 119.327 60.4465 119.372 60.4945 119.407C60.5425 119.443 60.5973 119.468 60.6554 119.481C60.7136 119.494 60.7739 119.495 60.8324 119.484L111.87 113.807C111.977 113.786 112.072 113.726 112.136 113.639C112.2 113.552 112.229 113.443 112.217 113.335C112.204 113.228 112.152 113.128 112.07 113.058C111.988 112.987 111.882 112.95 111.774 112.953Z" fill="black"/>
<path opacity="0.3" d="M98.793 117.511L61.0813 121.706C61.025 121.712 60.9704 121.729 60.9207 121.756C60.8709 121.783 60.827 121.82 60.7915 121.864C60.756 121.908 60.7295 121.959 60.7136 122.013C60.6977 122.067 60.6927 122.124 60.6988 122.181C60.712 122.295 60.7697 122.399 60.8595 122.471C60.9493 122.542 61.0637 122.576 61.1779 122.563L98.8896 118.368C98.9459 118.362 99.0004 118.344 99.05 118.317C99.0996 118.29 99.1433 118.253 99.1786 118.208C99.214 118.164 99.2402 118.113 99.2559 118.059C99.2716 118.004 99.2764 117.947 99.2701 117.891C99.2637 117.835 99.2463 117.78 99.2189 117.731C99.1915 117.681 99.1546 117.637 99.1103 117.602C99.066 117.567 99.0152 117.54 98.9607 117.525C98.9063 117.509 98.8493 117.504 98.793 117.511Z" fill="black"/>
<path opacity="0.3" d="M122.689 108.233L118.187 108.733C117.582 108.801 117.145 109.346 117.213 109.952L117.714 114.453C117.781 115.059 118.327 115.495 118.932 115.428L123.434 114.927C124.039 114.859 124.475 114.314 124.408 113.708L123.907 109.207C123.84 108.601 123.294 108.165 122.689 108.233Z" stroke="#263238" stroke-width="0.67808" stroke-linecap="round" stroke-linejoin="round"/>
<path d="M118.987 111.696L120.465 113.093L122.417 110.109" stroke="#B148F3" stroke-width="2.03424" stroke-linecap="round" stroke-linejoin="round"/>
<path d="M75.0161 80.2838C75.0608 79.7519 74.929 79.2201 74.6413 78.7705L74.0721 77.7617L72.9429 78.4003L73.5584 79.4832C73.8638 80.0246 73.7389 80.3578 73.3594 80.5707C72.9799 80.7836 72.6282 80.728 72.3228 80.1866L71.0039 77.845L69.5879 78.1227L71.0965 80.7836C71.786 82.0006 72.7856 82.3477 73.9564 81.7091C74.1425 81.6023 74.315 81.4733 74.47 81.325C74.4043 81.1725 74.3927 81.002 74.4373 80.842C74.482 80.6821 74.5801 80.5422 74.7153 80.4457C74.806 80.3756 74.9076 80.3209 75.0161 80.2838Z" fill="#B148F3"/>
<path d="M68.8647 76.8438L69.1331 77.3065H70.6926L70.0124 76.1033C69.7069 75.5619 69.8272 75.2195 70.2067 75.0066C70.5862 74.7937 70.9425 74.8585 71.2479 75.4046L71.7107 76.2144L72.8352 75.5758L72.4187 74.84C71.7292 73.6276 70.7296 73.2759 69.5588 73.9422C69.2901 74.0872 69.0514 74.2819 68.8554 74.5161C69.1214 74.6015 69.4 74.6407 69.6792 74.6318L68.5685 75.0482C68.4871 75.3514 68.4715 75.6684 68.5225 75.978C68.5736 76.2877 68.6903 76.5829 68.8647 76.8438Z" fill="#B148F3"/>
<path d="M77.5129 71.9138C77.6613 71.8396 77.8162 71.7792 77.9757 71.7333C78.5727 71.4649 78.7069 70.6042 78.656 69.9979L78.0405 69.2344L76.3838 70.1599L77.4204 71.9832C77.4475 71.9554 77.4787 71.932 77.5129 71.9138Z" fill="#B148F3"/>
<path d="M84.5675 75.5273L85.692 74.8886L81.393 67.3086L80.324 67.9102C80.6664 67.9935 80.9117 68.1554 80.9209 68.4053C80.5878 68.4516 80.1805 68.4053 79.8196 68.4701L81.9853 74.0834L79.2457 70.6683C79.2532 70.7439 79.2418 70.8202 79.2128 70.8904C79.1837 70.9606 79.1378 71.0226 79.0791 71.0709C78.9542 71.1588 78.7737 71.1588 78.6765 71.2745C78.5794 71.3902 78.5932 71.529 78.5099 71.6308C78.4266 71.7326 78.2971 71.7604 78.1953 71.8344C78.0935 71.9085 77.9824 72.0982 77.8667 72.2231C77.8109 72.2819 77.7407 72.325 77.6631 72.3481L80.7081 77.7161L81.7447 77.1238L78.7043 71.765L82.61 76.6333L83.7392 75.9947L81.4577 70.1037L84.5675 75.5273Z" fill="#B148F3"/>
<path d="M87.4169 68.9369C87.4991 68.978 87.5722 69.0353 87.6318 69.1052C87.6915 69.1752 87.7364 69.2564 87.764 69.3441C87.8613 68.7723 87.7372 68.1849 87.4169 67.7013L86.857 66.711C86.1674 65.4986 85.2095 65.17 84.0156 65.8457L82.2617 66.8406L86.5654 74.4253L87.6807 73.7913C87.3197 73.5645 86.9171 73.3702 86.5747 73.1249C86.4139 73.0223 86.2818 72.8806 86.1906 72.7131C86.1473 72.6285 86.1295 72.5332 86.1394 72.4387C86.1493 72.3443 86.1863 72.2547 86.2461 72.1809C86.3245 72.1148 86.42 72.0723 86.5216 72.0584C86.6232 72.0444 86.7266 72.0596 86.8199 72.1022L86.1397 70.899L86.7042 70.5797C87.0146 70.4115 87.2846 70.1778 87.4956 69.8948C87.2596 69.52 86.8477 68.724 87.4169 68.9369ZM86.0888 69.52L85.5242 69.8393L84.0665 67.271L84.6311 66.9517C85.0105 66.7388 85.316 66.7943 85.6214 67.3358L86.2692 68.4742C86.5747 68.9924 86.4682 69.284 86.0888 69.52Z" fill="#B148F3"/>
<path d="M93.7959 70.3189L93.1851 69.236L91.223 70.3466L88.3538 65.2886L88.2243 65.3905C88.1405 65.4681 88.0387 65.5238 87.9281 65.5524C87.8724 65.5649 87.814 65.5569 87.7638 65.5296C87.7136 65.5024 87.675 65.4579 87.6551 65.4043C87.6391 65.3327 87.6391 65.2585 87.6551 65.1868C87.6558 64.7562 87.5197 64.3365 87.2663 63.9883L86.3408 64.5251L90.6399 72.1051L93.7959 70.3189Z" fill="#B148F3"/>
<path d="M93.2618 67.6638C93.3913 67.3259 93.7939 67.201 94.0207 66.8956C94.0409 66.8642 94.0595 66.8318 94.0762 66.7984L93.6135 66.0209L94.7842 65.3592C94.7627 65.2853 94.7248 65.2173 94.6732 65.1602C94.5052 65.0781 94.3258 65.0219 94.141 64.9936C94.1124 64.9361 94.0981 64.8725 94.0991 64.8083C94.1001 64.7441 94.1164 64.681 94.1468 64.6244C94.1771 64.5678 94.2206 64.5192 94.2735 64.4828C94.3264 64.4464 94.3873 64.4232 94.4511 64.4152C94.5297 64.4152 94.6223 64.4152 94.6824 64.3781C94.7246 64.3278 94.7461 64.2633 94.7426 64.1977L94.6362 64.0126L92.998 64.9381L91.8041 62.8279L93.8587 61.6571L93.2432 60.5742L90.0039 62.4253L93.1877 68.0386C93.1933 67.9106 93.2182 67.7842 93.2618 67.6638Z" fill="#B148F3"/>
<path d="M97.5698 68.1805L96.9543 67.0977L94.895 68.2638L94.2795 67.2041L93.5206 67.9167L93.2568 68.1713L94.3212 70.0455L97.5698 68.1805Z" fill="#B148F3"/>
<path d="M96.0378 59.3727C96.0378 59.5346 95.9221 59.7151 95.7648 59.729C95.6847 59.728 95.6052 59.7155 95.5287 59.692C95.3857 59.6946 95.2428 59.6806 95.103 59.6503C95.0727 59.6378 95.0446 59.6207 95.0197 59.5994L93.6592 60.3722L94.2747 61.4597L95.5195 60.7517L99.2216 67.2304L100.411 66.5547L96.7088 60.0761L97.9583 59.368L97.3428 58.2852L96.0655 59.0071C96.0424 59.1274 96.0517 59.2523 96.0378 59.3727Z" fill="#B148F3"/>
<path d="M101.235 63.9584L102.161 65.592L103.41 64.884C103.44 64.802 103.477 64.723 103.521 64.648C103.797 64.246 104.167 63.9185 104.6 63.6947L105.173 63.3383L104.794 62.6627L102.735 63.8335L101.476 61.6122L103.114 60.6867L102.499 59.6038L100.861 60.5294L99.6666 58.4053L101.726 57.2391L101.11 56.1562L97.8711 58.0073L100.208 62.1305C100.773 61.8297 101.055 62.9126 101.235 63.9584Z" fill="#B148F3"/>
<path d="M77.2681 78.9363C77.4625 78.9687 77.5782 79.163 77.7309 79.2926C77.7864 79.3438 77.8507 79.3845 77.9206 79.4129C78.0092 79.3777 78.0957 79.3375 78.1798 79.2926C79.3459 78.6309 79.5912 77.5757 78.9063 76.3587L78.8369 76.2384L77.2357 76.1967L77.7586 77.1222C78.0641 77.6637 77.9438 78.0061 77.5643 78.219C77.1848 78.4319 76.8285 78.3624 76.5231 77.821L74.2093 73.7256C73.8992 73.1841 74.0242 72.8463 74.4036 72.6288C74.7831 72.4113 75.1348 72.4854 75.4448 73.0268L77.0136 75.8034C77.4952 75.6841 77.9891 75.622 78.4852 75.6183L76.6758 72.4298C75.9909 71.2174 74.9589 70.8888 73.7881 71.5506C72.6174 72.2123 72.3721 73.2721 73.0616 74.4845L75.2968 78.4272C75.438 78.7312 75.6491 78.9974 75.9129 79.2041C76.1768 79.4108 76.4857 79.5521 76.8146 79.6165C76.8121 79.5888 76.8121 79.5609 76.8146 79.5332C76.7591 79.2324 76.9812 78.8807 77.2681 78.9363Z" fill="#B148F3"/>
<path d="M93.2478 57.1804L96.8805 55.1211C95.8393 55.408 94.923 56.278 93.8494 56.1577C93.6552 56.1067 93.4512 56.1067 93.2571 56.1577C93.1357 56.2359 93.0483 56.357 93.0123 56.4968C92.9763 56.6366 92.9943 56.7849 93.0627 56.912C93.1096 57.0108 93.1721 57.1014 93.2478 57.1804Z" fill="#B148F3"/>
<path d="M84.1346 62.3404C84.1266 62.2604 84.1427 62.1798 84.1809 62.109C84.2701 62.1401 84.364 62.1557 84.4585 62.1553L85.7126 61.4473C85.9089 61.2252 86.1328 61.0293 86.379 60.8642C86.6167 60.737 86.8682 60.6376 87.1287 60.568L87.4063 60.4847L89.7201 59.1797C89.7445 59.1324 89.7775 59.0901 89.8173 59.0548C89.8531 59.031 89.8921 59.0123 89.933 58.9993L87.5452 58.2773L86.9019 58.6383L86.8325 59.1473L84.0791 60.6189C83.8065 60.7892 83.503 60.904 83.1859 60.9567C83.0676 60.9706 82.948 60.9706 82.8296 60.9567L78.9054 63.1826C78.9366 63.3686 78.9894 63.5503 79.0627 63.7241C78.8325 63.6812 78.6135 63.5914 78.4195 63.4603L77.6143 63.9231C78.1881 64.3025 78.7527 64.6912 79.3033 65.1031L84.1346 62.3404Z" fill="#B148F3"/>
<path d="M100.933 52.8183L99.0355 51.7539L98.1377 52.2629C98.6667 52.8069 99.35 53.1753 100.095 53.318L100.933 52.8183Z" fill="#B148F3"/>
<path d="M111.138 64.0268L103.975 51.398C103.696 50.9097 103.235 50.5514 102.694 50.4014C102.152 50.2514 101.572 50.3219 101.082 50.5974L100.222 51.088L100.55 51.4073C100.893 51.7497 101.244 52.0968 101.564 52.4624L101.999 52.2171C102.059 52.1834 102.13 52.1748 102.197 52.1929C102.263 52.2111 102.32 52.2547 102.355 52.3143L109.523 64.9477C109.556 65.0086 109.564 65.0801 109.545 65.1468C109.526 65.2135 109.482 65.27 109.421 65.3041L99.6709 70.8572C100.513 70.9081 101.365 70.7878 102.207 70.885C102.51 70.9232 102.811 70.9773 103.109 71.0469L110.338 66.9469C110.583 66.8089 110.799 66.6236 110.972 66.4016C111.146 66.1797 111.273 65.9256 111.348 65.654C111.422 65.3824 111.442 65.0987 111.406 64.8194C111.37 64.5401 111.279 64.2707 111.138 64.0268Z" fill="#B148F3"/>
<path d="M67.2403 80.1007L63.8714 74.1495C63.854 74.1195 63.8427 74.0863 63.8382 74.0518C63.8337 74.0174 63.836 73.9824 63.845 73.9489C63.8541 73.9153 63.8696 73.8839 63.8908 73.8564C63.912 73.8289 63.9385 73.8059 63.9686 73.7886L73.6866 68.2725C73.6542 68.1984 73.6126 68.1244 73.5848 68.0503C73.7221 68.0446 73.8595 68.0602 73.992 68.0966L77.9209 65.8707C77.7913 65.8291 77.6664 65.7782 77.5414 65.7319L75.6904 64.9961L74.2095 65.8383L75.82 66.824C75.26 66.4816 74.117 66.4353 73.1313 66.4492L63.0755 72.1735C62.5862 72.4513 62.2271 72.9119 62.077 73.4541C61.9269 73.9963 61.9981 74.576 62.2749 75.0658L65.1995 80.221C65.3338 80.184 65.4726 80.1516 65.6068 80.1284C65.9775 80.0751 66.3525 80.0565 66.7267 80.0729C66.8983 80.0717 67.0698 80.0809 67.2403 80.1007Z" fill="#B148F3"/>
<path d="M79.2446 82.4167C79.4095 82.5644 79.597 82.6847 79.8 82.773C80.0082 82.8655 80.2859 83.0877 80.1239 83.2358C79.3742 83.5782 78.4487 83.3237 77.7129 83.6985C77.3103 83.8929 76.9216 84.277 76.4912 84.1613C77.0118 84.4773 77.4801 84.8723 77.8795 85.3321L96.2558 74.9107C96.2558 74.8366 96.279 74.7626 96.2928 74.6839C96.2933 74.5382 96.3269 74.3946 96.3912 74.2639C96.4555 74.1332 96.5488 74.0189 96.6639 73.9297C96.779 73.8404 96.9129 73.7786 97.0555 73.7489C97.1981 73.7193 97.3456 73.7225 97.4868 73.7584C97.7251 73.7479 97.9637 73.7728 98.1948 73.8324L100.485 72.532C100.171 71.9903 99.7987 71.4845 99.3748 71.0234L79.2446 82.4167Z" fill="#B148F3"/>
<path d="M76.2679 85.4783C75.8247 85.3345 75.4165 85.0997 75.0694 84.7888L71.4043 86.8712C71.3746 86.8885 71.3417 86.8997 71.3077 86.9042C71.2736 86.9086 71.2389 86.9063 71.2058 86.8972C71.1726 86.8882 71.1416 86.8726 71.1145 86.8515C71.0874 86.8303 71.0648 86.804 71.048 86.774L67.8086 81.0959C67.4982 80.9886 67.1681 80.9507 66.8415 80.9848C66.4666 81.0589 66.1381 81.4939 66.3417 81.8132C66.533 81.8181 66.7195 81.8738 66.8822 81.9747C67.0449 82.0755 67.1777 82.2178 67.2672 82.387C67.0676 82.5458 66.8483 82.678 66.6147 82.7804L69.3913 87.6903C69.5292 87.9383 69.7154 88.1562 69.9387 88.3312C70.1621 88.5062 70.4182 88.6347 70.692 88.7093C70.9658 88.7839 71.2517 88.803 71.533 88.7655C71.8142 88.728 72.0852 88.6346 72.3298 88.4909L77.1333 85.7652L77.0778 85.7328C76.8126 85.6334 76.5423 85.5485 76.2679 85.4783Z" fill="#B148F3"/>
<g opacity="0.2">
<path d="M75.0161 80.2838C75.0608 79.7519 74.929 79.2201 74.6413 78.7705L74.0721 77.7617L72.9429 78.4003L73.5584 79.4832C73.8638 80.0246 73.7389 80.3578 73.3594 80.5707C72.9799 80.7836 72.6282 80.728 72.3228 80.1866L71.0039 77.845L69.5879 78.1227L71.0965 80.7836C71.786 82.0006 72.7856 82.3477 73.9564 81.7091C74.1425 81.6023 74.315 81.4733 74.47 81.325C74.4043 81.1725 74.3927 81.002 74.4373 80.842C74.482 80.6821 74.5801 80.5422 74.7153 80.4457C74.806 80.3756 74.9076 80.3209 75.0161 80.2838Z" fill="black"/>
<path d="M68.8647 76.8438L69.1331 77.3065H70.6926L70.0124 76.1033C69.7069 75.5619 69.8272 75.2195 70.2067 75.0066C70.5862 74.7937 70.9425 74.8585 71.2479 75.4046L71.7107 76.2144L72.8352 75.5758L72.4187 74.84C71.7292 73.6276 70.7296 73.2759 69.5588 73.9422C69.2901 74.0872 69.0514 74.2819 68.8554 74.5161C69.1214 74.6015 69.4 74.6407 69.6792 74.6318L68.5685 75.0482C68.4871 75.3514 68.4715 75.6684 68.5225 75.978C68.5736 76.2877 68.6903 76.5829 68.8647 76.8438Z" fill="black"/>
<path d="M77.5129 71.9138C77.6613 71.8396 77.8162 71.7792 77.9757 71.7333C78.5727 71.4649 78.7069 70.6042 78.656 69.9979L78.0405 69.2344L76.3838 70.1599L77.4204 71.9832C77.4475 71.9554 77.4787 71.932 77.5129 71.9138Z" fill="black"/>
<path d="M84.5675 75.5273L85.692 74.8886L81.393 67.3086L80.324 67.9102C80.6664 67.9935 80.9117 68.1554 80.9209 68.4053C80.5878 68.4516 80.1805 68.4053 79.8196 68.4701L81.9853 74.0834L79.2457 70.6683C79.2532 70.7439 79.2418 70.8202 79.2128 70.8904C79.1837 70.9606 79.1378 71.0226 79.0791 71.0709C78.9542 71.1588 78.7737 71.1588 78.6765 71.2745C78.5794 71.3902 78.5932 71.529 78.5099 71.6308C78.4266 71.7326 78.2971 71.7604 78.1953 71.8344C78.0935 71.9085 77.9824 72.0982 77.8667 72.2231C77.8109 72.2819 77.7407 72.325 77.6631 72.3481L80.7081 77.7161L81.7447 77.1238L78.7043 71.765L82.61 76.6333L83.7392 75.9947L81.4577 70.1037L84.5675 75.5273Z" fill="black"/>
<path d="M87.4169 68.9369C87.4991 68.978 87.5722 69.0353 87.6318 69.1052C87.6915 69.1752 87.7364 69.2564 87.764 69.3441C87.8613 68.7723 87.7372 68.1849 87.4169 67.7013L86.857 66.711C86.1674 65.4986 85.2095 65.17 84.0156 65.8457L82.2617 66.8406L86.5654 74.4253L87.6807 73.7913C87.3197 73.5645 86.9171 73.3702 86.5747 73.1249C86.4139 73.0223 86.2818 72.8806 86.1906 72.7131C86.1473 72.6285 86.1295 72.5332 86.1394 72.4387C86.1493 72.3443 86.1863 72.2547 86.2461 72.1809C86.3245 72.1148 86.42 72.0723 86.5216 72.0584C86.6232 72.0444 86.7266 72.0596 86.8199 72.1022L86.1397 70.899L86.7042 70.5797C87.0146 70.4115 87.2846 70.1778 87.4956 69.8948C87.2596 69.52 86.8477 68.724 87.4169 68.9369ZM86.0888 69.52L85.5242 69.8393L84.0665 67.271L84.6311 66.9517C85.0105 66.7388 85.316 66.7943 85.6214 67.3358L86.2692 68.4742C86.5747 68.9924 86.4682 69.284 86.0888 69.52Z" fill="black"/>
<path d="M93.7959 70.3189L93.1851 69.236L91.223 70.3466L88.3538 65.2886L88.2243 65.3905C88.1405 65.4681 88.0387 65.5238 87.9281 65.5524C87.8724 65.5649 87.814 65.5569 87.7638 65.5296C87.7136 65.5024 87.675 65.4579 87.6551 65.4043C87.6391 65.3327 87.6391 65.2585 87.6551 65.1868C87.6558 64.7562 87.5197 64.3365 87.2663 63.9883L86.3408 64.5251L90.6399 72.1051L93.7959 70.3189Z" fill="black"/>
<path d="M93.2618 67.6638C93.3913 67.3259 93.7939 67.201 94.0207 66.8956C94.0409 66.8642 94.0595 66.8318 94.0762 66.7984L93.6135 66.0209L94.7842 65.3592C94.7627 65.2853 94.7248 65.2173 94.6732 65.1602C94.5052 65.0781 94.3258 65.0219 94.141 64.9936C94.1124 64.9361 94.0981 64.8725 94.0991 64.8083C94.1001 64.7441 94.1164 64.681 94.1468 64.6244C94.1771 64.5678 94.2206 64.5192 94.2735 64.4828C94.3264 64.4464 94.3873 64.4232 94.4511 64.4152C94.5297 64.4152 94.6223 64.4152 94.6824 64.3781C94.7246 64.3278 94.7461 64.2633 94.7426 64.1977L94.6362 64.0126L92.998 64.9381L91.8041 62.8279L93.8587 61.6571L93.2432 60.5742L90.0039 62.4253L93.1877 68.0386C93.1933 67.9106 93.2182 67.7842 93.2618 67.6638Z" fill="black"/>
<path d="M97.5698 68.1805L96.9543 67.0977L94.895 68.2638L94.2795 67.2041L93.5206 67.9167L93.2568 68.1713L94.3212 70.0455L97.5698 68.1805Z" fill="black"/>
<path d="M96.0378 59.3727C96.0378 59.5346 95.9221 59.7151 95.7648 59.729C95.6847 59.728 95.6052 59.7155 95.5287 59.692C95.3857 59.6946 95.2428 59.6806 95.103 59.6503C95.0727 59.6378 95.0446 59.6207 95.0197 59.5994L93.6592 60.3722L94.2747 61.4597L95.5195 60.7517L99.2216 67.2304L100.411 66.5547L96.7088 60.0761L97.9583 59.368L97.3428 58.2852L96.0655 59.0071C96.0424 59.1274 96.0517 59.2523 96.0378 59.3727Z" fill="black"/>
<path d="M101.235 63.9584L102.161 65.592L103.41 64.884C103.44 64.802 103.477 64.723 103.521 64.648C103.797 64.246 104.167 63.9185 104.6 63.6947L105.173 63.3383L104.794 62.6627L102.735 63.8335L101.476 61.6122L103.114 60.6867L102.499 59.6038L100.861 60.5294L99.6666 58.4053L101.726 57.2391L101.11 56.1562L97.8711 58.0073L100.208 62.1305C100.773 61.8297 101.055 62.9126 101.235 63.9584Z" fill="black"/>
<path d="M77.2681 78.9363C77.4625 78.9687 77.5782 79.163 77.7309 79.2926C77.7864 79.3438 77.8507 79.3845 77.9206 79.4129C78.0092 79.3777 78.0957 79.3375 78.1798 79.2926C79.3459 78.6309 79.5912 77.5757 78.9063 76.3587L78.8369 76.2384L77.2357 76.1967L77.7586 77.1222C78.0641 77.6637 77.9438 78.0061 77.5643 78.219C77.1848 78.4319 76.8285 78.3624 76.5231 77.821L74.2093 73.7256C73.8992 73.1841 74.0242 72.8463 74.4036 72.6288C74.7831 72.4113 75.1348 72.4854 75.4448 73.0268L77.0136 75.8034C77.4952 75.6841 77.9891 75.622 78.4852 75.6183L76.6758 72.4298C75.9909 71.2174 74.9589 70.8888 73.7881 71.5506C72.6174 72.2123 72.3721 73.2721 73.0616 74.4845L75.2968 78.4272C75.438 78.7312 75.6491 78.9974 75.9129 79.2041C76.1768 79.4108 76.4857 79.5521 76.8146 79.6165C76.8121 79.5888 76.8121 79.5609 76.8146 79.5332C76.7591 79.2324 76.9812 78.8807 77.2681 78.9363Z" fill="black"/>
<path d="M93.2478 57.1804L96.8805 55.1211C95.8393 55.408 94.923 56.278 93.8494 56.1577C93.6552 56.1067 93.4512 56.1067 93.2571 56.1577C93.1357 56.2359 93.0483 56.357 93.0123 56.4968C92.9763 56.6366 92.9943 56.7849 93.0627 56.912C93.1096 57.0108 93.1721 57.1014 93.2478 57.1804Z" fill="black"/>
<path d="M84.1346 62.3404C84.1266 62.2604 84.1427 62.1798 84.1809 62.109C84.2701 62.1401 84.364 62.1557 84.4585 62.1553L85.7126 61.4473C85.9089 61.2252 86.1328 61.0293 86.379 60.8642C86.6167 60.737 86.8682 60.6376 87.1287 60.568L87.4063 60.4847L89.7201 59.1797C89.7445 59.1324 89.7775 59.0901 89.8173 59.0548C89.8531 59.031 89.8921 59.0123 89.933 58.9993L87.5452 58.2773L86.9019 58.6383L86.8325 59.1473L84.0791 60.6189C83.8065 60.7892 83.503 60.904 83.1859 60.9567C83.0676 60.9706 82.948 60.9706 82.8296 60.9567L78.9054 63.1826C78.9366 63.3686 78.9894 63.5503 79.0627 63.7241C78.8325 63.6812 78.6135 63.5914 78.4195 63.4603L77.6143 63.9231C78.1881 64.3025 78.7527 64.6912 79.3033 65.1031L84.1346 62.3404Z" fill="black"/>
<path d="M100.933 52.8183L99.0355 51.7539L98.1377 52.2629C98.6667 52.8069 99.35 53.1753 100.095 53.318L100.933 52.8183Z" fill="black"/>
<path d="M111.138 64.0268L103.975 51.398C103.696 50.9097 103.235 50.5514 102.694 50.4014C102.152 50.2514 101.572 50.3219 101.082 50.5974L100.222 51.088L100.55 51.4073C100.893 51.7497 101.244 52.0968 101.564 52.4624L101.999 52.2171C102.059 52.1834 102.13 52.1748 102.197 52.1929C102.263 52.2111 102.32 52.2547 102.355 52.3143L109.523 64.9477C109.556 65.0086 109.564 65.0801 109.545 65.1468C109.526 65.2135 109.482 65.27 109.421 65.3041L99.6709 70.8572C100.513 70.9081 101.365 70.7878 102.207 70.885C102.51 70.9232 102.811 70.9773 103.109 71.0469L110.338 66.9469C110.583 66.8089 110.799 66.6236 110.972 66.4016C111.146 66.1797 111.273 65.9256 111.348 65.654C111.422 65.3824 111.442 65.0987 111.406 64.8194C111.37 64.5401 111.279 64.2707 111.138 64.0268Z" fill="black"/>
<path d="M67.2403 80.1007L63.8714 74.1495C63.854 74.1195 63.8427 74.0863 63.8382 74.0518C63.8337 74.0174 63.836 73.9824 63.845 73.9489C63.8541 73.9153 63.8696 73.8839 63.8908 73.8564C63.912 73.8289 63.9385 73.8059 63.9686 73.7886L73.6866 68.2725C73.6542 68.1984 73.6126 68.1244 73.5848 68.0503C73.7221 68.0446 73.8595 68.0602 73.992 68.0966L77.9209 65.8707C77.7913 65.8291 77.6664 65.7782 77.5414 65.7319L75.6904 64.9961L74.2095 65.8383L75.82 66.824C75.26 66.4816 74.117 66.4353 73.1313 66.4492L63.0755 72.1735C62.5862 72.4513 62.2271 72.9119 62.077 73.4541C61.9269 73.9963 61.9981 74.576 62.2749 75.0658L65.1995 80.221C65.3338 80.184 65.4726 80.1516 65.6068 80.1284C65.9775 80.0751 66.3525 80.0565 66.7267 80.0729C66.8983 80.0717 67.0698 80.0809 67.2403 80.1007Z" fill="black"/>
<path d="M79.2446 82.4167C79.4095 82.5644 79.597 82.6847 79.8 82.773C80.0082 82.8655 80.2859 83.0877 80.1239 83.2358C79.3742 83.5782 78.4487 83.3237 77.7129 83.6985C77.3103 83.8929 76.9216 84.277 76.4912 84.1613C77.0118 84.4773 77.4801 84.8723 77.8795 85.3321L96.2558 74.9107C96.2558 74.8366 96.279 74.7626 96.2928 74.6839C96.2933 74.5382 96.3269 74.3946 96.3912 74.2639C96.4555 74.1332 96.5488 74.0189 96.6639 73.9297C96.779 73.8404 96.9129 73.7786 97.0555 73.7489C97.1981 73.7193 97.3456 73.7225 97.4868 73.7584C97.7251 73.7479 97.9637 73.7728 98.1948 73.8324L100.485 72.532C100.171 71.9903 99.7987 71.4845 99.3748 71.0234L79.2446 82.4167Z" fill="black"/>
<path d="M76.2679 85.4783C75.8247 85.3345 75.4165 85.0997 75.0694 84.7888L71.4043 86.8712C71.3746 86.8885 71.3417 86.8997 71.3077 86.9042C71.2736 86.9086 71.2389 86.9063 71.2058 86.8972C71.1726 86.8882 71.1416 86.8726 71.1145 86.8515C71.0874 86.8303 71.0648 86.804 71.048 86.774L67.8086 81.0959C67.4982 80.9886 67.1681 80.9507 66.8415 80.9848C66.4666 81.0589 66.1381 81.4939 66.3417 81.8132C66.533 81.8181 66.7195 81.8738 66.8822 81.9747C67.0449 82.0755 67.1777 82.2178 67.2672 82.387C67.0676 82.5458 66.8483 82.678 66.6147 82.7804L69.3913 87.6903C69.5292 87.9383 69.7154 88.1562 69.9387 88.3312C70.1621 88.5062 70.4182 88.6347 70.692 88.7093C70.9658 88.7839 71.2517 88.803 71.533 88.7655C71.8142 88.728 72.0852 88.6346 72.3298 88.4909L77.1333 85.7652L77.0778 85.7328C76.8126 85.6334 76.5423 85.5485 76.2679 85.4783Z" fill="black"/>
</g>
<path opacity="0.3" d="M57.4973 71.5352C59.9532 73.3388 62.0065 82.0028 62.1916 89.9461C62.3768 97.8894 66.2177 111.284 66.6766 113.478C67.1356 115.672 66.9665 118.837 69.8169 114.432C72.6673 110.028 81.0052 102.382 84.4797 104.923C87.9541 107.463 82.1043 116.002 78.9358 120.6C75.7674 125.198 75.4453 133.294 71.6488 138.363C67.8522 143.432 64.4221 151.085 60.702 150.968C56.982 150.852 32.3428 169.13 32.3428 169.13L32.8259 144.112L54.969 107.878L57.4973 71.5352Z" fill="black" fill-opacity="0.7"/>
<path d="M86.4989 106.148C86.3741 106.933 82.038 112.678 79.4896 116.978C76.9411 121.277 74.5537 128.762 73.9135 129.861C73.2734 130.96 65.4589 137.824 63.3171 140.695C61.1752 143.565 57.3505 144.834 53.5298 147.539C51.074 149.278 43.4205 158.252 38.2632 164.448C35.3967 167.891 33.2991 170.487 33.2991 170.487L0.330078 161.892C0.330078 161.892 3.05972 159.641 6.65092 156.606H6.67508L6.71131 156.577C12.6134 151.565 20.8386 144.491 23.1093 141.822C26.7689 137.522 31.8659 132.413 31.8659 132.413C31.5558 126.443 32.1879 120.786 31.6283 118.636C31.3384 117.513 30.8231 111.124 30.4205 109.159C29.4422 104.139 25.1867 98.937 24.7076 96.8877C24.2285 94.8385 18.6122 86.1141 21.3539 84.5037C21.8524 84.19 22.4448 84.0604 23.0287 84.1374C26.7327 84.6487 29.7844 93.5945 31.886 95.8732C32.7865 96.9519 33.6022 98.0988 34.3257 99.3034C35.9845 101.932 37.611 104.887 37.611 104.887C38.2471 102.339 33.6292 93.2603 32.353 84.6607C31.0768 76.0612 27.4171 71.4433 32.353 70.9119C32.7586 70.8664 33.1691 70.902 33.5608 71.0166C37.0353 72.0311 38.541 79.2498 40.6184 86.255C40.8117 86.8992 42.3939 91.5251 43.6258 95.0921C44.431 97.4272 45.0752 99.3074 45.0752 99.3074C45.2322 94.9271 43.8674 90.8527 43.6419 86.8831C43.5453 85.2928 44.0445 78.9196 43.4165 72.5505C42.877 67.1757 43.1226 64.9977 45.2242 64.5749C45.6743 64.4939 46.1332 64.4723 46.589 64.5105C50.2325 64.74 51.5249 74.4226 51.5249 78.199C51.5249 80.3932 51.8993 84.6768 52.2133 87.8896C52.4428 90.2126 52.6401 91.976 52.6401 91.976C52.6401 91.976 53.2762 86.6415 52.8011 75.1352C52.6924 72.6149 52.8575 70.8112 53.8479 70.0825C54.3914 69.6799 55.1765 69.6115 56.3038 69.9175C59.4883 70.779 60.523 82.5793 60.523 87.0401C60.523 91.5009 63.0715 99.1423 63.5506 105.157C64.0297 111.172 66.1152 118.564 66.1152 118.564C66.1152 118.564 67.2948 119.043 68.0879 118.886C68.881 118.729 74.3806 110.604 74.3806 110.604C76.9411 105.044 81.9253 103.358 84.6388 103.982C85.8869 104.267 86.6921 105.036 86.4989 106.148Z" fill="#AD6359"/>
<path opacity="0.4" d="M86.4984 106.15C86.3736 106.935 82.0376 112.681 79.4891 116.98C76.9406 121.28 74.5532 128.764 73.9131 129.864C73.2729 130.963 65.4584 137.827 63.3166 140.698C61.1747 143.568 57.35 144.836 53.5293 147.542C51.0735 149.281 43.42 158.255 38.2627 164.451C38.8304 162.205 40.1026 159.334 43.4281 156.576C49.2014 151.781 49.5476 148.021 52.6517 144.836C55.7557 141.652 61.2231 142.606 63.1877 138.797C65.1524 134.989 72.0047 131.47 73.438 128.124C74.8712 124.779 72.0047 124.07 74.5532 120.044C77.1017 116.018 79.5736 115.04 79.2113 113.462C78.8489 111.883 77.778 109.492 79.9883 107.499C81.3692 106.259 82.9917 104.701 84.6504 103.984C85.8864 104.27 86.6916 105.039 86.4984 106.15Z" fill="#B148F3"/>
<path opacity="0.4" d="M45.1935 125.046C44.1347 124.515 44.9842 123.456 44.2394 122.574C43.4946 121.693 41.7956 127.385 41.4212 127.406C41.0467 127.426 39.9074 124.511 39.4565 124.221C39.0056 123.931 38.7398 125.151 38.0997 127.406C37.4596 129.66 35.1084 130.804 33.7436 132.414C32.3787 134.024 24.1697 142.781 22.1527 146.07C20.1356 149.359 7.67913 155.869 6.71289 156.57C12.615 151.566 20.8402 144.492 23.1108 141.823C26.7705 137.523 31.8674 132.414 31.8674 132.414C31.5574 126.443 32.1895 120.787 31.6299 118.637C31.34 117.514 30.8247 111.124 30.4221 109.16C29.4438 104.139 25.1883 98.9376 24.7092 96.8884C24.2301 94.8391 18.6138 86.1147 21.3555 84.5043C21.8539 84.1906 22.4464 84.061 23.0303 84.138C22.4063 84.5808 21.7984 85.2169 22.366 86.151C23.3766 87.7855 24.4877 89.5047 24.4877 91.3123C24.4877 93.12 27.5676 95.6645 28.7634 97.3514C29.9591 99.0383 28.8439 98.4424 29.641 100.753C30.4382 103.064 31.3924 102.581 31.8674 104.916C32.3425 107.251 34.9997 108.741 34.5769 111.652C34.1542 114.563 35.8492 118.613 35.8492 118.613C35.8492 118.613 37.2301 114.687 36.7268 112.574C36.2236 110.46 36.8074 107.795 36.3242 107.078C35.9216 106.434 34.8185 102.062 34.3112 99.3442C35.9699 101.973 37.5965 104.928 37.5965 104.928C38.2326 102.38 33.6147 93.3012 32.3385 84.7016C31.0622 76.102 27.4026 71.4842 32.3385 70.9528C32.744 70.9073 33.1546 70.9429 33.5463 71.0575C35.6519 74.9909 34.1864 77.9017 33.7194 79.6087C33.2081 81.4687 36.2518 86.2436 36.7027 89.5328C37.1053 92.6047 37.9346 92.2866 38.0433 92.2303C37.9507 92.3148 37.1657 93.116 37.6407 95.3947C38.1359 97.8103 41.6668 103.547 41.6668 105.15C41.6668 106.752 41.3769 109.389 41.3769 110.17C41.3769 110.951 44.1951 116.177 44.5333 117.546C44.8715 118.915 44.4004 114.909 45.1694 113.52C45.9384 112.131 46.345 107.284 46.4456 107.545C47.7702 110.911 46.2564 125.57 45.1935 125.046Z" fill="#B148F3"/>
<path opacity="0.4" d="M47.4746 89.0648C46.5727 90.4296 46.5969 101.082 45.059 101.119C44.3141 101.119 43.9518 98.4414 43.6498 95.0797C44.4551 97.4148 45.0992 99.2949 45.0992 99.2949C45.2562 94.9146 43.8914 90.8403 43.666 86.8707C43.5693 85.2804 44.0686 78.9072 43.4405 72.538C42.901 67.1633 43.1466 64.9852 45.2482 64.5625C45.691 65.9958 46.7781 67.6867 47.0559 69.2568C47.4343 71.4228 46.6935 73.2144 46.0574 73.4842C45.4213 73.7539 45.3126 75.1509 46.1097 75.3562C46.9069 75.5616 46.1097 85.7273 46.4801 87.0317C46.8505 88.3361 48.3804 87.7201 47.4746 89.0648Z" fill="#B148F3"/>
<path opacity="0.4" d="M55.7484 77.1438C54.0937 77.8725 54.0052 79.1769 53.51 81.049C53.0148 82.9211 54.2185 85.6548 53.51 89.9505C52.8014 94.2463 55.3861 97.0162 53.51 101.823C51.6338 106.63 52.5155 97.7972 52.2015 93.7712C52.0933 91.8105 52.1014 89.845 52.2257 87.8852C52.4551 90.2082 52.6524 91.9716 52.6524 91.9716C52.6524 91.9716 53.2885 86.6371 52.8135 75.1308C52.7048 72.6105 52.8698 70.8068 53.8602 70.0781C55.5592 71.6201 57.1575 76.5238 55.7484 77.1438Z" fill="#B148F3"/>
<path d="M33.2999 170.488C33.2999 170.488 49.7059 150.262 53.5306 147.54C57.3553 144.818 61.18 143.558 63.3178 140.696C65.4556 137.833 73.2782 130.977 73.9143 129.862C74.5504 128.747 76.9419 121.262 79.4903 116.979C82.0388 112.695 86.3748 106.913 86.4996 106.149C87.0552 102.642 78.1376 102.485 74.3934 110.609C74.3934 110.609 68.8979 118.73 68.1007 118.891C67.3036 119.052 66.128 118.569 66.128 118.569C66.128 118.569 64.0425 111.181 63.5634 105.162C63.0843 99.1433 60.5358 91.4939 60.5358 87.0451C60.5358 82.5964 59.5012 70.784 56.3166 69.9225C53.132 69.0609 52.6489 71.243 52.814 75.1563C53.289 86.6626 52.6529 91.9971 52.6529 91.9971C52.6529 91.9971 51.5377 82.0005 51.5377 78.2201C51.5377 74.4397 50.2453 64.7571 46.6018 64.5316C43.2562 64.3183 42.7892 66.1984 43.4293 72.5837C44.0694 78.9689 43.5581 85.326 43.6548 86.9163C43.8923 90.898 45.2652 94.9683 45.088 99.3406C45.088 99.3406 40.9453 87.3471 40.6272 86.2802C38.3203 78.4616 36.722 70.4096 32.3417 70.8927C27.4058 71.4242 31.0694 76.042 32.3417 84.6416C33.6139 93.2411 38.2357 102.32 37.5996 104.868C37.5996 104.868 33.7789 97.9315 31.8746 95.854C29.459 93.2412 25.8115 81.8556 21.3506 84.4846C18.6089 86.095 24.2413 94.8475 24.7164 96.8968C25.1915 98.946 29.451 104.144 30.4293 109.168C30.8319 111.133 31.3352 117.522 31.6371 118.645C32.1967 120.795 31.5646 126.452 31.8746 132.422C31.8746 132.422 26.7777 137.519 23.1181 141.819C19.4584 146.119 0.338867 161.889 0.338867 161.889" stroke="#263238" stroke-width="0.67808" stroke-linecap="round" stroke-linejoin="round"/>
<path d="M66.1279 118.566C66.8628 120.38 66.8628 122.409 66.1279 124.223" stroke="#263238" stroke-width="0.67808" stroke-linecap="round" stroke-linejoin="round"/>
<path d="M67.4678 118.902C67.9248 119.238 68.2635 119.71 68.4349 120.251C68.6064 120.791 68.6019 121.372 68.4219 121.91" stroke="#263238" stroke-width="0.67808" stroke-linecap="round" stroke-linejoin="round"/>
<path d="M52.6533 91.9727C52.6533 91.9727 53.9296 100.971 53.37 102.642" stroke="#263238" stroke-width="0.67808" stroke-linecap="round" stroke-linejoin="round"/>
<path d="M45.0879 99.2969C45.2246 100.167 45.2246 101.052 45.0879 101.922" stroke="#263238" stroke-width="0.67808" stroke-linecap="round" stroke-linejoin="round"/>
<path d="M37.6055 104.875C37.6055 104.875 37.843 106.232 37.6055 106.55" stroke="#263238" stroke-width="0.67808" stroke-linecap="round" stroke-linejoin="round"/>
<path d="M77.9775 112.516C77.9775 112.516 79.4189 113.297 79.8899 114.428" stroke="#263238" stroke-width="0.67808" stroke-linecap="round" stroke-linejoin="round"/>
<path d="M45.1396 75.1347C45.6068 75.2469 46.0947 75.2397 46.5584 75.1138C47.0221 74.9878 47.4466 74.7472 47.7928 74.4141" stroke="#263238" stroke-width="0.67808" stroke-linecap="round" stroke-linejoin="round"/>
<path d="M45.6289 88.0703C45.6289 88.0703 48.4954 89.0245 49.5341 88.0703" stroke="#263238" stroke-width="0.67808" stroke-linecap="round" stroke-linejoin="round"/>
<path d="M54.9648 90.8567C54.9648 90.8567 56.8732 90.14 58.1494 90.5386" stroke="#263238" stroke-width="0.67808" stroke-linecap="round" stroke-linejoin="round"/>
<path d="M36.7256 93.4035C36.7256 93.4035 38.2394 91.4106 39.4351 91.9702" stroke="#263238" stroke-width="0.67808" stroke-linecap="round" stroke-linejoin="round"/>
<path d="M30.514 99.2969C30.514 99.2969 29.1613 99.933 28.7627 100.609" stroke="#263238" stroke-width="0.67808" stroke-linecap="round" stroke-linejoin="round"/>
<path d="M31.8662 132.417C32.1981 132.044 32.4921 131.639 32.7439 131.209C32.9814 130.73 32.6634 125.633 32.7439 122.352" stroke="#263238" stroke-width="0.67808" stroke-linecap="round" stroke-linejoin="round"/>
<path d="M48.5759 152.477C46.6997 154.578 40.9466 158.387 38.6396 160.694" stroke="#263238" stroke-width="0.67808" stroke-linecap="round" stroke-linejoin="round"/>
<path d="M56.1548 104.875C55.2006 107.585 56.2353 111.007 56.1548 112.524C56.0743 114.042 55.7522 120.979 55.7522 120.979" stroke="#263238" stroke-width="0.67808" stroke-linecap="round" stroke-linejoin="round"/>
<path d="M47.4738 104.875C46.2016 107.025 46.6001 109.891 46.9987 111.317C47.3973 112.742 47.043 118.563 47.043 118.563" stroke="#263238" stroke-width="0.67808" stroke-linecap="round" stroke-linejoin="round"/>
<path d="M33.7777 111.723C33.6722 113.125 33.9506 114.529 34.5829 115.785" stroke="#263238" stroke-width="0.67808" stroke-linecap="round" stroke-linejoin="round"/>
<path d="M41.6629 107.5C40.9462 110.129 41.9044 111.321 41.9849 111.719" stroke="#263238" stroke-width="0.67808" stroke-linecap="round" stroke-linejoin="round"/>
<path opacity="0.3" d="M106.349 91.1404L104.992 83.2655C104.932 82.9156 104.943 82.5573 105.026 82.212C105.108 81.8667 105.259 81.5415 105.47 81.2561C105.681 80.9707 105.947 80.7308 106.253 80.551C106.559 80.3712 106.898 80.2551 107.25 80.2097L110.29 79.8071C110.29 79.8071 109.276 77.7498 112.541 71.7551C115.806 65.7604 131.503 49.8375 143.404 76.5863C155.305 103.335 166.179 157.843 166.179 157.843C166.179 157.843 134.056 120.434 133.033 118.517C132.01 116.601 122.231 117.748 119.973 112.607C117.714 107.466 112.971 92.795 112.971 92.795L109.3 93.2983C108.624 93.3897 107.94 93.216 107.39 92.8137C106.839 92.4114 106.466 91.8117 106.349 91.1404Z" fill="black" fill-opacity="0.7"/>
<path d="M134.658 73.0753L128.495 74.1945L119.927 75.7526L108.707 77.7938C108.491 77.8333 108.271 77.8299 108.057 77.7838C107.843 77.7378 107.64 77.65 107.46 77.5254C107.28 77.4009 107.127 77.242 107.008 77.058C106.89 76.874 106.809 76.6684 106.77 76.4531L104.306 62.9056C104.229 62.4712 104.326 62.0237 104.577 61.6609C104.829 61.2981 105.213 61.0494 105.647 60.9691L112.173 59.7612L121.666 58.0381L131.599 56.2304C131.814 56.1909 132.035 56.1943 132.249 56.2404C132.463 56.2864 132.665 56.3742 132.845 56.4988C133.025 56.6233 133.179 56.7822 133.297 56.9662C133.415 57.1502 133.496 57.3558 133.535 57.5711L135.999 71.1186C136.042 71.3353 136.04 71.5583 135.996 71.7745C135.951 71.9907 135.864 72.1959 135.739 72.378C135.614 72.5602 135.454 72.7156 135.269 72.8354C135.083 72.9551 134.876 73.0366 134.658 73.0753Z" fill="#B148F3"/>
<mask id="mask0_1286_15702" style="mask-type:luminance" maskUnits="userSpaceOnUse" x="104" y="56" width="33" height="22">
<path d="M134.656 73.0753L128.493 74.1945L119.925 75.7526L108.705 77.7938C108.49 77.8333 108.269 77.8299 108.055 77.7838C107.841 77.7378 107.638 77.65 107.458 77.5254C107.278 77.4009 107.125 77.242 107.006 77.058C106.888 76.874 106.807 76.6684 106.768 76.4531L104.304 62.9056C104.227 62.4712 104.324 62.0237 104.575 61.6609C104.827 61.2981 105.211 61.0494 105.645 60.9691L112.171 59.7612L121.665 58.0381L131.597 56.2304C131.812 56.1909 132.033 56.1943 132.247 56.2404C132.461 56.2864 132.663 56.3742 132.843 56.4988C133.023 56.6233 133.177 56.7822 133.295 56.9662C133.413 57.1502 133.494 57.3558 133.533 57.5711L135.997 71.1186C136.04 71.3353 136.038 71.5583 135.994 71.7745C135.949 71.9907 135.862 72.1959 135.737 72.378C135.612 72.5602 135.452 72.7156 135.267 72.8354C135.081 72.9551 134.874 73.0366 134.656 73.0753Z" fill="white"/>
</mask>
<g mask="url(#mask0_1286_15702)">
<path opacity="0.3" d="M130.298 64.0743L128.494 74.1876L119.927 75.7457C117.447 74.6547 113.356 72.7544 112.539 71.7197C111.565 70.5119 111.702 63.3939 112.173 59.7544L121.666 58.0312C125.012 60.3382 130.298 64.0743 130.298 64.0743Z" fill="black" fill-opacity="0.7"/>
<path opacity="0.3" d="M110.408 77.4732L108.705 77.7832C108.49 77.8226 108.269 77.8193 108.055 77.7732C107.841 77.7272 107.638 77.6394 107.458 77.5148C107.278 77.3903 107.125 77.2314 107.006 77.0474C106.888 76.8634 106.807 76.6578 106.768 76.4425L104.304 62.895C104.227 62.4605 104.324 62.0131 104.575 61.6503C104.827 61.2875 105.211 61.0388 105.645 60.9584L107.344 60.6484C106.91 60.7287 106.526 60.9776 106.276 61.3406C106.025 61.7035 105.929 62.151 106.007 62.5849L108.471 76.1325C108.51 76.3478 108.591 76.5534 108.709 76.7374C108.828 76.9214 108.981 77.0803 109.161 77.2048C109.341 77.3294 109.544 77.4172 109.758 77.4632C109.972 77.5093 110.193 77.5126 110.408 77.4732Z" fill="black" fill-opacity="0.7"/>
</g>
<path d="M134.658 73.0753L128.495 74.1945L119.927 75.7526L108.707 77.7938C108.491 77.8333 108.271 77.8299 108.057 77.7838C107.843 77.7378 107.64 77.65 107.46 77.5254C107.28 77.4009 107.127 77.242 107.008 77.058C106.89 76.874 106.809 76.6684 106.77 76.4531L104.306 62.9056C104.229 62.4712 104.326 62.0237 104.577 61.6609C104.829 61.2981 105.213 61.0494 105.647 60.9691L112.173 59.7612L121.666 58.0381L131.599 56.2304C131.814 56.1909 132.035 56.1943 132.249 56.2404C132.463 56.2864 132.665 56.3742 132.845 56.4988C133.025 56.6233 133.179 56.7822 133.297 56.9662C133.415 57.1502 133.496 57.3558 133.535 57.5711L135.999 71.1186C136.042 71.3353 136.04 71.5583 135.996 71.7745C135.951 71.9907 135.864 72.1959 135.739 72.378C135.614 72.5602 135.454 72.7156 135.269 72.8354C135.083 72.9551 134.876 73.0366 134.658 73.0753Z" stroke="#263238" stroke-width="0.67808" stroke-linecap="round" stroke-linejoin="round"/>
<path d="M132.827 55.5073L106.98 60.2547C106.078 60.4204 105.481 61.286 105.647 62.1881L108.124 75.6778C108.29 76.5799 109.156 77.1769 110.058 77.0112L135.905 72.2638C136.807 72.0981 137.404 71.2325 137.238 70.3303L134.761 56.8407C134.595 55.9386 133.729 55.3416 132.827 55.5073Z" stroke="#263238" stroke-width="0.675635" stroke-linecap="round" stroke-linejoin="round"/>
<path d="M132.104 57.1366L107.747 61.5631C107.31 61.6426 107.02 62.0617 107.099 62.4993L109.525 75.8483C109.604 76.2858 110.024 76.5761 110.461 76.4965L134.818 72.0701C135.256 71.9906 135.546 71.5715 135.466 71.1339L133.041 57.7849C132.961 57.3474 132.542 57.0571 132.104 57.1366Z" stroke="#263238" stroke-width="0.67808" stroke-linecap="round" stroke-linejoin="round"/>
<path d="M136.362 72.757L134.671 73.063C135.103 72.9818 135.486 72.7329 135.734 72.3708C135.983 72.0087 136.079 71.5628 136 71.1305L133.536 57.5829C133.497 57.3676 133.416 57.162 133.298 56.978C133.18 56.794 133.026 56.6352 132.846 56.5106C132.666 56.3861 132.464 56.2982 132.25 56.2522C132.036 56.2061 131.815 56.2028 131.6 56.2423L133.303 55.9323C133.737 55.8547 134.184 55.9522 134.547 56.2033C134.91 56.4545 135.159 56.839 135.239 57.2729L137.703 70.8205C137.781 71.2549 137.683 71.7023 137.432 72.0651C137.181 72.4279 136.796 72.6767 136.362 72.757Z" stroke="#263238" stroke-width="0.67808" stroke-linecap="round" stroke-linejoin="round"/>
<path d="M185.33 116.155L168.658 160.876C168.658 160.876 161.685 147.59 155.244 135.294C150.098 125.463 145.291 116.243 144.643 114.887C143.19 111.831 138.226 105.429 138.226 105.429C138.226 105.429 133.133 102.515 130.802 97.4379C128.471 92.3611 125.906 74.1997 125.906 74.1997C125.906 74.1997 119.211 71.6794 117.612 70.5763C116.014 69.4732 114.557 59.2793 114.557 58.1158C114.557 56.9523 116.167 54.6212 116.167 54.6212C116.167 54.6212 115.809 52.9142 117.854 51.191C118.522 50.6422 119.264 50.1884 120.056 49.8423H120.096C120.096 49.8423 119.831 45.9894 121.836 44.8662C121.931 44.812 122.031 44.7649 122.134 44.7252C123.921 44.0368 129.783 43.147 129.783 43.147C130.612 42.4189 131.576 41.862 132.621 41.5085C133.66 41.2226 139.361 42.5472 142.546 43.3322C143.826 43.6463 144.699 43.8717 144.699 43.8717C144.699 43.8717 150.086 44.1173 151.105 44.7252C151.815 45.1911 152.465 45.7443 153.037 46.3719L153.138 46.4886C153.138 46.4886 157.941 47.4871 158.96 49.2465C159.978 51.0058 160.413 59.7342 159.688 65.4069C158.964 71.0795 160.264 80.7057 160.264 80.7057C160.264 80.7057 161.766 88.1418 162.929 90.964C164.093 93.7863 185.33 116.155 185.33 116.155Z" fill="#AD6359"/>
<path opacity="0.4" d="M155.244 135.296C150.098 125.464 145.291 116.244 144.643 114.888C143.19 111.832 138.226 105.431 138.226 105.431C138.226 105.431 133.133 102.516 130.802 97.4389C128.471 92.3621 125.906 74.2007 125.906 74.2007C125.906 74.2007 119.211 71.6804 117.612 70.5773C116.014 69.4742 114.557 59.2803 114.557 58.1168C114.557 56.9533 116.167 54.6222 116.167 54.6222C116.167 54.6222 115.809 52.9152 117.854 51.1921C117.854 51.651 117.854 52.424 117.854 53.6399C117.806 55.9468 120.523 69.8567 121.196 69.4339C121.868 69.0112 122.907 67.9926 122.633 67.0948C122.633 67.0948 121.316 61.6959 120.072 49.8433H120.113C120.113 49.8433 119.847 45.9904 121.852 44.8672C121.507 45.7015 121.286 46.5818 121.196 47.4801C121.151 49.3562 123.382 65.4321 124.255 65.8387C125.129 66.2453 127.343 64.1035 127.343 64.1035C127.343 64.1035 126.586 59.542 126.856 57.5974C126.856 57.5974 133.592 61.704 133.793 66.3661C133.813 66.8774 135.105 74.1846 135.105 74.1846C135.105 74.1846 129.312 85.2159 135.226 95.2809C135.226 95.2809 132.219 93.4773 131.502 90.6108C131.502 90.6108 130.628 99.0412 136.841 103.494C136.841 103.494 141.297 99.1177 145.698 98.5621C145.698 98.5621 145.778 98.852 142.831 101.175C139.884 103.498 139.486 104.533 139.486 104.533C139.486 104.533 142.674 101.312 145.223 101.175C145.223 101.175 142.594 104.215 142.674 104.851C142.755 105.487 150.191 118.201 152.896 127.07C154 130.774 154.752 133.448 155.244 135.296Z" fill="#B148F3"/>
<path opacity="0.4" d="M134.367 50.9178C134.367 50.9178 136.513 52.5282 137.149 50.9178C137.514 50.0561 137.747 49.1439 137.838 48.2124C137.838 48.2124 138.663 47.8339 139.448 49.8228C140.233 51.8116 148.104 52.3189 149.948 53.3375C151.792 54.356 152.525 53.3375 152.525 53.3375C152.954 53.6904 153.249 54.1808 153.359 54.7257C153.469 55.2706 153.387 55.8368 153.128 56.3288C152.235 58.1767 154.767 58.3418 155.749 56.981C156.732 55.6202 155.971 60.8742 153.543 61.4096C153.543 61.4096 153.612 63.7045 152.049 65.2786H153.374C153.374 65.2786 149.847 68.0767 148.909 68.2297C147.971 68.3827 152.4 69.9488 151.578 70.2789C150.757 70.6091 148.43 70.5809 148.43 70.5809C148.43 70.5809 149.936 71.6236 149.948 72.3121C149.96 73.0005 149.235 73.5199 148.909 72.9442C148.583 72.3684 145.982 64.1232 144.686 61.0755C143.389 58.0278 138.035 55.6162 134.367 50.9178Z" fill="#B148F3"/>
<path opacity="0.4" d="M153.031 46.3443C148.514 45.1083 142.455 43.349 142.455 43.349L142.54 43.3047C143.82 43.6187 144.694 43.8442 144.694 43.8442C144.694 43.8442 150.08 44.0898 151.099 44.6977C151.809 45.1635 152.459 45.7167 153.031 46.3443Z" fill="#B148F3"/>
<path d="M146.682 53.4489C142.752 52.6437 139.946 56.0014 139.946 56.0014C139.946 56.0014 143.852 59.5363 144.717 61.0541C145.583 62.5719 147.02 67.6889 147.02 67.6889C148.667 67.9546 151.702 66.2557 152.431 61.7465C153.16 57.2374 150.591 54.2501 146.682 53.4489Z" fill="#B148F3"/>
<path d="M168.658 160.877C168.658 160.877 146.113 117.943 144.643 114.888C143.174 111.832 138.226 105.43 138.226 105.43C138.226 105.43 133.133 102.516 130.802 97.4388C128.471 92.362 125.906 74.2006 125.906 74.2006C125.906 74.2006 119.211 71.6803 117.612 70.5772C116.014 69.4741 114.557 59.2802 114.557 58.1167C114.557 56.9532 116.167 54.6221 116.167 54.6221C116.167 54.6221 115.587 51.8643 120.096 49.8231C120.096 49.8231 119.807 45.5998 122.134 44.7061C123.921 44.0176 129.783 43.1279 129.783 43.1279C130.612 42.3997 131.576 41.8428 132.621 41.4893C134.075 41.0867 144.699 43.8525 144.699 43.8525C144.699 43.8525 150.086 44.0981 151.105 44.7061C151.85 45.1974 152.528 45.7834 153.122 46.4493C153.122 46.4493 157.925 47.4478 158.943 49.2071C159.962 50.9665 160.397 59.6949 159.672 65.3676C158.947 71.0402 160.248 80.6664 160.248 80.6664C160.248 80.6664 161.75 88.1025 162.913 90.9247C164.077 93.7469 185.33 116.156 185.33 116.156" stroke="#263238" stroke-width="0.67808" stroke-linecap="round" stroke-linejoin="round"/>
<path d="M149.573 73.6092C149.573 73.6092 148.554 73.3918 147.246 68.5888C145.937 63.7858 145.591 61.5393 142.878 58.6929C140.953 56.6799 136.549 53.3906 134.367 50.9186C132.185 48.4467 129.773 46.4497 127.889 47.9796C126.383 49.1874 125.401 52.3237 126.725 57.163C128.428 63.3791 133.799 66.3383 133.799 66.3383L135.111 74.1568C135.111 74.1568 129.415 85.5665 135.836 96.3361" stroke="#263238" stroke-width="0.67808" stroke-linecap="round" stroke-linejoin="round"/>
<path d="M139.924 56.0004C139.924 56.0004 142.742 52.6467 146.659 53.4479C150.577 54.2491 153.121 57.2323 152.409 61.7455C151.696 66.2587 148.644 67.9536 146.998 67.6879" stroke="#263238" stroke-width="0.67808" stroke-linecap="round" stroke-linejoin="round"/>
<path d="M129.773 43.1211C129.184 44.6002 128.732 46.1296 128.42 47.6906" stroke="#263238" stroke-width="0.67808" stroke-linecap="round" stroke-linejoin="round"/>
<path d="M127.388 58.8867C127.388 58.8867 127.726 63.8588 128.426 65.3847C129.127 66.9106 130.29 68.1506 130.798 70.1153C131.305 72.08 131.382 75.1357 131.526 75.5745C131.671 76.0134 132.513 76.1261 132.513 76.1261C133.721 76.1543 134.208 75.5262 134.904 74.568" stroke="#263238" stroke-width="0.67808" stroke-linecap="round" stroke-linejoin="round"/>
<path d="M120.109 49.8203C120.109 49.8203 121.2 60.4409 122.074 64.9541C122.948 69.4673 124.49 70.1195 127.022 71.5769C129.554 73.0343 130.951 76.0055 131.173 76.4524C131.394 76.8993 132.224 76.9476 132.224 76.9476C132.711 76.9071 133.181 76.7455 133.59 76.4777C133.999 76.2098 134.335 75.8441 134.567 75.4137" stroke="#263238" stroke-width="0.67808" stroke-linecap="round" stroke-linejoin="round"/>
<path d="M116.173 54.6172C115.899 55.0399 118.234 65.8256 119.45 68.9538C120.666 72.082 120.802 72.5772 124.019 73.463C127.236 74.3487 129.68 75.8222 130.549 75.3029" stroke="#263238" stroke-width="0.67808" stroke-linecap="round" stroke-linejoin="round"/>
<path d="M138.513 48.6484C138.513 48.6484 140.183 52.6503 139.08 55.2833" stroke="#263238" stroke-width="0.67808" stroke-linecap="round" stroke-linejoin="round"/>
<path d="M144.695 43.8438C147.433 44.9262 150.25 45.7971 153.122 46.4486" stroke="#263238" stroke-width="0.67808" stroke-linecap="round" stroke-linejoin="round"/>
<path d="M155.758 57.6719C155.758 57.6719 154.478 60.011 152.537 60.5142" stroke="#263238" stroke-width="0.67808" stroke-linecap="round" stroke-linejoin="round"/>
<path d="M152.536 55.125C152.536 55.125 152.077 56.3328 151.59 56.667" stroke="#263238" stroke-width="0.67808" stroke-linecap="round" stroke-linejoin="round"/>
<path d="M154.143 64.7344C154.143 64.7344 151.233 66.9366 148.438 67.5083" stroke="#263238" stroke-width="0.67808" stroke-linecap="round" stroke-linejoin="round"/>
<path d="M147.245 68.5938C147.245 68.5938 148.453 70.1196 151.589 70.2645" stroke="#263238" stroke-width="0.67808" stroke-linecap="round" stroke-linejoin="round"/>
<path d="M137.823 61.9147C137.823 61.9147 140.674 59.177 142.3 59.5554" stroke="#263238" stroke-width="0.67808" stroke-linecap="round" stroke-linejoin="round"/>
<path d="M143.403 62.4727C143.403 62.4727 141.245 64.0831 140.851 64.0831" stroke="#263238" stroke-width="0.67808" stroke-linecap="round" stroke-linejoin="round"/>
<path d="M121.185 71.0101C121.185 71.0101 121.901 71.1429 122.461 70.2773" stroke="#263238" stroke-width="0.67808" stroke-linecap="round" stroke-linejoin="round"/>
<path d="M123.731 67.0848C123.731 67.0848 125.463 66.0139 126.594 65.8086" stroke="#263238" stroke-width="0.67808" stroke-linecap="round" stroke-linejoin="round"/>
<path d="M138.983 103.404C139.342 103.086 142.687 100.38 144.757 99.4219" stroke="#263238" stroke-width="0.67808" stroke-linecap="round" stroke-linejoin="round"/>
<path d="M143.32 102.123C143.082 102.051 141.182 104.039 140.18 104.837" stroke="#263238" stroke-width="0.67808" stroke-linecap="round" stroke-linejoin="round"/>
<path d="M144.267 108.023C144.267 108.023 150.64 120.101 152.073 124.933" stroke="#263238" stroke-width="0.67808" stroke-linecap="round" stroke-linejoin="round"/>
<path d="M162.93 90.9414C163.469 93.9086 165.22 96.0947 166.179 97.2784" stroke="#263238" stroke-width="0.67808" stroke-linecap="round" stroke-linejoin="round"/>
<path opacity="0.4" d="M142.839 54.609C141.913 55.1807 142.887 57.0488 143.403 58.0029C143.918 58.9571 146.221 60.4749 146.7 61.9082C147.179 63.3414 150.207 63.3012 151.129 61.9082C152.051 60.5152 151.934 57.7332 149.422 55.6155C146.909 53.4978 144.156 53.8038 142.839 54.609Z" fill="white"/>
<path d="M125.161 120.913C121.06 120.216 116.845 120.928 113.202 122.935C109.559 124.941 106.703 128.123 105.1 131.96C103.497 135.798 103.242 140.066 104.376 144.067C105.509 148.069 107.965 151.568 111.343 153.994" stroke="#B148F3" stroke-width="0.67808" stroke-linecap="round" stroke-linejoin="round"/>
<path d="M132.831 124.121C131.124 122.888 129.217 121.959 127.194 121.375" stroke="#B148F3" stroke-width="0.67808" stroke-linecap="round" stroke-linejoin="round"/>
<path d="M130.979 155.136C133.46 153.762 135.59 151.833 137.202 149.499C138.814 147.165 139.864 144.49 140.27 141.683C140.676 138.876 140.428 136.013 139.543 133.318C138.659 130.623 137.164 128.169 135.174 126.148" stroke="#B148F3" stroke-width="0.67808" stroke-linecap="round" stroke-linejoin="round"/>
<path d="M131.871 160.946L132.966 161.912L131.259 156.062" stroke="#B148F3" stroke-width="0.67808" stroke-linecap="round" stroke-linejoin="round"/>
<path d="M118.987 157.181C121.694 157.645 124.471 157.495 127.112 156.742L130.578 159.802" stroke="#B148F3" stroke-width="0.67808" stroke-linecap="round" stroke-linejoin="round"/>
<path d="M114.766 155.938C115.453 156.234 116.157 156.488 116.875 156.698" stroke="#B148F3" stroke-width="0.67808" stroke-linecap="round" stroke-linejoin="round"/>
<path d="M123.525 130.102C125.806 130.491 127.857 131.721 129.277 133.547C130.696 135.374 131.381 137.666 131.195 139.972C131.009 142.278 129.967 144.431 128.274 146.007C126.58 147.583 124.358 148.469 122.045 148.488C119.731 148.508 117.494 147.662 115.774 146.115C114.053 144.568 112.974 142.433 112.749 140.131C112.524 137.828 113.169 135.525 114.556 133.674C115.944 131.823 117.975 130.559 120.248 130.13" stroke="#B148F3" stroke-width="0.67808" stroke-linecap="round" stroke-linejoin="round"/>
<path d="M120.251 149.344C117.57 148.887 115.179 147.384 113.606 145.165C112.033 142.946 111.405 140.193 111.861 137.512" stroke="#B148F3" stroke-width="0.67808" stroke-linecap="round" stroke-linejoin="round"/>
<path d="M131.617 142.719C130.986 144.465 129.892 146.007 128.454 147.181C127.015 148.355 125.285 149.117 123.448 149.386" stroke="#B148F3" stroke-width="0.67808" stroke-linecap="round" stroke-linejoin="round"/>
<path d="M112.647 134.945C113.687 132.685 115.512 130.879 117.784 129.865C120.055 128.85 122.618 128.695 124.995 129.43C127.372 130.164 129.401 131.737 130.705 133.856C132.008 135.975 132.497 138.495 132.081 140.948" stroke="#B148F3" stroke-width="0.67808" stroke-linecap="round" stroke-linejoin="round"/>
<path d="M128.13 135.531L128.247 135.406" stroke="#B148F3" stroke-width="1.35616" stroke-linecap="round" stroke-linejoin="round"/>
<path d="M126.485 137.307L127.303 136.426" stroke="#B148F3" stroke-width="1.35616" stroke-linecap="round" stroke-linejoin="round"/>
<path d="M116.458 138.602L120.408 143.852L125.77 138.074" stroke="#B148F3" stroke-width="1.35616" stroke-linecap="round" stroke-linejoin="round"/>
</svg>
