<svg width="12" height="12" viewBox="0 0 12 12" fill="none" xmlns="http://www.w3.org/2000/svg">
<path fill-rule="evenodd" clip-rule="evenodd" d="M0.398438 5.99844C0.398437 4.51323 0.988436 3.08884 2.03864 2.03864C3.08884 0.988436 4.51323 0.398438 5.99844 0.398438C7.48365 0.398438 8.90803 0.988436 9.95824 2.03864C11.0084 3.08884 11.5984 4.51323 11.5984 5.99844C11.5984 7.48365 11.0084 8.90803 9.95824 9.95824C8.90803 11.0084 7.48365 11.5984 5.99844 11.5984C4.51323 11.5984 3.08884 11.0084 2.03864 9.95824C0.988436 8.90803 0.398438 7.48365 0.398438 5.99844ZM6.39844 2.79844V5.83284L8.68164 8.11524L8.11524 8.68164L5.59844 6.16404V2.79844H6.39844ZM6.39844 1.99844V1.19844H5.59844V1.99844H6.39844ZM6.39844 10.7984V9.99844H5.59844V10.7984H6.39844ZM9.99844 5.59844H10.7984V6.39844H9.99844V5.59844ZM1.99844 5.59844H1.19844V6.39844H1.99844V5.59844Z" fill="black"/>
</svg>
