<svg width="13" height="12" viewBox="0 0 13 12" fill="none" xmlns="http://www.w3.org/2000/svg">
<path d="M2.98334 12C2.74684 12 2.54873 11.921 2.38902 11.7629C2.22931 11.6048 2.14918 11.4094 2.14862 11.1767C2.14807 10.9439 2.2282 10.7485 2.38902 10.5905C2.54985 10.4324 2.74795 10.3533 2.98334 10.3533H8.07514C8.9516 10.3533 9.71342 10.0789 10.3606 9.53002C11.0078 8.98113 11.3311 8.29503 11.3306 7.4717C11.33 6.64837 11.0067 5.96226 10.3606 5.41338C9.71454 4.86449 8.95271 4.59005 8.07514 4.59005H2.8164L4.40237 6.15437C4.5554 6.30532 4.63192 6.49743 4.63192 6.7307C4.63192 6.96398 4.5554 7.15609 4.40237 7.30703C4.24934 7.45798 4.05457 7.53345 3.81807 7.53345C3.58156 7.53345 3.38679 7.45798 3.23376 7.30703L0.228765 4.34305C0.145293 4.26072 0.0860275 4.17153 0.0509693 4.07547C0.015911 3.97942 -0.00106159 3.8765 5.13678e-05 3.76672C0.00116433 3.65695 0.0186932 3.55403 0.0526386 3.45798C0.0865839 3.36192 0.145293 3.27273 0.228765 3.19039L3.23376 0.226415C3.38679 0.0754714 3.58156 0 3.81807 0C4.05457 0 4.24934 0.0754714 4.40237 0.226415C4.5554 0.377358 4.63192 0.569468 4.63192 0.802744C4.63192 1.03602 4.5554 1.22813 4.40237 1.37907L2.8164 2.9434H8.07514C9.42461 2.9434 10.5829 3.37564 11.5501 4.24014C12.5173 5.10463 13.0006 6.18182 13 7.4717C12.9994 8.76158 12.5161 9.83876 11.5501 10.7033C10.584 11.5678 9.42572 12 8.07514 12H2.98334Z" fill="#696969"/>
</svg>
