<svg width="12" height="10" viewBox="0 0 12 10" fill="none" xmlns="http://www.w3.org/2000/svg">
<path d="M5.32 9.8H2.52C1.82149 9.8 1.22696 9.49527 0.7364 8.8858C0.245467 8.27727 0 7.53597 0 6.6619C0 5.8597 0.219333 5.1478 0.658 4.5262C1.09667 3.9046 1.64192 3.5707 2.29376 3.5245C2.41957 2.50483 2.79477 1.6625 3.41936 0.9975C4.04395 0.3325 4.77083 0 5.6 0C6.53408 0 7.3276 0.4081 7.98056 1.2243C8.63352 2.0405 8.96 3.0324 8.96 4.2V4.9H9.30496C9.84107 4.92147 10.2909 5.16763 10.6546 5.6385C11.0182 6.10937 11.2 6.67987 11.2 7.35C11.2 8.03647 11.0107 8.61653 10.6322 9.0902C10.2529 9.5634 9.7888 9.8 9.24 9.8H5.88V4.606L7.056 6.069L7.45248 5.586L5.6 3.2718L3.74752 5.5874L4.144 6.069L5.32 4.6074V9.8Z" fill="black"/>
</svg>
