<svg width="18" height="16" viewBox="0 0 18 16" fill="none" xmlns="http://www.w3.org/2000/svg">
<path d="M16.56 2.90909H2.16C1.96904 2.90909 1.78591 2.83247 1.65088 2.69608C1.51586 2.55969 1.44 2.3747 1.44 2.18182C1.44 1.98893 1.51586 1.80395 1.65088 1.66756C1.78591 1.53117 1.96904 1.45455 2.16 1.45455H14.4C14.591 1.45455 14.7741 1.37792 14.9091 1.24153C15.0441 1.10514 15.12 0.920157 15.12 0.727273C15.12 0.534388 15.0441 0.349404 14.9091 0.213013C14.7741 0.0766233 14.591 0 14.4 0H2.16C1.58713 0 1.03773 0.22987 0.632649 0.63904C0.227571 1.04821 0 1.60316 0 2.18182V13.8182C0 14.3968 0.227571 14.9518 0.632649 15.361C1.03773 15.7701 1.58713 16 2.16 16H16.56C16.9419 16 17.3082 15.8468 17.5782 15.574C17.8483 15.3012 18 14.9312 18 14.5455V4.36364C18 3.97787 17.8483 3.6079 17.5782 3.33512C17.3082 3.06234 16.9419 2.90909 16.56 2.90909ZM13.32 10.1818C13.1064 10.1818 12.8976 10.1178 12.72 9.99797C12.5424 9.8781 12.404 9.70772 12.3222 9.50838C12.2405 9.30904 12.2191 9.0897 12.2608 8.87808C12.3024 8.66647 12.4053 8.47209 12.5563 8.31952C12.7074 8.16695 12.8998 8.06306 13.1093 8.02096C13.3188 7.97887 13.536 8.00047 13.7333 8.08304C13.9306 8.16561 14.0993 8.30543 14.218 8.48483C14.3367 8.66423 14.4 8.87515 14.4 9.09091C14.4 9.38024 14.2862 9.65771 14.0837 9.8623C13.8811 10.0669 13.6064 10.1818 13.32 10.1818Z" fill="#FE5102"/>
</svg>
