<svg width="17" height="15" viewBox="0 0 17 15" fill="none" xmlns="http://www.w3.org/2000/svg">
<path d="M14.904 2.61818H1.944C1.77214 2.61818 1.60732 2.54922 1.48579 2.42647C1.36427 2.30372 1.296 2.13723 1.296 1.96364C1.296 1.79004 1.36427 1.62355 1.48579 1.5008C1.60732 1.37805 1.77214 1.30909 1.944 1.30909H12.96C13.1319 1.30909 13.2967 1.24013 13.4182 1.11738C13.5397 0.994628 13.608 0.828142 13.608 0.654545C13.608 0.480949 13.5397 0.314463 13.4182 0.191712C13.2967 0.068961 13.1319 0 12.96 0H1.944C1.42842 0 0.933955 0.206883 0.569384 0.575136C0.204814 0.943389 0 1.44285 0 1.96364V12.4364C0 12.9572 0.204814 13.4566 0.569384 13.8249C0.933955 14.1931 1.42842 14.4 1.944 14.4H14.904C15.2477 14.4 15.5774 14.2621 15.8204 14.0166C16.0635 13.7711 16.2 13.4381 16.2 13.0909V3.92727C16.2 3.58008 16.0635 3.24711 15.8204 3.00161C15.5774 2.7561 15.2477 2.61818 14.904 2.61818ZM14.904 13.0909H1.944C1.77214 13.0909 1.60732 13.0219 1.48579 12.8992C1.36427 12.7764 1.296 12.61 1.296 12.4364V3.81518C1.50407 3.88968 1.72324 3.9276 1.944 3.92727H14.904V13.0909ZM11.016 8.18182C11.016 7.98763 11.073 7.79781 11.1798 7.63635C11.2866 7.47489 11.4384 7.34905 11.616 7.27474C11.7936 7.20042 11.9891 7.18098 12.1776 7.21886C12.3662 7.25675 12.5394 7.35026 12.6753 7.48757C12.8112 7.62488 12.9038 7.79982 12.9413 7.99027C12.9788 8.18073 12.9596 8.37814 12.886 8.55754C12.8124 8.73695 12.6879 8.89029 12.528 8.99817C12.3682 9.10605 12.1802 9.16364 11.988 9.16364C11.7302 9.16364 11.483 9.06019 11.3007 8.87607C11.1184 8.69194 11.016 8.44221 11.016 8.18182Z" fill="white"/>
</svg>
