<svg width="12" height="12" viewBox="0 0 12 12" fill="none" xmlns="http://www.w3.org/2000/svg">
<path fill-rule="evenodd" clip-rule="evenodd" d="M8.79846 6.29317C9.52964 6.29319 10.2318 6.56415 10.7549 7.04816C11.278 7.53216 11.5804 8.19081 11.5977 8.8833C11.6149 9.5758 11.3455 10.2472 10.8471 10.754C10.3487 11.2608 9.66074 11.5628 8.93037 11.5955L8.79846 11.5984H3.19841C2.46724 11.5984 1.76507 11.3275 1.24199 10.8435C0.718921 10.3594 0.416444 9.70081 0.399216 9.00831C0.381988 8.31581 0.651375 7.6444 1.1498 7.13758C1.64822 6.63077 2.33614 6.32877 3.0665 6.29612L3.19841 6.29317H8.79846ZM2.8873 7.76686C2.55725 7.76686 2.24072 7.89107 2.00734 8.11216C1.77396 8.33326 1.64285 8.63313 1.64285 8.94581C1.64285 9.25848 1.77396 9.55835 2.00734 9.77945C2.24072 10.0005 2.55725 10.1248 2.8873 10.1248C3.21735 10.1248 3.53388 10.0005 3.76726 9.77945C4.00064 9.55835 4.13176 9.25848 4.13176 8.94581C4.13176 8.63313 4.00064 8.33326 3.76726 8.11216C3.53388 7.89107 3.21735 7.76686 2.8873 7.76686ZM8.79846 0.398438C9.52964 0.398449 10.2318 0.669416 10.7549 1.15342C11.278 1.63743 11.5804 2.29607 11.5977 2.98857C11.6149 3.68107 11.3455 4.35248 10.8471 4.85929C10.3487 5.3661 9.66074 5.66811 8.93037 5.70075L8.79846 5.7037H3.19841C2.46724 5.70369 1.76507 5.43272 1.24199 4.94872C0.718921 4.46471 0.416444 3.80607 0.399216 3.11357C0.381988 2.42107 0.651375 1.74966 1.1498 1.24285C1.64822 0.736035 2.33614 0.43403 3.0665 0.401385L3.19841 0.398438H8.79846ZM9.10957 1.87212C8.77952 1.87212 8.46299 1.99633 8.22961 2.21743C7.99623 2.43852 7.86512 2.73839 7.86512 3.05107C7.86512 3.36375 7.99623 3.66362 8.22961 3.88471C8.46299 4.10581 8.77952 4.23002 9.10957 4.23002C9.43962 4.23002 9.75615 4.10581 9.98953 3.88471C10.2229 3.66362 10.354 3.36375 10.354 3.05107C10.354 2.73839 10.2229 2.43852 9.98953 2.21743C9.75615 1.99633 9.43962 1.87212 9.10957 1.87212Z" fill="black"/>
</svg>
