<svg width="20" height="16" viewBox="0 0 20 16" fill="none" xmlns="http://www.w3.org/2000/svg">
  <path d="M17.5738 4.01267L17.5858 4.51926C17.5858 9.69239 13.6288 15.6523 6.39178 15.6523C4.17057 15.6523 2.10313 15.0046 0.361328 13.8941C0.668975 13.9298 0.982535 13.9497 1.30017 13.9497C3.14388 13.9497 4.83975 13.3239 6.18605 12.275C4.46423 12.2432 3.012 11.1108 2.51065 9.55731C2.75232 9.60299 2.99604 9.62488 3.25171 9.62488C3.61126 9.62488 3.9588 9.5792 4.28839 9.4898C2.48864 9.12822 1.13235 7.5489 1.13235 5.65368V5.60401C1.66367 5.89802 2.26891 6.07283 2.9141 6.09472C1.85941 5.39345 1.16428 4.19552 1.16428 2.83865C1.16428 2.12149 1.35806 1.45002 1.6956 0.871932C3.63518 3.23996 6.53555 4.79746 9.80546 4.96038C9.73752 4.67427 9.70362 4.37431 9.70362 4.06841C9.70362 1.90898 11.4654 0.156738 13.6387 0.156738C14.7693 0.156738 15.792 0.631508 16.5111 1.39238C17.406 1.21554 18.2489 0.889772 19.01 0.442776C18.7163 1.35663 18.0931 2.12345 17.2801 2.60816C18.0732 2.51477 18.8342 2.30219 19.5393 1.9923C19.012 2.775 18.3428 3.46438 17.5738 4.01267Z" fill="currentColor"/>
</svg>